<?xml version="1.0" encoding="UTF-8"?>
<svg xmlns="http://www.w3.org/2000/svg" xmlns:xlink="http://www.w3.org/1999/xlink" version="1.2" >
<font id="Enrique Bold Round">
<font-face  font-family="Enrique" units-per-em="1024" ascent="975" descent="-300" font-style="normal" font-weight="700" font-stretch="normal" cap-height="999" x-height="488" underline-position="-125" underline-thickness="50" />
<missing-glyph  horiz-adv-x="100" d="" />
<glyph glyph-name="NULL" d="" />
<glyph glyph-name="CR" unicode="&#xd;" horiz-adv-x="256" d="" />
<glyph glyph-name="space" unicode="&#x20;" horiz-adv-x="250" d="" />
<glyph glyph-name="exclam" unicode="&#x21;" horiz-adv-x="232" d="M111.44 0 L120.56 0 C154.473 0 182 27.527 182 61.44 L182 70.56 C182 104.473 154.473 132 120.56 132 L111.44 132 C77.527 132 50 104.473 50 70.56 L50 61.44 C50 27.527 77.527 0 111.44 0 L111.44 0 Z M45 688.56 L45 447.047 C45 446.166 46.3962 433.994 46.5956 433.136 L93.8112 230.02 C96.0633 220.332 106.554 212 116.5 212 C126.456 212 136.9 220.33 139.114 230.037 L185.462 433.256 C185.651 434.083 187 446.068 187 446.918 L187 688.56 C187 722.473 159.473 750 125.56 750 L106.44 750 C72.527 750 45 722.473 45 688.56 L45 688.56 Z " />
<glyph glyph-name="quotedbl" unicode="&#x22;" horiz-adv-x="484" d="M278 689.5 L278 631.068 C278 629.918 279.786 616.316 280.083 615.205 L301.513 535.017 C305.505 520.077 322.536 507 338 507 C353.431 507 370.608 520.081 374.712 534.956 L396.788 614.98 C397.112 616.158 399 630.098 399 631.319 L399 689.5 C399 722.894 371.894 750 338.5 750 C305.106 750 278 722.894 278 689.5 L278 689.5 Z M80 689.5 L80 631.319 C80 630.098 81.8876 616.158 82.2123 614.98 L104.288 534.956 C108.392 520.081 125.569 507 141 507 C156.464 507 173.495 520.077 177.487 535.017 L198.917 615.205 C199.214 616.316 201 629.918 201 631.068 L201 689.5 C201 722.894 173.894 750 140.5 750 C107.106 750 80 722.894 80 689.5 L80 689.5 Z " />
<glyph glyph-name="numbersign" unicode="&#x23;" horiz-adv-x="721" d="M472.891 696.68 L463.109 623.32 C459.22 594.147 431.639 570 402.208 570 L387.5 570 C350.022 570 323.1 600.75 328.053 637.899 L335.335 692.509 C339.529 723.964 316.733 750 285 750 L280.792 750 C251.361 750 223.78 725.853 219.891 696.68 L210.109 623.32 C206.22 594.147 178.639 570 149.208 570 L127.488 570 C99.8891 570 73.8265 547.332 70 520 C66.1735 492.668 85.8891 470 113.488 470 L126.5 470 C161.251 470 186.25 441.496 181.716 407.043 L172.03 333.425 C168.183 304.188 140.604 280 111.115 280 L80.4876 280 C52.8891 280 26.8265 257.332 23 230 C19.1735 202.668 38.8891 180 66.4876 180 L84 180 C121.205 180 147.93 149.475 143.013 112.597 L135.665 57.4912 C131.471 26.0362 154.267 0 186 0 L190.208 0 C219.639 0 247.22 24.1471 251.109 53.3199 L260.891 126.68 C264.78 155.853 292.361 180 321.792 180 L336.5 180 C373.978 180 400.9 149.25 395.947 112.101 L388.665 57.4912 C384.471 26.0362 407.267 0 439 0 L443.208 0 C472.639 0 500.22 24.1471 504.109 53.3199 L513.891 126.68 C517.78 155.853 545.361 180 574.792 180 L589.512 180 C617.111 180 643.174 202.668 647 230 C650.826 257.332 631.111 280 603.512 280 L594 280 C561.165 280 537.544 306.933 541.827 339.487 L551.97 416.575 C555.817 445.812 583.396 470 612.885 470 L636.512 470 C664.111 470 690.174 492.668 694 520 C697.826 547.332 678.111 570 650.512 570 L636.5 570 C601.21 570 575.861 598.954 580.525 633.934 L588.335 692.509 C592.529 723.964 569.733 750 538 750 L533.792 750 C504.361 750 476.78 725.853 472.891 696.68 L472.891 696.68 Z M359.885 470 L374.5 470 C411.987 470 438.954 439.252 434.064 402.085 L425.03 333.425 C421.183 304.188 393.604 280 364.115 280 L349.5 280 C312.013 280 285.046 310.748 289.936 347.915 L298.97 416.575 C302.817 445.812 330.396 470 359.885 470 L359.885 470 Z " />
<glyph glyph-name="dollar" unicode="&#x24;" horiz-adv-x="632" d="M328 790.5 L328 764.062 C328 759.712 325.186 756.366 320.861 756.832 C309.839 758.023 299.161 758.722 288.139 758.932 C283.808 759.015 281 762.668 281 767 L281 792 C281 810.215 266.215 825 248 825 L240.5 825 C219.801 825 203 808.199 203 787.5 C203 770.985 181.535 744.435 166.209 738.281 C84.7656 705.578 35 636.125 35 546 C35 461.125 78.6406 397.688 163.912 357.697 C181.579 349.412 203 317.606 203 298.093 L203 180.5 C203 174.54 196.281 172.564 192.256 176.959 C179.308 191.097 167.702 207.347 157.712 225.709 C153.634 233.206 143.417 236.421 136.412 231.547 L67.5088 183.615 C46.6011 169.07 40.7408 146.589 54.7413 125.313 C82.0949 83.7456 119.969 51.8956 165.067 29.7631 C180.526 22.1766 203 -8.46943 203 -25.6894 L203 -35 C203 -56.5268 220.473 -74 242 -74 L246 -74 C265.319 -74 281 -58.319 281 -39 L281 -11.5664 C281 -7.50547 283.778 -4.3834 287.814 -4.8325 C298.508 -6.0225 309.619 -6.7225 320.803 -6.9325 C325.135 -7.01384 328 -10.6671 328 -15 L328 -40 C328 -58.215 342.785 -73 361 -73 L370.5 -73 C390.095 -73 406 -57.0949 406 -37.5 C406 -20.761 425.879 1.44536 441.966 6.071 C544.35 35.51 597 111.2 597 212 C597 309.125 548 379.453 450.67 421.645 C431.93 429.768 406 462.979 406 483.404 L406 589.423 C406 596.538 413.142 599.668 419.028 595.671 C435.03 584.803 450.537 571.897 465.272 557.227 C471.347 551.179 482.71 550.175 489.062 555.932 L547.031 608.466 C562.705 622.67 562.858 643.616 547.271 657.917 C514.17 688.284 476.664 712.24 437.226 729.51 C423.406 735.562 405 759.642 405 774.73 L405 789.471 C405 810.722 387.735 827.327 366.5 826.5 L362.474 826.343 C343.46 825.602 328 809.529 328 790.5 L328 790.5 Z M280 475.28 L280 634 C280 638.62 284.433 642.003 289.048 641.789 C298.762 641.34 308.238 640.197 317.952 638.599 C322.426 637.862 327 633.395 327 628.861 L327 466.631 C327 461.879 322.068 458.871 317.401 459.769 C306.346 461.896 295.82 464.245 286.12 466.816 C282.29 467.832 280 471.318 280 475.28 L280 475.28 Z M185.823 524.05 C169.855 548.289 169.118 578.422 185.26 601.817 C192.239 611.932 202 606.989 202 594.7 L202 530.135 C202 518.724 192.1 514.521 185.823 524.05 L185.823 524.05 Z M287.642 321.579 C300.464 319.211 313.614 316.842 325.615 314.474 C329.69 313.67 328 310.504 328 306.351 L328 120.016 C328 115.452 325.687 112.104 321.146 112.551 C309.732 113.673 298.391 115.816 287.487 118.98 C283.298 120.195 280.982 124.544 280.961 128.906 L280.04 314.861 C280.019 319.262 283.313 322.379 287.642 321.579 L287.642 321.579 Z M423.766 275.949 C449.068 257.716 462 235.4 462 209 C462 176.825 449.068 150.776 423.766 134.221 C414.154 127.932 406 133.476 406 144.962 L406 265.97 C406 276.937 414.869 282.36 423.766 275.949 L423.766 275.949 Z " />
<glyph glyph-name="percent" unicode="&#x25;" horiz-adv-x="784" d="M597 54 C558 54 538 89 538 141 C538 193 558 228 597 228 C636 228 656 193 656 141 C656 89 636 54 597 54 L597 54 Z M597 -9 C681 -9 724 51 724 141 C724 231 681 291 597 291 C513 291 470 231 470 141 C470 51 513 -9 597 -9 L597 -9 Z M187 522 C148 522 128 557 128 609 C128 661 148 696 187 696 C226 696 246 661 246 609 C246 557 226 522 187 522 L187 522 Z M187 459 C271 459 314 519 314 609 C314 699 271 759 187 759 C103 759 60 699 60 609 C60 519 103 459 187 459 L187 459 Z M181 0 C191.102 0 207.344 9.49772 212.298 18.3018 L613.702 731.698 C618.656 740.502 613.102 750 603 750 C592.898 750 576.656 740.502 571.702 731.698 L170.298 18.3018 C165.344 9.49772 170.898 0 181 0 L181 0 Z " />
<glyph glyph-name="ampersand" unicode="&#x26;" horiz-adv-x="700" d="M638.647 10.6266 L624 104 C620 102 608 101 595 101 C566.282 101 544.97 108.406 526.644 121.007 C520.013 125.567 518.513 136.132 522.17 143.301 C545.211 188.472 559.604 241.911 563.239 301.932 C564.747 326.834 547.352 348.749 523.015 354.231 L479.345 364.067 C465.876 367.1 453.265 356.007 452.709 342.212 C451.351 308.517 446.339 277.504 438.221 249.724 C435.247 239.546 424.717 235.711 418.013 243.927 C386.086 283.055 358.264 316.951 335.815 344.35 C328.729 352.998 331.991 365.219 341.384 371.282 C414.796 418.666 461 477.75 461 524 C461 626 395 694 297 694 C193 694 123 627 123 527 C123 470.9 133.838 419.858 151.214 386.155 C155.218 378.388 151.144 364.086 143.916 359.175 C75.6369 312.784 32 243.825 32 180 C32 61 119 -19 250 -19 C315.625 -19 373.594 -2.15625 421.227 28.8516 C430.433 34.845 453.684 33.0383 462.854 26.988 C497.798 3.93187 535.975 -9 583 -9 C597.28 -9 615.794 -6.1776 630.836 -1.1255 C635.766 0.530584 639.453 5.48798 638.647 10.6266 L638.647 10.6266 Z M257.386 438.424 C243.947 460.69 236 496.9 236 536 C236 571 260 594 297 594 C333 594 357 564 357 519 C357 495.875 323.631 462.91 276.678 434.352 C268.749 429.529 262.181 430.479 257.386 438.424 L257.386 438.424 Z M224.329 292.967 L346 143 L352 135.5 C355.49 131.138 354.531 125.509 349.78 122.571 C324.76 107.1 296.5 99 265 99 C201 99 158 137 158 195 C158 240 174 278 197 291 L207.25 296.5 C212.807 299.482 220.356 297.864 224.329 292.967 L224.329 292.967 Z " />
<glyph glyph-name="quotesingle" unicode="&#x27;" horiz-adv-x="251" d="M80 689.5 L80 631.319 C80 630.098 81.8876 616.158 82.2123 614.98 L104.288 534.956 C108.392 520.081 125.569 507 141 507 C156.464 507 173.495 520.077 177.487 535.017 L198.917 615.205 C199.214 616.316 201 629.918 201 631.068 L201 689.5 C201 722.894 173.894 750 140.5 750 C107.106 750 80 722.894 80 689.5 L80 689.5 Z " />
<glyph glyph-name="parenleft" unicode="&#x28;" horiz-adv-x="361" d="M279.68 778.013 C160.37 668.307 99 518.35 99 335 C99 158.3 160.37 11.3825 279.68 -98.0361 C293.063 -110.309 307.9 -105.04 320 -91.5 C330.742 -79.4793 329.169 -58.1826 317.595 -46.9603 C225.059 42.7694 178 172.2 178 335 C178 503.35 225.059 636.619 317.595 726.894 C329.098 738.115 330.708 759.517 320 771.5 C307.885 785.057 293.064 790.32 279.68 778.013 L279.68 778.013 Z " />
<glyph glyph-name="parenright" unicode="&#x29;" horiz-adv-x="319" d="M81.3195 -98.0135 C200.63 11.6925 262 161.65 262 345 C262 521.7 200.63 668.617 81.3195 778.036 C67.9367 790.309 53.0995 785.04 41 771.5 C30.2581 759.479 31.8314 738.183 43.4048 726.96 C135.941 637.231 183 507.8 183 345 C183 176.65 135.941 43.3806 43.4048 -46.8936 C31.9018 -58.1155 30.292 -79.5172 41 -91.5 C53.1152 -105.057 67.9356 -110.32 81.3195 -98.0135 L81.3195 -98.0135 Z " />
<glyph glyph-name="asterisk" unicode="&#x2a;" horiz-adv-x="411" d="M341 696 L340 696 L340 697 L341 696 L341 696 Z M304.246 535.659 L300.375 539.628 C282.372 558.087 291.124 585.428 316.5 590 L322.205 591.028 C349.408 595.929 364.741 621.778 356 648 C347.247 674.258 319.419 685.915 294.565 673.737 L290 671.5 C267.048 660.254 243.998 676.854 247.391 702.187 L248.296 708.947 C251.964 736.33 232.128 759 204.5 759 C176.868 759 157.009 736.331 160.645 708.939 L161.585 701.859 C164.982 676.268 141.636 659.546 118.5 671 L113.487 673.482 C88.6399 685.782 60.8533 674.106 52.25 647.75 C43.6536 621.415 59.2366 595.693 86.5588 591.119 L91.75 590.25 C116.904 586.039 125.829 559.025 108.133 540.658 L103.529 535.878 C84.1121 515.724 86.8201 485.395 109.5 469 C132.187 452.6 161.871 459.511 174.98 484.246 L177.5 489 C189.605 511.839 218.395 511.839 230.5 489 L233.02 484.246 C246.129 459.511 275.813 452.6 298.5 469 C321.16 485.381 323.768 515.643 304.246 535.659 L304.246 535.659 Z " />
<glyph glyph-name="plus" unicode="&#x2b;" horiz-adv-x="590" d="M256 161.56 L256 39 C256 17.4732 273.473 0 295 0 C316.527 0 334 17.4732 334 39 L334 161.56 C334 195.473 361.527 223 395.44 223 L528 223 C548.423 223 565 239.577 565 260 C565 280.423 548.423 297 528 297 L395.44 297 C361.527 297 334 324.527 334 358.44 L334 481 C334 502.527 316.527 520 295 520 C273.473 520 256 502.527 256 481 L256 358.44 C256 324.527 228.473 297 194.56 297 L62 297 C41.5771 297 25 280.423 25 260 C25 239.577 41.5771 223 62 223 L194.56 223 C228.473 223 256 195.473 256 161.56 L256 161.56 Z " />
<glyph glyph-name="comma" unicode="&#x2c;" horiz-adv-x="232" d="M50 70.56 L50 26.5 C50 11.8728 61.8728 0 76.5 0 L81.5 0 C95.2513 0 103.762 -6.65759 101.579 -20.2345 C98.0072 -42.4486 87.5065 -54.3432 67.8798 -58.3899 C59.6825 -60.08 50 -70.6303 50 -79 L50 -91.5 C50 -110.775 63.7864 -123.458 82.9473 -121.365 C153.672 -113.641 182 -77.875 182 0 L182 70.56 C182 104.473 154.473 132 120.56 132 L111.44 132 C77.527 132 50 104.473 50 70.56 L50 70.56 Z " />
<glyph glyph-name="hyphen" unicode="&#x2d;" horiz-adv-x="365" d="M100 213 L265 213 C292.599 213 315 235.402 315 263 C315 290.599 292.599 313 265 313 L100 313 C72.4015 313 50 290.599 50 263 C50 235.402 72.4015 213 100 213 L100 213 Z " />
<glyph glyph-name="period" unicode="&#x2e;" horiz-adv-x="231" d="M111.44 0 L120.56 0 C154.473 0 182 27.527 182 61.44 L182 70.56 C182 104.473 154.473 132 120.56 132 L111.44 132 C77.527 132 50 104.473 50 70.56 L50 61.44 C50 27.527 77.527 0 111.44 0 L111.44 0 Z " />
<glyph glyph-name="slash" unicode="&#x2f;" horiz-adv-x="326" d="M26.5 0 C40.2449 0 57.3628 11.9857 62.0642 24.9016 L316.936 725.098 C321.637 738.014 313.245 750 299.5 750 C285.755 750 268.637 738.014 263.936 725.098 L9.06419 24.9016 C4.3628 11.9857 12.7551 0 26.5 0 L26.5 0 Z " />
<glyph glyph-name="zero" unicode="0" horiz-adv-x="700" d="M190 375 C190 548 248 649 348 649 C447 649 505 548 505 375 C505 194 452 101 348 101 C244 101 190 194 190 375 L190 375 Z M50 375 C50 122 151 -9 348 -9 C544 -9 645 122 645 375 C645 617 535 759 348 759 C160 759 50 617 50 375 L50 375 Z " />
<glyph glyph-name="one" unicode="1" horiz-adv-x="435" d="M335 61.44 L335 697.5 C335 726.478 311.478 750 282.5 750 L254.427 750 C245.169 750 218.972 739.584 212.241 733.228 L69.2539 598.184 C61.5275 590.887 50 564.144 50 553.517 L50 497.5 C50 464.759 85.7762 449.584 109.317 472.339 L125 487.5 C154.765 516.272 200 497.085 200 455.687 L200 61.44 C200 27.527 227.527 0 261.44 0 L273.56 0 C307.473 0 335 27.527 335 61.44 L335 61.44 Z " />
<glyph glyph-name="two" unicode="2" horiz-adv-x="600" d="M104.44 0 L503.56 0 C537.473 0 565 27.527 565 61.44 L565 68.56 C565 102.473 537.473 130 503.56 130 L242.288 130 C222.004 130 212.252 145.053 222.557 162.525 C250.891 210.564 297.875 245.4 368 285 C477 347 550 441 550 520 C550 663 449 759 298 759 C146 759 45 669 45 535 C45 488.25 58.005 437.888 78.4879 402.336 C85.452 390.249 97.267 388.694 109.703 395.015 L195.379 438.568 C202.597 442.237 204.313 453.556 200.094 460.467 C185.529 484.324 176 512.725 176 535 C176 603 225 649 298 649 C368 649 415 601 415 529 C415 468 332 380 208 310 C103.875 251.375 55.6406 197.344 45.209 62.8262 C42.3842 26.4005 67.9049 0 104.44 0 L104.44 0 Z " />
<glyph glyph-name="three" unicode="3" horiz-adv-x="599" d="M50.7129 180.15 C75.7475 64.695 168.95 -9 299 -9 C452 -9 554 78 554 209 C554 286 514.188 353.813 449.971 393.01 C440.125 399.02 442.054 418.8 451.432 425.517 C495.775 457.276 523 508.075 523 565 C523 681 432 758 296 758 C180.4 758 97.3125 694.42 74.9872 594.896 C65.9396 554.562 89.1041 539 130.44 539 L171.5 539 C185.82 539 204.236 557.047 207.125 571.072 C216.801 618.053 248.275 648 292 648 C356 648 399 610 399 554 C399 492 357 450 294 450 L254 450 C231.921 450 214 432.079 214 410 L214 376 C214 359.441 227.441 346 244 346 L274 346 C355 346 409 293 409 213 C409 151 365 110 299 110 C242.075 110 200.804 146.754 188.103 204.539 C184.387 221.443 161.309 244.162 144.001 244.286 L105.879 244.558 C64.5438 244.853 41.9534 220.548 50.7129 180.15 L50.7129 180.15 Z " />
<glyph glyph-name="four" unicode="4" horiz-adv-x="595" d="M25 293.789 L25 262.5 C25 233.523 48.5218 210.208 77.4979 210.465 L138 211 L274.56 211 C308.473 211 336 183.473 336 149.56 L336 61.44 C336 27.527 363.527 0 397.44 0 L409.56 0 C443.473 0 471 27.527 471 61.44 L471 159 C471 187.702 494.298 211 523 211 C551.702 211 575 234.298 575 263 L575 279 C575 307.702 551.702 331 523 331 C494.298 331 471 354.298 471 383 L471 697.5 C471 726.478 447.478 750 418.5 750 L395.904 750 C382.914 750 355.565 736.689 347.551 726.465 L38.0862 331.694 C33.6299 326.009 25 301.012 25 293.789 L25 293.789 Z M215.819 399.356 L267.644 465.18 C290.984 494.825 336 479.23 336 441.5 L336 392.44 C336 358.527 308.473 331 274.56 331 L249 331 C211.27 331 192.478 369.711 215.819 399.356 L215.819 399.356 Z " />
<glyph glyph-name="five" unicode="5" horiz-adv-x="595" d="M511.761 645.44 L514.5 685 C516.978 720.792 489.722 750 453.844 750 L163.159 750 C132.286 750 104.733 724.816 101.966 694.067 L75.8275 403.639 C73.1858 374.287 94.7914 344.652 123.544 338.188 L177.192 326.127 C186.355 324.067 209.981 331.859 216.897 338.214 C244.252 363.346 274.55 379 296 379 C364 379 410 321 410 235 C410 161 366 111 300 111 C243.075 111 201.804 147.754 189.103 205.539 C185.381 222.473 162.339 245 145 245 L106.44 245 C65.3405 245 43.0035 220.317 51.7129 180.15 C76.7475 64.695 169.95 -9 300 -9 C453 -9 555 89 555 235 C555 388 462 490 322 490 C292.3 490 261.239 482.513 233.87 469.785 C227.048 466.613 218.259 471.324 219.17 478.792 L230.279 569.885 C233.97 600.152 262.027 624.493 292.512 623.875 L459 620.5 L484.5 620.25 C498.55 620.112 510.791 631.423 511.761 645.44 L511.761 645.44 Z " />
<glyph glyph-name="six" unicode="6" horiz-adv-x="604" d="M527.348 671.506 C479.439 724.969 404.9 759 329 759 C148 759 54 603 54 369 C54 120 145 -9 322 -9 C477 -9 580 93 580 245 C580 378.875 505.734 473.703 390.029 495.318 C358.206 501.263 334.274 484.093 326.891 452.572 L324.974 444.391 C324.913 444.129 324.441 444.238 324.5 444.5 L330.298 470.245 C334.575 489.231 324.396 500.794 305.493 496.167 C267.31 486.823 232.888 460.937 209.915 424.553 C206.35 418.906 194.465 420.546 194.775 427.217 C201.142 564.159 246.675 654 329 654 C366.95 654 407.623 630.859 436.98 594.684 C445.529 584.149 466.856 578.356 478.232 585.751 L518.12 611.678 C542.14 627.291 546.467 650.171 527.348 671.506 L527.348 671.506 Z M312 389 C386 389 435 331 435 245 C435 159 390 101 322 101 C262 101 222 152 204 251 C203.944 251.309 203.655 256.858 203.642 257.172 C200.167 336.716 242.775 389 312 389 L312 389 Z " />
<glyph glyph-name="seven" unicode="7" horiz-adv-x="490" d="M30 688.56 L30 681.44 C30 647.527 57.527 620 91.44 620 L237.703 620 C284.036 620 308.196 562.874 278.995 526.901 C170.204 392.881 120.376 251.169 112.215 59.1557 C110.714 23.8346 137.087 0 172.44 0 L199.56 0 C232.327 0 260.937 31.4183 262.045 64.1663 C270.228 306.149 327.182 461.883 457.023 597.023 C463.576 603.843 480 636.69 480 646.149 L480 688.56 C480 722.473 452.473 750 418.56 750 L91.44 750 C57.527 750 30 722.473 30 688.56 L30 688.56 Z " />
<glyph glyph-name="eight" unicode="8" horiz-adv-x="629" d="M209 554 C209 617 251 649 315 649 C385 649 421 611 421 554 C421 489 379 460 315 460 C242 460 209 498 209 554 L209 554 Z M85 565 C85 502.3 107.461 451.171 155.751 418.35 C165.641 411.628 165.004 390.199 154.488 384.506 C91.8475 350.6 55 290.25 55 201 C55 74 136 -10 315 -10 C470 -10 574 55 574 201 C574 284.125 541.844 349.641 472.172 386.158 C462.332 391.316 462.768 410.565 472.105 416.585 C518.456 446.469 545 494.525 545 563 C545 679 467 757 315 757 C177 757 85 692 85 564 L85 565 Z M200 211 C200 299 246 338 315 338 C394 338 430 288 430 212 C430 134 384 99 315 99 C236 99 200 144 200 211 L200 211 Z " />
<glyph glyph-name="nine" unicode="9" horiz-adv-x="604" d="M102.652 78.4943 C150.561 25.0312 225.1 -9 301 -9 C482 -9 576 147 576 381 C576 630 485 759 308 759 C153 759 50 657 50 505 C50 371.125 124.266 276.297 239.971 254.682 C271.794 248.737 295.726 265.907 303.109 297.428 L305.026 305.609 C305.087 305.871 305.559 305.762 305.5 305.5 L299.702 279.755 C295.425 260.769 305.604 249.206 324.507 253.833 C362.69 263.177 397.112 289.063 420.085 325.447 C423.65 331.094 435.535 329.454 435.225 322.783 C428.858 185.841 383.325 96 301 96 C263.05 96 222.378 119.141 193.02 155.316 C184.471 165.851 163.144 171.644 151.768 164.249 L111.88 138.322 C87.8601 122.709 83.5334 99.8292 102.652 78.4943 L102.652 78.4943 Z M318 361 C244 361 195 419 195 505 C195 591 240 649 308 649 C368 649 408 598 426 499 C426.056 498.691 426.345 493.142 426.358 492.828 C429.832 413.284 387.225 361 318 361 L318 361 Z " />
<glyph glyph-name="colon" unicode="&#x3a;" horiz-adv-x="231" d="M111.44 388 L120.56 388 C154.473 388 182 415.527 182 449.44 L182 458.56 C182 492.473 154.473 520 120.56 520 L111.44 520 C77.527 520 50 492.473 50 458.56 L50 449.44 C50 415.527 77.527 388 111.44 388 L111.44 388 Z M111.44 0 L120.56 0 C154.473 0 182 27.527 182 61.44 L182 70.56 C182 104.473 154.473 132 120.56 132 L111.44 132 C77.527 132 50 104.473 50 70.56 L50 61.44 C50 27.527 77.527 0 111.44 0 L111.44 0 Z " />
<glyph glyph-name="semicolon" unicode="&#x3b;" horiz-adv-x="231" d="M111.44 388 L120.56 388 C154.473 388 182 415.527 182 449.44 L182 458.56 C182 492.473 154.473 520 120.56 520 L111.44 520 C77.527 520 50 492.473 50 458.56 L50 449.44 C50 415.527 77.527 388 111.44 388 L111.44 388 Z M50 70.56 L50 26.5 C50 11.8728 61.8728 0 76.5 0 L81.5 0 C95.2513 0 103.762 -6.65759 101.579 -20.2345 C98.0072 -42.4486 87.5065 -54.3432 67.8798 -58.3899 C59.6825 -60.08 50 -70.6303 50 -79 L50 -91.5 C50 -110.775 63.7864 -123.458 82.9473 -121.365 C153.672 -113.641 182 -77.875 182 0 L182 70.56 C182 104.473 154.473 132 120.56 132 L111.44 132 C77.527 132 50 104.473 50 70.56 L50 70.56 Z " />
<glyph glyph-name="less" unicode="&#x3c;" horiz-adv-x="555" d="M448.935 475.55 L82.5416 320.851 C63.4516 312.791 45 284.971 45 264.249 L45 255.751 C45 235.029 63.4516 207.209 82.5416 199.149 L448.938 44.4486 C472.36 34.5589 495 49.5749 495 75 L495 83.426 C495 104.728 476.182 132.538 456.407 140.46 L300.585 202.882 C246.307 224.625 246.343 295.285 300.643 316.973 L456.932 379.396 C477.037 387.426 495.796 415.419 495.579 437.067 L495.5 445 C495.245 470.531 472.457 485.482 448.935 475.55 L448.935 475.55 Z " />
<glyph glyph-name="equal" unicode="&#x3d;" horiz-adv-x="604" d="M39 165 C39 144.577 55.5771 128 76 128 L517 128 C537.423 128 554 144.577 554 165 C554 185.423 537.423 202 517 202 L76 202 C55.5771 202 39 185.423 39 165 L39 165 Z M39 365 C39 344.577 55.5771 328 76 328 L517 328 C537.423 328 554 344.577 554 365 C554 385.423 537.423 402 517 402 L76 402 C55.5771 402 39 385.423 39 365 L39 365 Z " />
<glyph glyph-name="greater" unicode="&#x3e;" horiz-adv-x="555" d="M255.626 202.966 L99.5926 140.46 C79.8183 132.538 61 104.728 61 83.426 L61 75 C61 49.5749 83.6396 34.5589 107.062 44.4486 L473.458 199.149 C492.548 207.209 511 235.029 511 255.751 L511 264.249 C511 284.971 492.548 312.791 473.458 320.851 L107.062 475.551 C83.6396 485.441 61 470.425 61 445 L61 436.574 C61 415.272 79.8183 387.462 99.5926 379.54 L255.626 317.034 C309.882 295.3 309.882 224.7 255.626 202.966 L255.626 202.966 Z " />
<glyph glyph-name="question" unicode="&#x3f;" horiz-adv-x="566" d="M259.44 0 L268.56 0 C302.473 0 330 27.527 330 61.44 L330 70.56 C330 104.473 302.473 132 268.56 132 L259.44 132 C225.527 132 198 104.473 198 70.56 L198 61.44 C198 27.527 225.527 0 259.44 0 L259.44 0 Z M69.5013 550.431 L93.3752 546.315 C108.839 543.648 132.717 561.743 138.038 576.506 C157.304 629.969 206.825 664 272 664 C342 664 389 620 389 555 C389 521 365 491 304 448 C234.3 398.7 212.285 364.572 207.249 268.852 C205.478 235.202 230.304 212 264 212 L275.5 212 C299.049 212 321.641 236.828 323.584 260.296 C328.16 315.56 344 337.8 388 369 C480 434 516 486 516 555 C516 677 418 759 272 759 C149.6 759 56.1 701.2 24.6628 610.779 C11.7091 573.521 30.6293 557.133 69.5013 550.431 L69.5013 550.431 Z " />
<glyph glyph-name="at" unicode="&#x40;" horiz-adv-x="1258" d="M1009 -134.52 C917.15 -187.98 783.5 -222 662 -222 C354 -222 149 -26 149 269 C149 564 351 760 654 760 C930 760 1114 599 1114 357 C1114 174 1053 52 961 52 C892 52 853 114 864 208 C864 208 875.979 456.987 894.396 494.335 C894.396 494.335 892.26 494.84 892.26 494.84 L890.636 498.495 C890.636 498.495 888.5 499 888.5 499 L788 499 C783.091 499 778.851 482.934 774.733 457.922 C773.774 452.098 766.055 449.204 762.436 453.867 C732.07 492.99 686.8 510 631 510 C476 510 361 414 344 269 C324 104 415 -6 571 -6 C640.7 -6 700.285 20.01 742.385 65.2746 C751.076 74.6177 771.905 69.1699 778.578 58.2941 C807.654 10.9056 858 -17 924 -17 C1091 -17 1203 133 1203 357 C1203 646 983 839 654 839 C297 839 59 611 59 269 C59 -73 300 -301 662 -301 C791.6 -301 940.64 -260.5 1047.16 -197.725 C1066.07 -186.576 1072.29 -163.847 1059.5 -146 C1048.66 -130.873 1025.09 -125.159 1009 -134.52 L1009 -134.52 Z M756 260 C754 229 753 208 753 208 C745 142 677 98 583 98 C500 98 453 166 465 269 C475 351 536 405 618 405 C700 405 754 363.5 756 260.5 L756 260 Z " />
<glyph glyph-name="A" unicode="A" horiz-adv-x="725" d="M697 50 L452.844 709.88 C445.16 730.649 417.367 750 395.222 750 L314.585 750 C302.442 750 286.876 739.327 282.5 728 L274 706 C273 703 40 86 17 25 C11 10 8 0 8 0 C8 0 11.0763 0 13.2202 0 L149.192 0 C151.143 0 152.316 -1.62567 153.073 0.172051 C153.554 1.31405 156.364 8.09091 160 19 L196.165 116.858 C203.846 137.641 231.638 157 253.795 157 L469.83 157 C492.248 157 520.034 137.477 527.633 116.386 L562 21 C566 8 569 0 569 0 C569 0 569.869 0 573.272 0 L714 0 C713 2 697 50 696 50 L697 50 Z M277.273 342.586 L304.059 415.661 C324.303 470.889 397.412 470.785 417.5 415.5 L444.053 342.422 C459.589 299.662 431.801 260 386.306 260 L334.959 260 C289.374 260 261.584 299.786 277.273 342.586 L277.273 342.586 Z " />
<glyph glyph-name="B" unicode="B" horiz-adv-x="725" d="M545.625 436.011 C592.775 462.498 620 502.325 620 551 C620 694 543 749 345 749 L146.44 749 C112.527 749 85 721.473 85 687.56 L85 60.44 C85 26.527 112.527 -1 146.44 -1 L415 -1 C613 -1 690 59 690 215 C690 310.4 634.515 382.715 543.957 412.262 C534.972 415.193 537.385 431.383 545.625 436.011 L545.625 436.011 Z M219 503.002 L219 582.56 C219 616.473 246.527 644 280.44 644 L349 644 C443 644 479 615 479 542 C479 489 415 454 319 454 L269 453.5 C241.403 453.224 219 475.404 219 503.002 L219 503.002 Z M219 165.44 L219 290.56 C219 324.476 185.331 352.003 219.247 352 C225.617 351.999 353.025 351.975 354 351 C468 351 544 303 544 230 C544 139 497 104 376 104 L280.44 104 C246.527 104 219 131.527 219 165.44 L219 165.44 Z " />
<glyph glyph-name="C" unicode="C" horiz-adv-x="714" d="M572.272 195.539 C530.877 137.754 464.3 101 395 101 C275 101 195 227 195 375 C195 523 275 649 395 649 C456.05 649 521.184 612.246 567.941 554.461 C581.599 537.582 613.72 530.694 630.359 544.644 L654.477 564.865 C680.668 586.823 686.905 613.299 664.743 639.318 C602.188 712.76 500.4 759 395 759 C188 759 50 582 50 375 C50 168 188 -9 395 -9 C510.6 -9 614.64 37.24 669.658 110.682 C688.878 136.338 683.13 161.113 658.565 181.708 L628.613 206.819 C613.5 219.49 583.757 211.571 572.272 195.539 L572.272 195.539 Z " />
<glyph glyph-name="D" unicode="D" horiz-adv-x="765" d="M350 0 C594 0 710 121 710 375 C710 623 577 750 320 750 L146.44 750 C112.527 750 85 722.473 85 688.56 L85 61.44 C85 27.527 112.527 0 146.44 0 L350 0 L350 0 Z M220 165.5 L220 592.5 C220 621.478 243.522 645 272.5 645 L325 645 C483 645 565 553 565 375 C565 192 493 105 341 105 L280.5 105 C247.106 105 220 132.106 220 165.5 L220 165.5 Z " />
<glyph glyph-name="E" unicode="E" horiz-adv-x="645" d="M540 110 L281.44 110 C247.527 110 220 137.527 220 171.44 L220 272.56 C220 306.473 247.527 334 281.44 334 L507 334 C536.254 334 560 357.746 560 387 C560 416.254 536.254 440 507 440 L281.44 440 C247.527 440 220 467.527 220 501.44 L220 578.56 C220 612.473 247.527 640 281.44 640 L525 640 C555.358 640 580 664.642 580 695 C580 725.358 555.358 750 525 750 L146.44 750 C112.527 750 85 722.473 85 688.56 L85 61.44 C85 27.527 112.527 0 146.44 0 L540 0 C570.358 0 595 24.6416 595 55 C595 85.3584 570.358 110 540 110 L540 110 Z " />
<glyph glyph-name="F" unicode="F" horiz-adv-x="610" d="M550 387 C550 416.254 526.254 440 497 440 L281.44 440 C247.527 440 220 467.527 220 501.44 L220 578.56 C220 612.473 247.527 640 281.44 640 L525 640 C555.358 640 580 664.642 580 695 C580 725.358 555.358 750 525 750 L146.44 750 C112.527 750 85 722.473 85 688.56 L85 61.44 C85 27.527 112.527 0 146.44 0 L158.56 0 C192.473 0 220 27.527 220 61.44 L220 272.56 C220 306.473 247.527 334 281.44 334 L497 334 C526.254 334 550 357.746 550 387 L550 387 Z " />
<glyph glyph-name="G" unicode="G" horiz-adv-x="771" d="M422.5 324 L535.56 324 C569.473 324 597 296.473 597 262.56 L597 180.224 C597 166.558 589.552 148.636 578.012 141.315 C539.52 116.895 486.65 101 428 101 C288 101 195 211 195 375 C195 539 288 649 428 649 C484.1 649 546.326 612.246 592.216 554.461 C605.841 537.305 637.57 530.569 654.359 544.644 L678.477 564.865 C704.511 586.691 710.817 613.323 688.946 639.318 C627.155 712.76 528.3 759 428 759 C201 759 50 605 50 375 C50 145 201 -9 428 -9 C535.1 -9 633.29 23.4 703.616 72.891 C715.389 81.1759 726 104.433 726 118.829 L726 373.56 C726 407.473 698.473 435 664.56 435 L422.5 435 C391.866 435 367 410.134 367 379.5 C367 348.866 391.866 324 422.5 324 L422.5 324 Z " />
<glyph glyph-name="H" unicode="H" horiz-adv-x="785" d="M700 61.44 L700 688.56 C700 722.473 672.473 750 638.56 750 L626.44 750 C592.527 750 565 722.473 565 688.56 L565 511.44 C565 477.527 537.473 450 503.56 450 L281.44 450 C247.527 450 220 477.527 220 511.44 L220 688.56 C220 722.473 192.473 750 158.56 750 L146.44 750 C112.527 750 85 722.473 85 688.56 L85 61.44 C85 27.527 112.527 0 146.44 0 L158.56 0 C192.473 0 220 27.527 220 61.44 L220 278.56 C220 312.473 247.527 340 281.44 340 L503.56 340 C537.473 340 565 312.473 565 278.56 L565 61.44 C565 27.527 592.527 0 626.44 0 L638.56 0 C672.473 0 700 27.527 700 61.44 L700 61.44 Z " />
<glyph glyph-name="I" unicode="I" horiz-adv-x="308" d="M223 61.44 L223 688.56 C223 722.473 195.473 750 161.56 750 L149.44 750 C115.527 750 88 722.473 88 688.56 L88 61.44 C88 27.527 115.527 0 149.44 0 L161.56 0 C195.473 0 223 27.527 223 61.44 L223 61.44 Z " />
<glyph glyph-name="J" unicode="J" horiz-adv-x="572" d="M47 247 L47 215 C47 60 115 -9 267 -9 C412 -9 487 83 487 220 L487 688.56 C487 722.473 459.473 750 425.56 750 L413.44 750 C379.527 750 352 722.473 352 688.56 L352 220 C352 158 323 116 267 116 C208 116 182 159 182 254 L182 278.5 C182 291.814 170.987 301.042 157.878 298.712 L78.506 284.601 C61.3841 281.557 47 264.39 47 247 L47 247 Z " />
<glyph glyph-name="K" unicode="K" horiz-adv-x="690" d="M666.5 25 L653 50 L438.71 446.665 C427.922 466.634 432.051 500.438 447.328 517.223 L651 741 L655 745.5 C656.65 747.356 655.463 750 652.979 750 L521.659 750 C510.067 750 483.544 737.801 476 729 L458 708 L323.724 552.849 C286.257 509.558 220 534.248 220 591.5 L220 688.56 C220 722.473 192.473 750 158.56 750 L146.44 750 C112.527 750 85 722.473 85 688.56 L85 61.44 C85 27.527 112.527 0 146.44 0 L158.675 0 C192.524 0 220.051 27.4757 220.114 61.3254 L220.456 244.225 C220.472 253.059 230.578 279.031 236.536 285.552 L270.75 323 C296.844 351.56 337.683 346.31 355.705 312.078 L502.722 32.8186 C511.161 16.7893 538.974 0 557.089 0 L651.588 0 C665.387 0 673.057 12.858 666.5 25 L666.5 25 Z " />
<glyph glyph-name="L" unicode="L" horiz-adv-x="578" d="M493 110 L284.44 110 C250.527 110 223 137.527 223 171.44 L223 688.56 C223 722.473 195.473 750 161.56 750 L149.44 750 C115.527 750 88 722.473 88 688.56 L88 61.44 C88 27.527 115.527 0 149.44 0 L493 0 C523.358 0 548 24.6416 548 55 C548 85.3584 523.358 110 493 110 L493 110 Z " />
<glyph glyph-name="M" unicode="M" horiz-adv-x="911" d="M826 61.44 L826 688.56 C826 722.473 798.473 750 764.56 750 L660.1 750 C635.669 750 607.941 729.195 601.111 705.738 L513.258 404.054 C495.811 344.142 413.246 343.864 395.395 403.657 L305.095 706.136 C298.169 729.336 270.434 750 246.223 750 L147.44 750 C113.527 750 86 722.473 86 688.56 L86 61.44 C86 27.527 113.527 0 147.44 0 L155.56 0 C189.473 0 217 27.527 217 61.44 L217 293 C217 340.246 288.793 350.967 302.596 305.782 L382.715 43.4912 C389.728 20.5326 417.469 0 441.475 0 L470.17 0 C494.418 0 522.151 20.6872 529.062 43.929 L609.212 313.484 C622.708 358.873 695 348.352 695 301 L695 61.44 C695 27.527 722.527 0 756.44 0 L764.56 0 C798.473 0 826 27.527 826 61.44 L826 61.44 Z " />
<glyph glyph-name="N" unicode="N" horiz-adv-x="755" d="M419.232 401.187 L252.295 717.254 C243.854 733.237 216.042 750 197.967 750 L146.44 750 C112.527 750 85 722.473 85 688.56 L85 61.44 C85 27.527 112.527 0 146.44 0 L158.56 0 C192.473 0 220 27.527 220 61.44 L220 247 C220 310.689 305.633 331.92 335.385 275.608 L463.703 32.7385 C472.145 16.7608 499.956 0 518.027 0 L608.56 0 C642.473 0 670 27.527 670 61.44 L670 688.56 C670 722.473 642.473 750 608.56 750 L596.44 750 C562.527 750 535 722.473 535 688.56 L535 429.881 C535 365.981 449.076 344.684 419.232 401.187 L419.232 401.187 Z " />
<glyph glyph-name="O" unicode="O" horiz-adv-x="814" d="M200 375 C200 531 289 649 407 649 C525 649 614 531 614 375 C614 211 531 101 407 101 C283 101 200 211 200 375 L200 375 Z M55 375 C55 145 196 -9 407 -9 C618 -9 759 145 759 375 C759 594 608 759 407 759 C206 759 55 594 55 375 L55 375 Z " />
<glyph glyph-name="P" unicode="P" horiz-adv-x="624" d="M220 61.44 L220 250.5 C220 277.823 242.177 300 269.5 300 L319 300 C497 300 589 377 589 525 C589 674 497 750 319 750 L146.44 750 C112.527 750 85 722.473 85 688.56 L85 61.44 C85 27.527 112.527 0 146.44 0 L158.56 0 C192.473 0 220 27.527 220 61.44 L220 61.44 Z M220 457 L220 598 C220 623.943 241.057 645 267 645 L314 645 C406 645 454 604 454 525 C454 446 410 405 324 405 L272 405 C243.298 405 220 428.298 220 457 L220 457 Z " />
<glyph glyph-name="Q" unicode="Q" horiz-adv-x="814" d="M200 375 C200 531 289 649 407 649 C525 649 614 531 614 375 C614 300.075 596.888 236.273 566.62 189.135 C562.103 182.101 554.325 184.492 549.366 191.222 C537.211 207.72 524.211 224.713 510.366 242.478 C504.301 250.26 492.773 252.076 485.034 245.957 L426.727 199.854 C419.126 193.844 418.088 182.216 423.928 174.484 C438.361 155.374 452.219 137.244 465.158 120.094 C468.661 115.451 467.072 109.258 461.482 107.652 C444.384 102.74 426.034 100 407 100 C283 100 200 210.5 200 374.5 L200 375 Z M55 374 C55 144 196 -10 407 -10 C447.425 -10 485.128 -4.555 519.546 6.335 C529.729 9.55691 547.877 3.90268 553.811 -4.978 C590.18 -59.41 608 -91 608 -91 C608 -91 617.263 -83.7603 625.64 -77.2126 L679.46 -35.1459 C687.978 -28.4888 700.457 -32.2461 694.962 -22.9364 C694.163 -21.5809 680.563 1.39061 654.163 41.3701 C645.011 55.2286 651.509 84.6365 662.68 96.9258 C723.547 163.891 758 259.375 758 374 C758 593 607 758 406 758 C205 758 54.5 593 54.5 374 L55 374 Z " />
<glyph glyph-name="R" unicode="R" horiz-adv-x="624" d="M585.624 59.3159 C541.52 135.674 497.723 212.339 453.57 288.647 C441.341 309.783 457.132 337.819 479.423 347.789 C551.246 379.914 588 439.025 588 524 C588 673 496 749 318 749 L145.44 749 C111.527 749 84 721.473 84 687.56 L84 60.44 C84 26.527 111.527 -1 145.44 -1 L157.56 -1 C191.473 -1 219 26.527 219 60.44 L219 288.5 C219 305.335 232.665 319 249.5 319 C264.094 319 287.928 305.211 295.203 292.559 L446.151 30.0422 C454.723 15.1339 482.61 -0.880702 499.807 -0.770466 L556.37 -0.407887 C586.784 -0.212923 600.836 32.9784 585.624 59.3159 L585.624 59.3159 Z M219 475.5 L219 597 C219 622.943 240.057 644 266 644 L313 644 C405 644 453 603 453 524 C453 458 408 424 322 424 L270.5 424 C242.074 424 219 447.074 219 475.5 L219 475.5 Z " />
<glyph glyph-name="S" unicode="S" horiz-adv-x="632" d="M530.828 670.842 C458.972 729.052 369.625 759 283 759 C134 759 35 673 35 545 C35 424 123 347 295 318 C405 299 462 261 462 205 C462 147 420 109 338 109 C275.3 109 215.322 139.628 173.79 198.638 C161.191 216.539 129.04 225.419 111.07 212.918 L77.3814 189.483 C48.8122 169.608 41.9517 141.358 62.5681 113.319 C122.228 32.1825 223.25 -9 338 -9 C509 -9 597 79 597 210 C597 341 507 424 331 454 C227 472 174 508 174 560 C174 607 218 639 283 639 C336.625 639 395.695 616.539 446.734 573.303 C462.262 560.148 494.397 557.859 509.477 571.526 L531.508 591.491 C558.558 616.005 559.193 647.863 530.828 670.842 L530.828 670.842 Z " />
<glyph glyph-name="T" unicode="T" horiz-adv-x="595" d="M365 61.44 L365 578.56 C365 612.473 392.527 640 426.44 640 L530 640 C560.358 640 585 664.642 585 695 C585 725.358 560.358 750 530 750 L65 750 C34.6416 750 10 725.358 10 695 C10 664.642 34.6416 640 65 640 L168.56 640 C202.473 640 230 612.473 230 578.56 L230 61.44 C230 27.527 257.527 0 291.44 0 L303.56 0 C337.473 0 365 27.527 365 61.44 L365 61.44 Z " />
<glyph glyph-name="U" unicode="U" horiz-adv-x="738" d="M78 289 C78 92 177 -9 368 -9 C559 -9 658 92 658 289 L658 688.56 C658 722.473 630.473 750 596.56 750 L584.44 750 C550.527 750 523 722.473 523 688.56 L523 313 C523 183 470 116 368 116 C266 116 213 183 213 313 L213 688.56 C213 722.473 185.473 750 151.56 750 L139.44 750 C105.527 750 78 722.473 78 688.56 L78 289 L78 289 Z " />
<glyph glyph-name="V" unicode="V" horiz-adv-x="675" d="M603.49 749.817 L510.31 749.175 C496.953 749.082 481.576 737.548 477.75 724.75 L470.5 700.5 L380.063 395.083 C362.399 335.433 280.517 335.107 262.38 394.616 L169 701 C167.214 707.25 158.254 735.821 154.931 745.431 C154.448 746.828 152.785 748 151.307 748 L12.6401 748 C10.693 748 9.57086 746.03 10.1252 744.163 C13.8927 731.478 24.1176 698 25 698 L242.079 40.1861 C249.376 18.0736 277.138 -2 300.424 -2 L342.274 -2 C365.767 -2 393.524 18.2059 400.742 40.5631 L613 698 C615 698 629.5 749 629.5 749 C629.5 749 614.463 749.893 603.49 749.817 L603.49 749.817 Z " />
<glyph glyph-name="W" unicode="W" horiz-adv-x="899" d="M46.0947 740.733 C49.124 726.851 51.7273 713.091 55 700 L189.855 48.9777 C195.338 22.5055 222.983 0 250.017 0 L281.86 0 C307.66 0 335.344 21.691 341.516 46.7421 L389.585 241.844 C404.65 302.989 492.294 302.732 507 241.5 L553.69 47.0922 C559.76 21.8174 587.438 0 613.431 0 L645.257 0 C672.113 0 699.763 22.3864 705.352 48.6539 L845 705 L850 724 L852.5 736.5 C853.853 743.266 849.152 749 842.252 749 L722.748 749 C715.848 749 708.853 743.266 707.5 736.5 L705 724 C702 709 701 699 701 699 L663.5 492 C655.173 446.034 587.924 444.164 577.056 489.596 L526.278 701.855 C520.224 727.163 492.547 749 466.524 749 L433.782 749 C407.557 749 379.886 727.031 373.941 701.488 L325.421 493.03 C314.711 447.016 246.626 448.55 238 495 L199 705 L195 724 L192.5 736.5 C191.149 743.256 184.143 749.04 177.253 749.087 L52.7319 749.94 C48.1079 749.972 45.1088 745.251 46.0947 740.733 L46.0947 740.733 Z " />
<glyph glyph-name="X" unicode="X" horiz-adv-x="662" d="M41 44 L29 26 L21.5 13.5 C17.9502 7.58362 21.6778 1 28.5774 1 L139.761 1 C152.18 1 173.11 12.8505 179.5 23.5 L193 46 C195 50 197 52 196 52 L269.901 172.666 C296.105 215.453 350.594 214.682 375.577 171.17 L444 52 L458.5 27 C465.423 15.0632 488.101 2 501.901 2 L543 2 C576.285 2 596.941 29.5019 580.275 58.3141 C524.113 155.404 468.881 253.005 413.184 350.65 C404.476 365.917 406.819 395.023 416.002 410.009 L598 707 L610 726 L617.5 738.5 C621.05 744.416 617.322 751 610.423 751 L497.812 751 C485.668 751 464.851 739.35 458.5 729 L445 707 C442 703 440 701 441 701 L375.972 594.988 C349.785 552.297 295.431 553.021 270.391 596.395 L210 701 L195.5 726 C188.577 737.937 165.899 751 152.099 751 L110.462 751 C77.4002 751 61.0942 716.521 77.6688 687.913 C129.952 597.674 181.87 506.97 234.266 416.225 C243.057 401 240.261 372.923 231.152 357.887 L41 44 L41 44 Z " />
<glyph glyph-name="Y" unicode="Y" horiz-adv-x="664" d="M321.44 0 L334.56 0 C368.473 0 396 27.527 396 61.44 L396 314.035 C396 318.325 401.684 340.198 403.772 343.946 L605 705 L614 722 L622 736.5 C625.866 743.508 621.443 751 613.44 751 L513.358 751 C504.523 751 499.262 758.581 494.933 750.88 C493.732 748.745 476.857 718.714 473 711 L381.899 544.505 C356.843 498.714 299.157 498.714 274.101 544.505 L183 711 C179 719 161 751 161 751 C161 751 159.968 751 142.642 751 L42.5605 751 C34.5569 751 30.1337 743.508 34 736.5 L42 722 L51 705 L252.228 343.946 C254.316 340.198 260 318.325 260 314.035 L260 61.44 C260 27.527 287.527 0 321.44 0 L321.44 0 Z " />
<glyph glyph-name="Z" unicode="Z" horiz-adv-x="655" d="M555 110 L334.973 110 C280.696 110 253.25 164.932 285.843 208.334 L597.69 623.607 C601.77 629.04 610 653.706 610 660.501 L610 695 C610 725.358 585.358 750 555 750 L115 750 C84.6416 750 60 725.358 60 695 C60 664.642 84.6416 640 115 640 L319.213 640 C373.457 640 400.907 585.141 368.387 541.726 L57.2657 126.375 C53.2068 120.956 45 96.3109 45 89.5406 L45 55 C45 24.6416 69.6416 0 100 0 L555 0 C585.358 0 610 24.6416 610 55 C610 85.3584 585.358 110 555 110 L555 110 Z " />
<glyph glyph-name="bracketleft" unicode="&#x5b;" horiz-adv-x="363" d="M264.44 682 L299 682 C317.767 682 333 697.233 333 716 C333 734.767 317.767 750 299 750 L185.44 750 C151.527 750 124 722.473 124 688.56 L124 -53.56 C124 -87.473 151.527 -115 185.44 -115 L299 -115 C317.767 -115 333 -99.767 333 -81 C333 -62.233 317.767 -47 299 -47 L264.44 -47 C230.527 -47 203 -19.473 203 14.44 L203 620.56 C203 654.473 230.527 682 264.44 682 L264.44 682 Z " />
<glyph glyph-name="backslash" unicode="&#x5c;" horiz-adv-x="343" d="M316.5 0 C330.143 0 338.363 11.9919 333.443 24.7166 L62.5571 725.283 C57.6369 738.008 40.1428 750 26.5 750 C12.8572 750 4.63687 738.008 9.5571 725.283 L280.443 24.7166 C285.363 11.9919 302.857 0 316.5 0 L316.5 0 Z " />
<glyph glyph-name="bracketright" unicode="&#x5d;" horiz-adv-x="364" d="M160 620.56 L160 14.44 C160 -19.473 132.473 -47 98.56 -47 L64 -47 C45.233 -47 30 -62.233 30 -81 C30 -99.767 45.233 -115 64 -115 L177.56 -115 C211.473 -115 239 -87.473 239 -53.56 L239 688.56 C239 722.473 211.473 750 177.56 750 L64 750 C45.233 750 30 734.767 30 716 C30 697.233 45.233 682 64 682 L98.56 682 C132.473 682 160 654.473 160 620.56 L160 620.56 Z " />
<glyph glyph-name="asciicircum" unicode="&#x5e;" horiz-adv-x="340" d="M177.703 652.637 C197.609 642.109 229 600 229 600 C229 600 225.919 600 259.832 600 L284.5 600 C309.282 600 321.943 624.85 307.374 644.898 L249.401 724.678 C241.184 735.985 213.675 750 199.698 750 L140.302 750 C126.325 750 98.8156 735.985 90.599 724.678 L32.6257 644.898 C18.0575 624.85 30.7178 600 55.5 600 L86.8041 600 C95.9108 600 122.037 610.289 128.699 616.499 L163.417 648.863 C169.619 654.645 170.208 656.601 177.703 652.637 L177.703 652.637 Z " />
<glyph glyph-name="underscore" unicode="&#x5f;" horiz-adv-x="680" d="M87 -137 L593 -137 C613.423 -137 630 -120.423 630 -100 C630 -79.5771 613.423 -63 593 -63 L87 -63 C66.5771 -63 50 -79.5771 50 -100 C50 -120.423 66.5771 -137 87 -137 L87 -137 Z " />
<glyph glyph-name="grave" unicode="&#x60;" horiz-adv-x="340" d="M148.065 600 L170 600 C198.742 600 216.548 624.86 207.295 652.073 L188.165 708.338 C180.763 730.11 152.992 750 129.995 750 L95 750 C58.6063 750 39.4694 714.44 59.5165 684.066 L96.7865 627.596 C105.177 614.883 132.833 600 148.065 600 L148.065 600 Z " />
<glyph glyph-name="a" unicode="a" horiz-adv-x="550" d="M94.5119 377.537 L142.039 362.122 C151.536 359.042 168.607 368.101 173.632 376.728 C192.184 408.581 226.05 429 264 429 C318 429 354 417 354 385 C354 331 288 305 190 289 C99 274 39 216 39 145 C39 53 84 -9 199 -9 C257.65 -9 306.185 3.2825 339.692 37.0594 C345.174 42.5854 359.299 40.0858 362.688 33.0784 C375.424 6.74437 405.432 1.28437 476.723 0.234375 C501.924 -0.136807 519 19.7956 519 45 L519 68.5 C519 79.708 507.655 89.75 496.464 90.3727 C475.229 91.5544 474 96.4054 474 116 L474 334 C474 474 390 529 263 529 C180.5 529 109.23 491.566 71.6516 431.858 C55.6838 406.487 65.9967 386.785 94.5119 377.537 L94.5119 377.537 Z M353 227.423 L353 183 C346 99 300 75 235 75 C180 75 159 105 159 149 C159 177 200 202 261 212 C290.7 216.95 316.997 223.942 339.329 234.66 C345.213 237.484 353 233.95 353 227.423 L353 227.423 Z " />
<glyph glyph-name="b" unicode="b" horiz-adv-x="600" d="M190 30.5 L190 31 C190 40.3013 203.66 44.4586 210.435 38.0862 C244.917 5.65437 290.375 -10 344 -10 C468 -10 550 98 550 259 C550 420 468 528 344 528 C290.375 528 244.918 512.346 210.435 479.914 C203.66 473.541 190 477.699 190 487 L190 687.5 C190 720.894 162.894 748 129.5 748 C96.1058 748 69 720.894 69 687.5 L69 58.5083 C69 25.1141 96.1104 -1.55189 129.5 -1 L159.504 -0.504063 C176.335 -0.225874 190 13.6672 190 30.5 L190 30.5 Z M190 258 C190 375 235 427 303 427 C372 427 418 359 418 258 C418 157 372 89 303 89 C235 89 190 141 190 258 L190 258 Z " />
<glyph glyph-name="c" unicode="c" horiz-adv-x="553" d="M402.014 150.316 C379.397 114.141 339.9 91 297 91 C227 91 180 143 180 260 C180 380 227 434 297 434 C343.55 434 381.075 396.095 411.29 338.29 C413.798 333.492 419.463 330.734 424.308 333.15 C439.538 340.746 454.769 348.231 470 355 L496.5 368 C512.339 375.77 518.249 391.372 509.22 406.528 C465.21 480.4 396.9 529 297 529 C148 529 48 446 48 260 C48 74 148 -9 297 -9 C385.275 -9 461.979 26.3925 502.406 83.1396 C519.783 107.531 512.092 127.304 485.159 140.4 L437.896 163.381 C427.303 168.532 408.259 160.304 402.014 150.316 L402.014 150.316 Z " />
<glyph glyph-name="d" unicode="d" horiz-adv-x="603" d="M180 260 C180 361 226 429 296 429 C366 429 412 361 412 260 C412 159 366 91 296 91 C226 91 180 159 180 260 L180 260 Z M48 260 C48 99 131 -9 256 -9 C309.625 -9 355.763 11.4187 391.045 47.2026 C397.829 54.0828 412 50.1581 412 40.496 L412 36 C412 16.1291 428.129 0 448 0 L472.5 0 C505.894 0 533 27.1058 533 60.5 L533 689.5 C533 722.894 505.894 750 472.5 750 C439.106 750 412 722.894 412 689.5 L412 479.504 C412 469.842 397.829 465.917 391.045 472.797 C355.763 508.581 309.625 529 256 529 C131 529 48 421 48 260 L48 260 Z " />
<glyph glyph-name="e" unicode="e" horiz-adv-x="560" d="M407.175 145.314 C386.432 112.099 341.8 91 289 91 C237.025 91 198.663 124.351 185.704 197.79 C179.623 232.255 201.012 250 236.009 250 L486.56 250 C524.476 250 549.118 272.285 544.643 309.936 C528.797 443.25 455.625 529 299 529 C149 529 49 446 49 260 C49 74 145 -9 290 -9 C394.55 -9 480.315 29.2925 516.589 89.9102 C531.927 115.542 520.286 128.135 492.419 138.891 L439.175 159.441 C430.31 162.863 412.209 153.374 407.175 145.314 L407.175 145.314 Z M385.984 334 L223.928 334 C202.58 334 191.053 346.83 199.551 366.414 C219.429 412.22 254.45 434 299 434 C353.45 434 388.162 408.136 407.628 364.27 C415.433 346.681 405.227 334 385.984 334 L385.984 334 Z " />
<glyph glyph-name="f" unicode="f" horiz-adv-x="415" d="M230 60.5 L230 367.5 C230 399.238 255.762 425 287.5 425 L297.5 425 C323.719 425 345 446.281 345 472.5 C345 498.719 323.719 520 297.5 520 L269.5 520 C247.697 520 230 537.697 230 559.5 L230 599 C230 636 245 651 282 651 L295 650.5 L320 650.25 C333.799 650.112 345 661.202 345 675.001 L345 702.5 C345 728.719 323.719 750 297.5 750 L250 750 C148 750 109 708 109 599 L109 559.5 C109 537.697 91.3028 520 69.5 520 C47.6972 520 30 502.303 30 480.5 L30 464.5 C30 442.697 47.6972 425 69.5 425 C91.3028 425 109 407.303 109 385.5 L109 60.5 C109 27.1058 136.106 0 169.5 0 C202.894 0 230 27.1058 230 60.5 L230 60.5 Z " />
<glyph glyph-name="g" unicode="g" horiz-adv-x="593" d="M56.5627 -99.0777 C83.07 -174.372 169.2 -205 288 -205 C457 -205 523 -103 523 51 L523 459.5 C523 492.894 495.894 520 462.5 520 L437 520 C417.681 520 402 504.319 402 485 L402 480.806 C402 471.399 388.232 467.551 381.657 474.278 C347.463 509.262 302.975 529 251 529 C129 529 48 454 48 260 C48 73 129 0 251 0 C302.975 0 347.463 19.0575 381.657 53.2419 C388.298 59.8818 402 55.99 402 46.5985 L402 1 C402 -62 367 -104 278 -104 C229.325 -104 194.262 -92.4294 183.481 -64.2345 C180.747 -57.0847 166.155 -44.1049 158.501 -44.1629 L105.498 -44.5644 C63.1292 -44.8854 42.4927 -59.1117 56.5627 -99.0777 L56.5627 -99.0777 Z M180 261 C180 383 224 430 291 430 C358 430 402 362 402 261 C402 165 358 101 291 101 C224 101 180 146 180 261 L180 261 Z " />
<glyph glyph-name="h" unicode="h" horiz-adv-x="561" d="M491 61 L491 315 C491 454 430 525 338 525 C285.2 525 240.568 507.304 208.033 475.842 C201.889 469.901 189 473.355 189 481.902 L189 689.5 C189 722.894 161.894 750 128.5 750 C95.1058 750 68 722.894 68 689.5 L68 60.5 C68 27.1058 95.1058 0 128.5 0 C161.894 0 189 27.1058 189 60.5 L189 317 C189 376 229 415 290 415 C337 415 369 381 369 315 L369 61 C369 27.3298 396.33 0 430 0 C463.67 0 491 27.3298 491 61 L491 61 Z " />
<glyph glyph-name="i" unicode="i" horiz-adv-x="258" d="M122.44 600 L130.56 600 C164.473 600 192 627.527 192 661.44 L192 670.56 C192 704.473 164.473 732 130.56 732 L122.44 732 C88.527 732 61 704.473 61 670.56 L61 661.44 C61 627.527 88.527 600 122.44 600 L122.44 600 Z M188 61 L188 459 C188 492.67 160.67 520 127 520 C93.3298 520 66 492.67 66 459 L66 61 C66 27.3298 93.3298 0 127 0 C160.67 0 188 27.3298 188 61 L188 61 Z " />
<glyph glyph-name="j" unicode="j" horiz-adv-x="258" d="M122.44 600 L130.56 600 C164.473 600 192 627.527 192 661.44 L192 670.56 C192 704.473 164.473 732 130.56 732 L122.44 732 C88.527 732 61 704.473 61 670.56 L61 661.44 C61 627.527 88.527 600 122.44 600 L122.44 600 Z M-19 -92.5 L-19 -141 C-19 -159.767 -3.76698 -175 15 -175 L49 -175 C157 -175 188 0 188 0 C188 0 188 -28.5132 188 5.39979 L188 459 C188 492.67 160.67 520 127 520 C93.3298 520 66 492.67 66 459 L66 4.48163 C66 4.08986 66.0385 0.248965 65.9791 -0.138281 C65.4325 -3.70313 54.025 -75 16 -75 L-1.5 -75 C-11.1595 -75 -19 -82.8405 -19 -92.5 L-19 -92.5 Z " />
<glyph glyph-name="k" unicode="k" horiz-adv-x="520" d="M479.344 64.5965 L364.443 306.71 C352.89 331.053 324.531 335.561 306 316 C305.903 315.898 305.717 316.072 305.814 316.175 L452 472 C455 475 498 521 498 521 C498 521 473.957 520.758 466.517 520.683 L375.97 519.772 C365.012 519.661 338.281 507.605 330.945 499.464 L308 474 L306 471 L249 407 C228.075 383.505 192 397.241 192 428.703 L192 690.5 C192 723.894 164.894 751 131.5 751 C98.1058 751 71 723.894 71 690.5 L71 61.5 C71 28.1058 98.1058 1 131.5 1 C164.894 1 192 28.1058 192 61.5 L192 169.704 C192 178.876 202.344 205.034 208.617 211.725 L222 226 C237.272 242.29 260.796 238.344 269.916 217.962 L350.861 37.0674 C358.967 18.9529 386.668 0.862463 406.513 0.723688 L438.5 0.5 C474.035 0.251502 494.58 32.4923 479.344 64.5965 L479.344 64.5965 Z " />
<glyph glyph-name="l" unicode="l" horiz-adv-x="258" d="M188 61 L188 689 C188 722.67 160.67 750 127 750 C93.3298 750 66 722.67 66 689 L66 61 C66 27.3298 93.3298 0 127 0 C160.67 0 188 27.3298 188 61 L188 61 Z " />
<glyph glyph-name="m" unicode="m" horiz-adv-x="848" d="M783 59.5 L783 315 C783 454 723 525 632 525 C570.95 525 520.79 499.817 488.258 456.189 C481.6 447.259 460.905 448.022 455.249 457.618 C428.771 502.539 387.15 525 336 525 C284.85 525 241.868 507.304 210.422 475.842 C204.549 469.966 192 473.301 192 481.609 L192 487 C192 505.215 177.215 520 159 520 L131.5 520 C98.1058 520 71 492.894 71 459.5 L71 60.5 C71 27.1058 98.1058 0 131.5 0 C164.894 0 192 27.1058 192 60.5 L192 317 C192 376 232 415 291 415 C337 415 367 381 367 315 L367 61 C367 27.3298 394.33 0 428 0 C461.67 0 489 27.3298 489 61 L489 315 C489 375 527 415 587 415 C633 415 664 381 664 315 L664 59.5 C664 26.6578 690.658 0 723.5 0 C756.342 0 783 26.6578 783 59.5 L783 59.5 Z " />
<glyph glyph-name="n" unicode="n" horiz-adv-x="556" d="M491 61 L491 315 C491 454 430 525 338 525 C285.2 525 240.568 507.304 208.033 475.842 C201.889 469.901 189 473.355 189 481.902 L189 487 C189 505.215 174.215 520 156 520 L128.5 520 C95.1058 520 68 492.894 68 459.5 L68 60.5 C68 27.1058 95.1058 0 128.5 0 C161.894 0 189 27.1058 189 60.5 L189 317 C189 376 229 415 290 415 C337 415 369 381 369 315 L369 61 C369 27.3298 396.33 0 430 0 C463.67 0 491 27.3298 491 61 L491 61 Z " />
<glyph glyph-name="o" unicode="o" horiz-adv-x="590" d="M180 260 C180 384 226 439 294 439 C373 439 408 367 408 260 C408 136 362 81 294 81 C215 81 180 153 180 260 L180 260 Z M48 260 C48 99 124 -9 294 -9 C442 -9 540 74 540 260 C540 421 464 529 294 529 C146 529 48 446 48 260 L48 260 Z " />
<glyph glyph-name="p" unicode="p" horiz-adv-x="600" d="M190 -94.5671 L190 31 C190 40.3013 203.66 44.4586 210.435 38.0862 C244.917 5.65437 290.375 -10 344 -10 C468 -10 550 98 550 259 C550 420 468 528 344 528 C290.375 528 244.918 512.346 210.435 479.914 C203.66 473.541 190 477.699 190 487 L190 487.5 C190 504.335 176.335 518 159.5 518 L129.5 518 C96.1058 518 69 490.894 69 457.5 L69 -96.4917 C69 -129.886 96.1104 -156.552 129.5 -156 L129.575 -155.999 C162.923 -155.448 190 -127.92 190 -94.5671 L190 -94.5671 Z M190 258 C190 375 235 427 303 427 C372 427 418 359 418 258 C418 157 372 89 303 89 C235 89 190 141 190 258 L190 258 Z " />
<glyph glyph-name="q" unicode="q" horiz-adv-x="603" d="M180 260 C180 361 226 429 296 429 C366 429 412 361 412 260 C412 159 366 91 296 91 C226 91 180 159 180 260 L180 260 Z M48 260 C48 99 131 -9 256 -9 C309.625 -9 355.763 11.4187 391.045 47.2026 C397.829 54.0828 412 50.1581 412 40.496 L412 -94.5 C412 -127.894 439.106 -155 472.5 -155 C505.894 -155 533 -127.894 533 -94.5 L533 459.5 C533 492.894 505.894 520 472.5 520 L448 520 C428.129 520 412 503.871 412 484 L412 479.504 C412 469.842 397.829 465.917 391.045 472.797 C355.763 508.581 309.625 529 256 529 C131 529 48 421 48 260 L48 260 Z " />
<glyph glyph-name="r" unicode="r" horiz-adv-x="375" d="M355 399.5 L355 479.5 C355 504.964 340.383 520.942 315.167 517.401 C269.103 510.931 234.827 492.262 209.043 460.02 C203.653 453.28 190 457.047 190 465.677 L190 475.5 C190 500.063 170.063 520 145.5 520 L129.5 520 C96.1058 520 69 492.894 69 459.5 L69 60.5 C69 27.1058 96.1058 0 129.5 0 C162.894 0 190 27.1058 190 60.5 L190 227 C190 324 230 389 334 389 L344.5 389 C350.296 389 355 393.704 355 399.5 L355 399.5 Z " />
<glyph glyph-name="s" unicode="s" horiz-adv-x="501" d="M30 117 C65 44 153 -4 256 -4 C384 -4 470 55 470 143 C470 226 402 292 270 314 C205 325 172 353 172 388 C172 416 206 435 256 435 C290.2 435 328.01 402.51 352.282 352.105 C354.432 347.641 359.942 345.621 364.495 347.574 C378.639 353.639 392.667 360.167 406 366 L430.5 377 C445.493 383.731 451.028 397.607 442.678 411.762 C402.16 480.45 330.7 525 256 525 C136 525 56 466 56 377 C56 293 119 226 241 206 C313 194 350 166 350 132 C350 107 312 90 256 90 C204.7 90 158.815 119.783 138.065 164.772 C135.957 169.342 131.308 170.563 126.629 168.709 C111.178 162.586 95.2308 156.077 80 151 L24 129 C24 128 29.5 117 29.5 117 L30 117 Z " />
<glyph glyph-name="t" unicode="t" horiz-adv-x="345" d="M267.5 520 L261.5 520 C231.97 520 208 543.97 208 573.5 L208 677.872 C208 711.266 173.033 727.523 147.5 706 L108.84 673.411 C99.6232 665.641 87 638.49 87 626.435 L87 558.5 C87 537.249 69.7508 520 48.5 520 C27.2492 520 10 502.751 10 481.5 L10 463.5 C10 442.249 27.2492 425 48.5 425 C69.7508 425 87 407.751 87 386.5 L87 146 C87 37 92 0 201 0 L265.5 0 C292.823 0 315 22.1775 315 49.5 L315 68.5 C315 85.3351 301.335 99 284.5 99 L254 99 C210 99 208 111 208 146 L208 371.5 C208 401.03 231.97 425 261.5 425 L267.5 425 C293.719 425 315 446.281 315 472.5 C315 498.719 293.719 520 267.5 520 L267.5 520 Z " />
<glyph glyph-name="u" unicode="u" horiz-adv-x="554" d="M484 60.5 L484 459.5 C484 492.894 456.894 520 423.5 520 C390.106 520 363 492.894 363 459.5 L363 217 C363 147 323 101 263 101 C202 101 185 136 185 203 L185 459.5 C185 492.894 157.894 520 124.5 520 C91.1058 520 64 492.894 64 459.5 L64 203 C64 63 99 -9 225 -9 C274.5 -9 315.832 12.0994 345.628 49.806 C350.516 55.9918 363 52.997 363 45.1131 L363 38 C363 17.0251 380.025 0 401 0 L423.5 0 C456.894 0 484 27.1058 484 60.5 L484 60.5 Z " />
<glyph glyph-name="v" unicode="v" horiz-adv-x="501" d="M24 470 L162.244 42.5341 C169.469 20.1957 197.226 0 220.703 0 L262.687 0 C285.896 0 313.661 20.025 320.987 42.0476 L466 478 C468 485 480 521 480 521 C480 521 468.575 521 461.026 521 L368.962 521 C355.162 521 339.721 509.288 336 496 L329 471 L285.5 310 C273.544 265.75 211.222 265.955 199.557 310.282 L157 472 L150.5 496.5 C147.032 509.571 132.176 521 118.652 521 L10.1623 521 C8.52665 521 7.60964 519.118 8.1005 517.558 C11.9224 505.41 22.6143 470.5 23.5 470.5 L24 470 Z " />
<glyph glyph-name="w" unicode="w" horiz-adv-x="769" d="M39 470 L158.41 44.8273 C165.101 21.0056 192.818 0 217.562 0 L244.022 0 C269.046 0 296.754 21.1868 303.313 45.336 L335.034 162.126 C347.251 207.105 410.413 207.014 422.5 162 L453.781 45.5066 C460.295 21.2477 488 0 513.119 0 L540.438 0 C565.182 0 592.899 21.0056 599.59 44.8273 L719 470 C719 470 723 482 727 496 L730.5 508 C732.355 514.359 728.124 520 721.5 520 L630.379 520 C617.269 520 603.458 509.021 600.5 496.25 L595 472.5 L559.5 309.75 C550.839 270.042 493.688 269.233 483.905 308.679 L442.957 473.802 C436.833 498.493 409.343 520.21 383.905 520.451 L374.471 520.541 C348.451 520.787 320.568 499.215 314.273 473.967 L273.181 309.155 C263.339 269.684 206.195 270.511 197.5 310.25 L162 472.5 L156.5 496.25 C153.542 509.021 139.731 520 126.621 520 L35.5 520 C28.8764 520 24.6454 514.359 26.5 508 L30 496 C34 482 38.5 470 38.5 470 L39 470 Z " />
<glyph glyph-name="x" unicode="x" horiz-adv-x="555" d="M498 50 L359.108 251.095 C346.665 269.111 346.659 302.892 359.097 320.912 L462 470 C463 470 484 501 490 510 L493.5 515 C495.083 517.261 493.657 520 490.897 520 L355.519 520 C352.483 520 347.13 517.061 345.5 514.5 L342 509 L302 451 C281.362 421.075 242.638 421.075 222 451 L182 509 C178 516 175 520 175 520 L34.1033 520 C31.3434 520 29.9173 517.261 31.5 515 L35 510 C41 502 62 471 62 471 L164.023 322.823 C176.384 304.871 176.393 271.123 164.041 253.164 L25 51 C24 51 3 20 -3 11 L-6.5 6 C-8.08267 3.73904 -6.65657 1 -3.89672 1 L131.481 1 C134.517 1 139.87 3.93878 141.5 6.5 L145 12 L210.345 107.2 C236.436 145.212 285.564 145.212 311.655 107.2 L377 12 C381 5 384 1 384 1 L524.897 1 C527.657 1 529.083 3.73904 527.5 6 L524 11 C518 19 497.5 50 497.5 50 L498 50 Z " />
<glyph glyph-name="y" unicode="y" horiz-adv-x="525" d="M86 -200 L111 -200 C227 -200 267 -176 295 -89 L483 479 C486 486 497 520 497 520 C497 520 486.307 520 479.132 520 L369.341 520 C364.373 520 358.83 515.786 357.5 511 L355 502 L303.449 319.961 C290.845 275.453 228.551 275.839 216.5 320.5 L174 478 C172 486 163 519 163 519 C163 519 158.257 519 145.897 519 L43.3925 519 C34.2827 519 23.1605 527.508 26.0443 518.867 C26.8038 516.591 37.1111 485.741 40 479 L202.722 -13.0876 C203.76 -16.2256 203.95 -29.8343 203 -33 L200 -43 C187 -84 167 -95 111 -95 L86 -95 C72.2007 -95 61 -106.201 61 -120 L61 -175 C61 -188.799 72.2007 -200 86 -200 L86 -200 Z " />
<glyph glyph-name="z" unicode="z" horiz-adv-x="460" d="M92.5 425 L158 425 C209.419 425 236.143 374.234 207.039 331.845 L40.7898 89.7146 C37.4187 84.8049 30 60.8934 30 54.9377 L30 37 C30 16.5771 46.5771 0 67 0 L392.5 0 C418.719 0 440 21.2814 440 47.5 C440 73.7186 418.719 95 392.5 95 L296.088 95 C242.711 95 215.14 147.992 245.774 191.702 L412.873 430.124 C416.398 435.154 424 459.245 424 465.387 L424 483 C424 503.423 407.423 520 387 520 L92.5 520 C66.2814 520 45 498.719 45 472.5 C45 446.281 66.2814 425 92.5 425 L92.5 425 Z " />
<glyph glyph-name="braceleft" unicode="&#x7b;" horiz-adv-x="343" d="M279.5 750 L243 750 C172 750 124 700 124 625 L124 402 C124 369 104.943 352.335 75.2502 347.513 C65.8716 345.99 55 335.001 55 325.5 L55 309.5 C55 299.999 65.8716 289.01 75.2502 287.487 C104.942 282.665 124 266 124 233 L124 10 C124 -65 172 -115 243 -115 L279 -115 C297.767 -115 313 -99.767 313 -81 C313 -62.233 297.767 -47 279 -47 L243 -47 C219 -47 203 -24 203 10 L203 218 C203 262.2 189.273 296.285 167.345 311.657 C164.139 313.904 164.139 322.096 167.345 324.343 C189.272 339.715 203 373.8 203 418 L203 626 C203 660 219 683 243 683 L279.5 683 C297.991 683 313 698.009 313 716.5 C313 734.991 297.991 750 279.5 750 L279.5 750 Z " />
<glyph glyph-name="bar" unicode="&#x7c;" horiz-adv-x="169" d="M45 760.5 L45 -210.5 C45 -232.303 62.6972 -250 84.5 -250 C106.303 -250 124 -232.303 124 -210.5 L124 760.5 C124 782.303 106.303 800 84.5 800 C62.6972 800 45 782.303 45 760.5 L45 760.5 Z " />
<glyph glyph-name="braceright" unicode="&#x7d;" horiz-adv-x="343" d="M30 716 C30 697.233 45.233 682 64 682 L100 682 C124 682 140 659 140 625 L140 417 C140 372.8 153.727 338.715 175.655 323.343 C178.861 321.096 178.861 312.904 175.655 310.657 C153.727 295.285 140 261.2 140 217 L140 9 C140 -25 124 -48 100 -48 L64 -48 C45.233 -48 30 -63.233 30 -82 C30 -100.767 45.233 -116 64 -116 L100 -116 C171 -116 219 -66 219 9 L219 232 C219 265 238.057 281.665 267.75 286.487 C277.128 288.01 288 298.999 288 308.5 L288 324.5 C288 334.001 277.128 344.99 267.75 346.513 C238.057 351.335 219 368 219 401 L219 624 C219 699 171 749 100 749 L63.9965 749.514 C45.2334 749.782 30 734.765 30 716 L30 716 Z " />
<glyph glyph-name="asciitilde" unicode="&#x7e;" horiz-adv-x="340" d="M90.8387 280.651 C93.206 307.907 100.459 325 111 325 C145 325 182 251 238 251 C235 251 229 345 229 345 C229 345 233.449 298.529 233.489 298.119 L235.093 281.361 C237.356 257.723 246.034 247.867 268.075 256.703 C302.757 270.606 327.436 309.109 336.346 363.15 C341.043 391.644 323.879 410 295 410 L269.5 410 C259.668 410 250.012 399.144 249.161 389.349 C247.189 366.635 241.823 350.98 233.989 346.392 C228.454 343.151 233.333 340.53 228.868 345.136 C225.459 348.654 156.6 419 102 419 C103.68 419 105.36 402.771 107.04 383.946 C107.041 383.934 107.022 384.49 107.021 384.502 L106 396.5 C104.575 413.239 98.2886 421.566 82.1035 417.064 C41.7414 405.838 13.2716 363.14 4.69663 301.546 C0.880409 274.134 18.3254 260.814 46 260.5 L70.5013 260.222 C80.3421 260.11 89.9871 270.847 90.8387 280.651 L90.8387 280.651 Z " />
<glyph glyph-name="nbspace" unicode="&#xa0;" horiz-adv-x="220" d="" />
<glyph glyph-name="exclamdown" unicode="&#xa1;" horiz-adv-x="232" d="M50 688.56 L50 679.44 C50 645.527 77.527 618 111.44 618 L120.56 618 C154.473 618 182 645.527 182 679.44 L182 688.56 C182 722.473 154.473 750 120.56 750 L111.44 750 C77.527 750 50 722.473 50 688.56 L50 688.56 Z M106.44 0 L125.56 0 C159.473 0 187 27.527 187 61.44 L187 303.082 C187 303.932 185.651 315.917 185.462 316.744 L139.114 519.963 C136.9 529.67 126.456 538 116.5 538 C106.554 538 96.0633 529.668 93.8112 519.98 L46.5956 316.864 C46.3962 316.006 45 303.834 45 302.953 L45 61.44 C45 27.527 72.527 0 106.44 0 L106.44 0 Z " />
<glyph glyph-name="cent" unicode="&#xa2;" horiz-adv-x="553" d="M258 561 C258 544.919 236.899 524.422 221.259 520.685 C115.23 495.35 48 412.1 48 260 C48 107.9 115.23 24.65 221.259 -0.685 C236.899 -4.4222 258 -24.9192 258 -41 C258 -59.767 273.233 -75 292 -75 L302 -75 C320.767 -75 336 -59.767 336 -41 C336 -24.6723 352.633 -4.94176 368.52 -1.17188 C427.516 12.8281 476.346 43.9781 504.718 86.7901 C518.792 108.027 511.912 125.905 489 137.046 L430.635 165.425 C422.353 169.452 409.158 163.529 404.759 155.439 C392.868 133.576 374.956 116.033 353.77 104.732 C344.306 99.6841 336 104.773 336 115.5 L336 406.557 C336 415.848 342.074 421.035 349.616 415.609 C372.496 399.146 392.463 372.502 409.982 338.936 C412.482 334.146 418.472 330.739 423.308 333.15 C438.538 340.746 453.769 348.231 469 355 L495.5 368 C511.49 375.844 516.2 393.574 507.035 408.846 C474.902 462.389 429.41 502.502 368.027 519.482 C352.63 523.742 336 544.525 336 560.5 C336 579.543 320.543 595 301.5 595 L292 595 C273.233 595 258 579.767 258 561 L258 561 Z M234.518 109.178 C200.419 133.486 180 182.45 180 260 C180 339.2 200.419 389.814 234.518 415.21 C247.078 424.565 258 418.029 258 402.368 L258 122.461 C258 106.764 247.3 100.067 234.518 109.178 L234.518 109.178 Z " />
<glyph glyph-name="guillemotleft" unicode="&#xab;" horiz-adv-x="572" d="M377.761 442.641 L278.721 294.081 C267.144 276.716 267.144 243.284 278.721 225.919 L377.761 77.3592 C386.137 64.794 413.78 50 428.882 50 L448.5 50 C472.612 50 485.253 73.6207 471.878 93.6826 L383.721 225.919 C372.144 243.284 372.144 276.716 383.721 294.081 L471.878 426.317 C485.253 446.379 472.612 470 448.5 470 L428.882 470 C413.78 470 386.137 455.206 377.761 442.641 L377.761 442.641 Z M190.761 442.641 L91.7205 294.081 C80.1442 276.716 80.1442 243.284 91.7205 225.919 L190.761 77.3592 C199.137 64.794 226.78 50 241.882 50 L261.5 50 C285.612 50 298.253 73.6207 284.878 93.6826 L196.721 225.919 C185.144 243.284 185.144 276.716 196.721 294.081 L284.878 426.317 C298.253 446.379 285.612 470 261.5 470 L241.882 470 C226.78 470 199.137 455.206 190.761 442.641 L190.761 442.641 Z " />
<glyph glyph-name="logicalnot" unicode="&#xac;" horiz-adv-x="521" d="M471 123.5 L471 251.56 C471 285.473 443.473 313 409.56 313 L100 313 C72.4015 313 50 290.599 50 263 C50 235.402 72.4015 213 100 213 L288.56 213 C322.473 213 350 185.473 350 151.56 L350 123.5 C350 90.1058 377.106 63 410.5 63 C443.894 63 471 90.1058 471 123.5 L471 123.5 Z " />
<glyph glyph-name="acute" unicode="&#xb4;" horiz-adv-x="340" d="M170 600 L191.935 600 C207.167 600 234.823 614.883 243.214 627.596 L280.483 684.066 C300.531 714.44 281.394 750 245 750 L210.005 750 C187.008 750 159.237 730.11 151.835 708.338 L132.705 652.073 C123.452 624.86 141.258 600 170 600 L170 600 Z " />
<glyph glyph-name="periodcentered" unicode="&#xb7;" horiz-adv-x="231" d="M111.44 194 L120.56 194 C154.473 194 182 221.527 182 255.44 L182 264.56 C182 298.473 154.473 326 120.56 326 L111.44 326 C77.527 326 50 298.473 50 264.56 L50 255.44 C50 221.527 77.527 194 111.44 194 L111.44 194 Z " />
<glyph glyph-name="guillemotright" unicode="&#xbb;" horiz-adv-x="554" d="M264.399 425.901 L352.279 294.081 C363.856 276.716 363.856 243.284 352.279 225.919 L264.399 94.0987 C250.897 73.8456 263.659 50 288 50 L308.118 50 C323.22 50 350.863 64.794 359.239 77.3592 L458.279 225.919 C469.856 243.284 469.856 276.716 458.279 294.081 L359.239 442.641 C350.863 455.206 323.22 470 308.118 470 L288 470 C263.659 470 250.897 446.154 264.399 425.901 L264.399 425.901 Z M77.1218 426.317 L165.279 294.081 C176.856 276.716 176.856 243.284 165.279 225.919 L77.1218 93.6826 C63.7471 73.6207 76.3885 50 100.5 50 L120.118 50 C135.22 50 162.863 64.794 171.239 77.3592 L270.279 225.919 C281.856 243.284 281.856 276.716 270.279 294.081 L171.239 442.641 C162.863 455.206 135.22 470 120.118 470 L100.5 470 C76.3885 470 63.7471 446.379 77.1218 426.317 L77.1218 426.317 Z " />
<glyph glyph-name="questiondown" unicode="&#xbf;" horiz-adv-x="551" d="M256.56 750 L247.44 750 C213.527 750 186 722.473 186 688.56 L186 679.44 C186 645.527 213.527 618 247.44 618 L256.56 618 C290.473 618 318 645.527 318 679.44 L318 688.56 C318 722.473 290.473 750 256.56 750 L256.56 750 Z M446.499 199.569 L422.625 203.685 C407.161 206.352 383.283 188.257 377.962 173.494 C358.696 120.031 309.175 86 244 86 C174 86 127 130 127 195 C127 229 151 259 212 302 C281.7 351.3 303.715 385.428 308.751 481.148 C310.522 514.798 285.696 538 252 538 L240.5 538 C216.951 538 194.359 513.172 192.416 489.704 C187.84 434.44 172 412.2 128 381 C36 316 0 264 0 195 C0 73 98 -9 244 -9 C366.4 -9 459.9 48.8 491.337 139.221 C504.291 176.479 485.371 192.867 446.499 199.569 L446.499 199.569 Z " />
<glyph glyph-name="Agrave" unicode="&#xc0;" horiz-adv-x="725" d="M345.065 830 L367 830 C395.742 830 413.548 854.86 404.295 882.073 L385.165 938.338 C377.763 960.11 349.992 980 326.995 980 L292 980 C255.606 980 236.469 944.44 256.517 914.066 L293.786 857.596 C302.177 844.883 329.833 830 345.065 830 L345.065 830 Z M697 50 L452.844 709.88 C445.16 730.649 417.367 750 395.222 750 L314.585 750 C302.442 750 286.876 739.327 282.5 728 L274 706 C273 703 40 86 17 25 C11 10 8 0 8 0 C8 0 11.0763 0 13.2202 0 L149.192 0 C151.143 0 152.316 -1.62567 153.073 0.172051 C153.554 1.31405 156.364 8.09091 160 19 L196.165 116.858 C203.846 137.641 231.638 157 253.795 157 L469.83 157 C492.248 157 520.034 137.477 527.633 116.386 L562 21 C566 8 569 0 569 0 C569 0 569.869 0 573.272 0 L714 0 C713 2 697 50 696 50 L697 50 Z M277.273 342.586 L304.059 415.661 C324.303 470.889 397.412 470.785 417.5 415.5 L444.053 342.422 C459.589 299.662 431.801 260 386.306 260 L334.959 260 C289.374 260 261.584 299.786 277.273 342.586 L277.273 342.586 Z " />
<glyph glyph-name="Aacute" unicode="&#xc1;" horiz-adv-x="725" d="M367 830 L388.935 830 C404.167 830 431.823 844.883 440.214 857.596 L477.483 914.066 C497.531 944.44 478.394 980 442 980 L407.005 980 C384.008 980 356.237 960.11 348.835 938.338 L329.705 882.073 C320.452 854.86 338.258 830 367 830 L367 830 Z M697 50 L452.844 709.88 C445.16 730.649 417.367 750 395.222 750 L314.585 750 C302.442 750 286.876 739.327 282.5 728 L274 706 C273 703 40 86 17 25 C11 10 8 0 8 0 C8 0 11.0763 0 13.2202 0 L149.192 0 C151.143 0 152.316 -1.62567 153.073 0.172051 C153.554 1.31405 156.364 8.09091 160 19 L196.165 116.858 C203.846 137.641 231.638 157 253.795 157 L469.83 157 C492.248 157 520.034 137.477 527.633 116.386 L562 21 C566 8 569 0 569 0 C569 0 569.869 0 573.272 0 L714 0 C713 2 697 50 696 50 L697 50 Z M277.273 342.586 L304.059 415.661 C324.303 470.889 397.412 470.785 417.5 415.5 L444.053 342.422 C459.589 299.662 431.801 260 386.306 260 L334.959 260 C289.374 260 261.584 299.786 277.273 342.586 L277.273 342.586 Z " />
<glyph glyph-name="Acircumflex" unicode="&#xc2;" horiz-adv-x="725" d="M374.703 882.637 C394.609 872.109 426 830 426 830 C426 830 422.919 830 456.832 830 L481.5 830 C506.282 830 518.943 854.85 504.374 874.898 L446.401 954.678 C438.184 965.985 410.675 980 396.698 980 L337.302 980 C323.325 980 295.816 965.985 287.599 954.678 L229.626 874.898 C215.057 854.85 227.718 830 252.5 830 L283.804 830 C292.911 830 319.037 840.289 325.699 846.499 L360.417 878.863 C366.619 884.645 367.208 886.601 374.703 882.637 L374.703 882.637 Z M697 50 L452.844 709.88 C445.16 730.649 417.367 750 395.222 750 L314.585 750 C302.442 750 286.876 739.327 282.5 728 L274 706 C273 703 40 86 17 25 C11 10 8 0 8 0 C8 0 11.0763 0 13.2202 0 L149.192 0 C151.143 0 152.316 -1.62567 153.073 0.172051 C153.554 1.31405 156.364 8.09091 160 19 L196.165 116.858 C203.846 137.641 231.638 157 253.795 157 L469.83 157 C492.248 157 520.034 137.477 527.633 116.386 L562 21 C566 8 569 0 569 0 C569 0 569.869 0 573.272 0 L714 0 C713 2 697 50 696 50 L697 50 Z M277.273 342.586 L304.059 415.661 C324.303 470.889 397.412 470.785 417.5 415.5 L444.053 342.422 C459.589 299.662 431.801 260 386.306 260 L334.959 260 C289.374 260 261.584 299.786 277.273 342.586 L277.273 342.586 Z " />
<glyph glyph-name="Atilde" unicode="&#xc3;" horiz-adv-x="725" d="M287.839 850.651 C290.206 877.907 297.459 895 308 895 C342 895 379 821 435 821 C432 821 426 915 426 915 C426 915 430.449 868.529 430.489 868.119 L432.093 851.361 C434.356 827.723 443.034 817.867 465.075 826.703 C499.757 840.606 524.436 879.109 533.346 933.15 C538.043 961.644 520.879 980 492 980 L466.5 980 C456.668 980 447.012 969.144 446.161 959.349 C444.189 936.635 438.823 920.98 430.989 916.392 C425.454 913.151 430.333 910.53 425.868 915.136 C422.459 918.654 353.6 989 299 989 C300.68 989 302.36 972.771 304.04 953.946 C304.041 953.934 304.022 954.49 304.021 954.502 L303 966.5 C301.575 983.239 295.289 991.566 279.104 987.064 C238.741 975.838 210.272 933.14 201.697 871.546 C197.88 844.134 215.325 830.814 243 830.5 L267.501 830.222 C277.342 830.11 286.987 840.847 287.839 850.651 L287.839 850.651 Z M699 51 L454.844 710.88 C447.16 731.649 419.367 751 397.222 751 L316.585 751 C304.442 751 288.876 740.327 284.5 729 L276 707 C275 704 42 87 19 26 C13 11 10 1 10 1 C10 1 13.0763 1 15.2202 1 L151.192 1 C153.143 1 154.316 -0.625674 155.073 1.17205 C155.554 2.31405 158.364 9.09091 162 20 L198.165 117.858 C205.846 138.641 233.638 158 255.795 158 L471.83 158 C494.248 158 522.034 138.477 529.633 117.386 L564 22 C568 9 571 1 571 1 C571 1 571.869 1 575.272 1 L716 1 C715 3 699 51 698 51 L699 51 Z M279.273 343.586 L306.059 416.661 C326.303 471.889 399.412 471.785 419.5 416.5 L446.053 343.422 C461.589 300.662 433.801 261 388.306 261 L336.959 261 C291.374 261 263.584 300.786 279.273 343.586 L279.273 343.586 Z " />
<glyph glyph-name="Adieresis" unicode="&#xc4;" horiz-adv-x="725" d="M444.44 830 L452.56 830 C486.473 830 514 857.527 514 891.44 L514 900.56 C514 934.473 486.473 962 452.56 962 L444.44 962 C410.527 962 383 934.473 383 900.56 L383 891.44 C383 857.527 410.527 830 444.44 830 L444.44 830 Z M281.44 830 L289.56 830 C323.473 830 351 857.527 351 891.44 L351 900.56 C351 934.473 323.473 962 289.56 962 L281.44 962 C247.527 962 220 934.473 220 900.56 L220 891.44 C220 857.527 247.527 830 281.44 830 L281.44 830 Z M697 50 L452.844 709.88 C445.16 730.649 417.367 750 395.222 750 L314.585 750 C302.442 750 286.876 739.327 282.5 728 L274 706 C273 703 40 86 17 25 C11 10 8 0 8 0 C8 0 11.0763 0 13.2202 0 L149.192 0 C151.143 0 152.316 -1.62567 153.073 0.172051 C153.554 1.31405 156.364 8.09091 160 19 L196.165 116.858 C203.846 137.641 231.638 157 253.795 157 L469.83 157 C492.248 157 520.034 137.477 527.633 116.386 L562 21 C566 8 569 0 569 0 C569 0 569.869 0 573.272 0 L714 0 C713 2 697 50 696 50 L697 50 Z M277.273 342.586 L304.059 415.661 C324.303 470.889 397.412 470.785 417.5 415.5 L444.053 342.422 C459.589 299.662 431.801 260 386.306 260 L334.959 260 C289.374 260 261.584 299.786 277.273 342.586 L277.273 342.586 Z " />
<glyph glyph-name="Aring" unicode="&#xc5;" horiz-adv-x="725" d="M341 915 C341 933 351 943 367 943 C383 943 393 933 393 915 C393 896 384 886 367 886 C350 886 341 896 341 915 L341 915 Z M281 915 C281 859 310 830 367 830 C424 830 453 859 453 915 C453 968 421 999 367 999 C313 999 281 968 281 915 L281 915 Z M697 50 L452.844 709.88 C445.16 730.649 417.367 750 395.222 750 L314.585 750 C302.442 750 286.876 739.327 282.5 728 L274 706 C273 703 40 86 17 25 C11 10 8 0 8 0 C8 0 11.0763 0 13.2202 0 L149.192 0 C151.143 0 152.316 -1.62567 153.073 0.172051 C153.554 1.31405 156.364 8.09091 160 19 L196.165 116.858 C203.846 137.641 231.638 157 253.795 157 L469.83 157 C492.248 157 520.034 137.477 527.633 116.386 L562 21 C566 8 569 0 569 0 C569 0 569.869 0 573.272 0 L714 0 C713 2 697 50 696 50 L697 50 Z M277.273 342.586 L304.059 415.661 C324.303 470.889 397.412 470.785 417.5 415.5 L444.053 342.422 C459.589 299.662 431.801 260 386.306 260 L334.959 260 C289.374 260 261.584 299.786 277.273 342.586 L277.273 342.586 Z " />
<glyph glyph-name="Ccedilla" unicode="&#xc7;" horiz-adv-x="714" d="M377 -105 C398 -105 412 -123 412 -150 C412 -177 397 -195 374 -195 C352.875 -195 339.012 -184.438 336.165 -167.067 C335.469 -162.824 329.434 -159.061 326.029 -161.686 L302.738 -179.64 C290.762 -188.871 285.284 -194.703 289.397 -209.253 C296.954 -235.984 329.15 -253 377 -253 C439 -253 480 -212 480 -150 C480 -88 443 -46 388 -46 C382.556 -46 377.111 -47.2099 372.137 -49.6296 C371.059 -50.1543 368.696 -49.6967 369.043 -48.5487 L374.5 -30.5 C377.752 -19.7446 391.221 -9.45235 402.457 -9.35763 C516.089 -8.39963 616.153 37.9664 669.881 108.748 C689.392 134.453 684.259 160.005 659.53 180.738 L629.613 205.819 C614.5 218.49 584.757 210.571 573.272 194.539 C531.878 136.754 465.3 100 396 100 C276 100 196 226 196 374 C196 522 276 648 396 648 C457.05 648 522.184 611.246 568.941 553.461 C582.599 536.582 614.72 529.694 631.359 543.644 L655.477 563.865 C681.668 585.823 687.905 612.299 665.743 638.318 C603.187 711.76 501.4 758 396 758 C189 758 51 581 51 374 C51 204.8 143.34 55.85 290.112 7.34 C312.176 0.0475777 333.57 -30.2101 327 -52.5 L316.062 -89.6108 C315.012 -93.1751 311.745 -96.5954 313.03 -100.082 C313.509 -101.383 319.958 -117.711 342.912 -120.973 C345.158 -121.292 350.505 -118.152 351.83 -116.31 C356.756 -109.461 365.313 -105.5 377.5 -105.5 L377 -105 Z " />
<glyph glyph-name="Egrave" unicode="&#xc8;" horiz-adv-x="645" d="M310.25 830 L332.5 830 C361.444 830 379.302 855.091 369.821 882.438 L350.323 938.684 C342.853 960.231 315.077 980 292.272 980 L257.5 980 C221.226 980 202.095 944.65 221.935 914.282 L258.814 857.835 C267.218 844.973 294.885 830 310.25 830 L310.25 830 Z M540 110 L281.44 110 C247.527 110 220 137.527 220 171.44 L220 272.56 C220 306.473 247.527 334 281.44 334 L507 334 C536.254 334 560 357.746 560 387 C560 416.254 536.254 440 507 440 L281.44 440 C247.527 440 220 467.527 220 501.44 L220 578.56 C220 612.473 247.527 640 281.44 640 L525 640 C555.358 640 580 664.642 580 695 C580 725.358 555.358 750 525 750 L146.44 750 C112.527 750 85 722.473 85 688.56 L85 61.44 C85 27.527 112.527 0 146.44 0 L540 0 C570.358 0 595 24.6416 595 55 C595 85.3584 570.358 110 540 110 L540 110 Z " />
<glyph glyph-name="Eacute" unicode="&#xc9;" horiz-adv-x="645" d="M332.5 830 L354.75 830 C370.115 830 397.782 844.973 406.186 857.835 L443.065 914.282 C462.905 944.65 443.774 980 407.5 980 L372.728 980 C349.923 980 322.147 960.231 314.677 938.684 L295.179 882.438 C285.698 855.091 303.556 830 332.5 830 L332.5 830 Z M540 110 L281.44 110 C247.527 110 220 137.527 220 171.44 L220 272.56 C220 306.473 247.527 334 281.44 334 L507 334 C536.254 334 560 357.746 560 387 C560 416.254 536.254 440 507 440 L281.44 440 C247.527 440 220 467.527 220 501.44 L220 578.56 C220 612.473 247.527 640 281.44 640 L525 640 C555.358 640 580 664.642 580 695 C580 725.358 555.358 750 525 750 L146.44 750 C112.527 750 85 722.473 85 688.56 L85 61.44 C85 27.527 112.527 0 146.44 0 L540 0 C570.358 0 595 24.6416 595 55 C595 85.3584 570.358 110 540 110 L540 110 Z " />
<glyph glyph-name="Ecircumflex" unicode="&#xca;" horiz-adv-x="645" d="M340.703 882.637 C360.609 872.109 392 830 392 830 C392 830 388.919 830 422.832 830 L447.5 830 C472.282 830 484.943 854.85 470.374 874.898 L412.401 954.678 C404.184 965.985 376.675 980 362.698 980 L302.472 980 C288.374 980 260.848 965.9 252.611 954.46 L195.137 874.634 C180.741 854.641 193.363 830 218 830 L249.101 830 C258.015 830 284.046 840.126 290.617 846.149 L326.366 878.918 C332.619 884.651 333.204 886.603 340.703 882.637 L340.703 882.637 Z M540 110 L281.44 110 C247.527 110 220 137.527 220 171.44 L220 272.56 C220 306.473 247.527 334 281.44 334 L507 334 C536.254 334 560 357.746 560 387 C560 416.254 536.254 440 507 440 L281.44 440 C247.527 440 220 467.527 220 501.44 L220 578.56 C220 612.473 247.527 640 281.44 640 L525 640 C555.358 640 580 664.642 580 695 C580 725.358 555.358 750 525 750 L146.44 750 C112.527 750 85 722.473 85 688.56 L85 61.44 C85 27.527 112.527 0 146.44 0 L540 0 C570.358 0 595 24.6416 595 55 C595 85.3584 570.358 110 540 110 L540 110 Z " />
<glyph glyph-name="Edieresis" unicode="&#xcb;" horiz-adv-x="645" d="M409.44 830 L418.56 830 C452.473 830 480 857.527 480 891.44 L480 900.56 C480 934.473 452.473 962 418.56 962 L409.44 962 C375.527 962 348 934.473 348 900.56 L348 891.44 C348 857.527 375.527 830 409.44 830 L409.44 830 Z M246.44 830 L255.56 830 C289.473 830 317 857.527 317 891.44 L317 900.56 C317 934.473 289.473 962 255.56 962 L246.44 962 C212.527 962 185 934.473 185 900.56 L185 891.44 C185 857.527 212.527 830 246.44 830 L246.44 830 Z M540 110 L281.44 110 C247.527 110 220 137.527 220 171.44 L220 272.56 C220 306.473 247.527 334 281.44 334 L507 334 C536.254 334 560 357.746 560 387 C560 416.254 536.254 440 507 440 L281.44 440 C247.527 440 220 467.527 220 501.44 L220 578.56 C220 612.473 247.527 640 281.44 640 L525 640 C555.358 640 580 664.642 580 695 C580 725.358 555.358 750 525 750 L146.44 750 C112.527 750 85 722.473 85 688.56 L85 61.44 C85 27.527 112.527 0 146.44 0 L540 0 C570.358 0 595 24.6416 595 55 C595 85.3584 570.358 110 540 110 L540 110 Z " />
<glyph glyph-name="Igrave" unicode="&#xcc;" horiz-adv-x="308" d="M134.065 830 L156 830 C184.742 830 202.548 854.86 193.295 882.073 L174.165 938.338 C166.763 960.11 138.992 980 115.995 980 L81 980 C44.6063 980 25.4694 944.44 45.5165 914.066 L82.7865 857.596 C91.1771 844.883 118.833 830 134.065 830 L134.065 830 Z M223 61.44 L223 688.56 C223 722.473 195.473 750 161.56 750 L149.44 750 C115.527 750 88 722.473 88 688.56 L88 61.44 C88 27.527 115.527 0 149.44 0 L161.56 0 C195.473 0 223 27.527 223 61.44 L223 61.44 Z " />
<glyph glyph-name="Iacute" unicode="&#xcd;" horiz-adv-x="308" d="M156 830 L177.935 830 C193.167 830 220.823 844.883 229.214 857.596 L266.483 914.066 C286.531 944.44 267.394 980 231 980 L196.005 980 C173.008 980 145.237 960.11 137.835 938.338 L118.705 882.073 C109.452 854.86 127.258 830 156 830 L156 830 Z M223 61.44 L223 688.56 C223 722.473 195.473 750 161.56 750 L149.44 750 C115.527 750 88 722.473 88 688.56 L88 61.44 C88 27.527 115.527 0 149.44 0 L161.56 0 C195.473 0 223 27.527 223 61.44 L223 61.44 Z " />
<glyph glyph-name="Icircumflex" unicode="&#xce;" horiz-adv-x="308" d="M163.703 882.637 C183.609 872.109 215 830 215 830 C215 830 211.919 830 245.832 830 L270.5 830 C295.282 830 307.943 854.85 293.374 874.898 L235.401 954.678 C227.184 965.985 199.675 980 185.698 980 L126.302 980 C112.325 980 84.8156 965.985 76.599 954.678 L18.6257 874.898 C4.05747 854.85 16.7178 830 41.5 830 L72.8041 830 C81.9108 830 108.037 840.289 114.699 846.499 L149.417 878.863 C155.619 884.645 156.208 886.601 163.703 882.637 L163.703 882.637 Z M223 61.44 L223 688.56 C223 722.473 195.473 750 161.56 750 L149.44 750 C115.527 750 88 722.473 88 688.56 L88 61.44 C88 27.527 115.527 0 149.44 0 L161.56 0 C195.473 0 223 27.527 223 61.44 L223 61.44 Z " />
<glyph glyph-name="Idieresis" unicode="&#xcf;" horiz-adv-x="308" d="M233.44 830 L241.56 830 C275.473 830 303 857.527 303 891.44 L303 900.56 C303 934.473 275.473 962 241.56 962 L233.44 962 C199.527 962 172 934.473 172 900.56 L172 891.44 C172 857.527 199.527 830 233.44 830 L233.44 830 Z M70.44 830 L78.56 830 C112.473 830 140 857.527 140 891.44 L140 900.56 C140 934.473 112.473 962 78.56 962 L70.44 962 C36.527 962 9 934.473 9 900.56 L9 891.44 C9 857.527 36.527 830 70.44 830 L70.44 830 Z M223 61.44 L223 688.56 C223 722.473 195.473 750 161.56 750 L149.44 750 C115.527 750 88 722.473 88 688.56 L88 61.44 C88 27.527 115.527 0 149.44 0 L161.56 0 C195.473 0 223 27.527 223 61.44 L223 61.44 Z " />
<glyph glyph-name="Ntilde" unicode="&#xd1;" horiz-adv-x="755" d="M298.839 850.651 C301.206 877.907 308.459 895 319 895 C353 895 390 821 446 821 C443 821 437 915 437 915 C437 915 441.449 868.529 441.489 868.119 L443.093 851.361 C445.36 827.69 453.938 817.813 475.994 826.703 C510.488 840.606 534.705 879.109 543.427 933.15 C547.964 961.262 530.976 980 502.5 980 L477.5 980 C467.668 980 458.012 969.144 457.161 959.349 C455.189 936.635 449.823 920.98 441.989 916.392 C436.454 913.151 441.333 910.53 436.868 915.136 C433.459 918.654 364.6 989 310 989 C311.68 989 313.36 972.771 315.04 953.946 C315.041 953.934 315.022 954.49 315.021 954.502 L314 966.5 C312.575 983.239 306.289 991.566 290.104 987.064 C249.741 975.838 221.272 933.14 212.697 871.546 C208.88 844.134 226.325 830.814 254 830.5 L278.501 830.222 C288.342 830.11 297.987 840.847 298.839 850.651 L298.839 850.651 Z M421.232 402.187 L254.295 718.254 C245.854 734.237 218.042 751 199.967 751 L148.44 751 C114.527 751 87 723.473 87 689.56 L87 62.44 C87 28.527 114.527 1 148.44 1 L160.56 1 C194.473 1 222 28.527 222 62.44 L222 248 C222 311.689 307.633 332.92 337.385 276.608 L465.703 33.7385 C474.145 17.7608 501.956 1 520.027 1 L610.56 1 C644.473 1 672 28.527 672 62.44 L672 689.56 C672 723.473 644.473 751 610.56 751 L598.44 751 C564.527 751 537 723.473 537 689.56 L537 430.881 C537 366.981 451.076 345.684 421.232 402.187 L421.232 402.187 Z " />
<glyph glyph-name="Ograve" unicode="&#xd2;" horiz-adv-x="814" d="M385.065 830 L407 830 C435.742 830 453.548 854.86 444.295 882.073 L425.165 938.338 C417.763 960.11 389.992 980 366.995 980 L332 980 C295.606 980 276.469 944.44 296.517 914.066 L333.786 857.596 C342.177 844.883 369.833 830 385.065 830 L385.065 830 Z M200 375 C200 531 289 649 407 649 C525 649 614 531 614 375 C614 211 531 101 407 101 C283 101 200 211 200 375 L200 375 Z M55 375 C55 145 196 -9 407 -9 C618 -9 759 145 759 375 C759 594 608 759 407 759 C206 759 55 594 55 375 L55 375 Z " />
<glyph glyph-name="Oacute" unicode="&#xd3;" horiz-adv-x="814" d="M407 830 L428.935 830 C444.167 830 471.823 844.883 480.214 857.596 L517.483 914.066 C537.531 944.44 518.394 980 482 980 L447.005 980 C424.008 980 396.237 960.11 388.835 938.338 L369.705 882.073 C360.452 854.86 378.258 830 407 830 L407 830 Z M200 375 C200 531 289 649 407 649 C525 649 614 531 614 375 C614 211 531 101 407 101 C283 101 200 211 200 375 L200 375 Z M55 375 C55 145 196 -9 407 -9 C618 -9 759 145 759 375 C759 594 608 759 407 759 C206 759 55 594 55 375 L55 375 Z " />
<glyph glyph-name="Ocircumflex" unicode="&#xd4;" horiz-adv-x="814" d="M414.703 882.637 C434.609 872.109 466 830 466 830 C466 830 462.919 830 496.832 830 L521.5 830 C546.282 830 558.943 854.85 544.374 874.898 L486.401 954.678 C478.184 965.985 450.675 980 436.698 980 L377.302 980 C363.325 980 335.816 965.985 327.599 954.678 L269.626 874.898 C255.057 854.85 267.718 830 292.5 830 L323.804 830 C332.911 830 359.037 840.289 365.699 846.499 L400.417 878.863 C406.619 884.645 407.208 886.601 414.703 882.637 L414.703 882.637 Z M200 375 C200 531 289 649 407 649 C525 649 614 531 614 375 C614 211 531 101 407 101 C283 101 200 211 200 375 L200 375 Z M55 375 C55 145 196 -9 407 -9 C618 -9 759 145 759 375 C759 594 608 759 407 759 C206 759 55 594 55 375 L55 375 Z " />
<glyph glyph-name="Otilde" unicode="&#xd5;" horiz-adv-x="814" d="M327.839 850.651 C330.206 877.907 337.459 895 348 895 C382 895 419 821 475 821 C472 821 466 915 466 915 C466 915 470.449 868.529 470.489 868.119 L472.093 851.361 C474.356 827.723 483.034 817.867 505.075 826.703 C539.757 840.606 564.436 879.109 573.346 933.15 C578.043 961.644 560.879 980 532 980 L506.5 980 C496.668 980 487.012 969.144 486.161 959.349 C484.189 936.635 478.823 920.98 470.989 916.392 C465.454 913.151 470.333 910.53 465.868 915.136 C462.459 918.654 393.6 989 339 989 C340.68 989 342.36 972.771 344.04 953.946 C344.041 953.934 344.022 954.49 344.021 954.502 L343 966.5 C341.575 983.239 335.289 991.566 319.104 987.064 C278.741 975.838 250.272 933.14 241.697 871.546 C237.88 844.134 255.325 830.814 283 830.5 L307.501 830.222 C317.342 830.11 326.987 840.847 327.839 850.651 L327.839 850.651 Z M202 376 C202 532 291 650 409 650 C527 650 616 532 616 376 C616 212 533 102 409 102 C285 102 202 212 202 376 L202 376 Z M57 376 C57 146 198 -8 409 -8 C620 -8 761 146 761 376 C761 595 610 760 409 760 C208 760 57 595 57 376 L57 376 Z " />
<glyph glyph-name="Odieresis" unicode="&#xd6;" horiz-adv-x="814" d="M484.44 830 L492.56 830 C526.473 830 554 857.527 554 891.44 L554 900.56 C554 934.473 526.473 962 492.56 962 L484.44 962 C450.527 962 423 934.473 423 900.56 L423 891.44 C423 857.527 450.527 830 484.44 830 L484.44 830 Z M321.44 830 L329.56 830 C363.473 830 391 857.527 391 891.44 L391 900.56 C391 934.473 363.473 962 329.56 962 L321.44 962 C287.527 962 260 934.473 260 900.56 L260 891.44 C260 857.527 287.527 830 321.44 830 L321.44 830 Z M200 375 C200 531 289 649 407 649 C525 649 614 531 614 375 C614 211 531 101 407 101 C283 101 200 211 200 375 L200 375 Z M55 375 C55 145 196 -9 407 -9 C618 -9 759 145 759 375 C759 594 608 759 407 759 C206 759 55 594 55 375 L55 375 Z " />
<glyph glyph-name="Oslash" unicode="&#xd8;" horiz-adv-x="814" d="M55 375 C55 282.6 77.4606 202.451 117.89 139.607 C128.772 122.692 130.643 83.3042 117.876 67.7616 L77.8027 18.9772 C67.6503 6.61781 75.5054 -10 91.5 -10 L99.9133 -10 C112.331 -10 139.565 2.89274 147.436 12.4979 L164.54 33.3708 C175.892 47.2243 204.618 49.0634 219.899 39.7197 C272.267 7.69625 335.05 -10 406 -10 C617 -10 758 144 758 374 C758 461.45 733.497 540.732 691.231 603.986 C679.638 621.335 677.509 660.938 690.729 677.08 L733.24 728.988 C743.386 741.377 735.514 758 719.5 758 L711.169 758 C698.693 758 671.448 745.065 663.561 735.398 L644.04 711.468 C632.31 697.09 603.338 695.357 587.684 705.32 C534.855 738.943 472.65 758 405 758 C204 758 54 593.5 54 374.5 L55 375 Z M522.955 564.18 L248.725 229.208 C240.236 218.839 226.876 221.754 221.86 234.181 C205.848 273.845 197 321.2 197 374 C197 530 286 648 404 648 C447.725 648 487.366 632.346 520.116 604.406 C533.01 593.406 533.692 577.294 522.955 564.18 L522.955 564.18 Z M585.66 510.478 C602.471 470.566 612 424.325 612 374 C612 210 529 100 405 100 C359.625 100 319.695 114.974 287.456 142.114 C274.727 152.829 274.055 168.401 284.592 181.279 L557.852 515.264 C566.569 525.918 580.316 523.163 585.66 510.478 L585.66 510.478 Z " />
<glyph glyph-name="Ugrave" unicode="&#xd9;" horiz-adv-x="738" d="M346.065 821 L368 821 C396.742 821 414.548 845.86 405.295 873.073 L386.165 929.338 C378.763 951.11 350.992 971 327.995 971 L293 971 C256.606 971 237.469 935.44 257.517 905.066 L294.786 848.596 C303.177 835.883 330.833 821 346.065 821 L346.065 821 Z M78 289 C78 92 177 -9 368 -9 C559 -9 658 92 658 289 L658 688.56 C658 722.473 630.473 750 596.56 750 L584.44 750 C550.527 750 523 722.473 523 688.56 L523 313 C523 183 470 116 368 116 C266 116 213 183 213 313 L213 688.56 C213 722.473 185.473 750 151.56 750 L139.44 750 C105.527 750 78 722.473 78 688.56 L78 289 L78 289 Z " />
<glyph glyph-name="Uacute" unicode="&#xda;" horiz-adv-x="738" d="M368 821 L389.935 821 C405.167 821 432.823 835.883 441.214 848.596 L478.483 905.066 C498.531 935.44 479.394 971 443 971 L408.005 971 C385.008 971 357.237 951.11 349.835 929.338 L330.705 873.073 C321.452 845.86 339.258 821 368 821 L368 821 Z M78 289 C78 92 177 -9 368 -9 C559 -9 658 92 658 289 L658 688.56 C658 722.473 630.473 750 596.56 750 L584.44 750 C550.527 750 523 722.473 523 688.56 L523 313 C523 183 470 116 368 116 C266 116 213 183 213 313 L213 688.56 C213 722.473 185.473 750 151.56 750 L139.44 750 C105.527 750 78 722.473 78 688.56 L78 289 L78 289 Z " />
<glyph glyph-name="Ucircumflex" unicode="&#xdb;" horiz-adv-x="738" d="M375.703 873.637 C395.609 863.109 427 821 427 821 C427 821 423.919 821 457.832 821 L482.5 821 C507.282 821 519.943 845.85 505.374 865.898 L447.401 945.678 C439.184 956.985 411.675 971 397.698 971 L338.302 971 C324.325 971 296.816 956.985 288.599 945.678 L230.626 865.898 C216.057 845.85 228.718 821 253.5 821 L284.804 821 C293.911 821 320.037 831.289 326.699 837.499 L361.417 869.863 C367.619 875.645 368.208 877.601 375.703 873.637 L375.703 873.637 Z M78 289 C78 92 177 -9 368 -9 C559 -9 658 92 658 289 L658 688.56 C658 722.473 630.473 750 596.56 750 L584.44 750 C550.527 750 523 722.473 523 688.56 L523 313 C523 183 470 116 368 116 C266 116 213 183 213 313 L213 688.56 C213 722.473 185.473 750 151.56 750 L139.44 750 C105.527 750 78 722.473 78 688.56 L78 289 L78 289 Z " />
<glyph glyph-name="Udieresis" unicode="&#xdc;" horiz-adv-x="738" d="M445.44 821 L453.56 821 C487.473 821 515 848.527 515 882.44 L515 891.56 C515 925.473 487.473 953 453.56 953 L445.44 953 C411.527 953 384 925.473 384 891.56 L384 882.44 C384 848.527 411.527 821 445.44 821 L445.44 821 Z M282.44 821 L290.56 821 C324.473 821 352 848.527 352 882.44 L352 891.56 C352 925.473 324.473 953 290.56 953 L282.44 953 C248.527 953 221 925.473 221 891.56 L221 882.44 C221 848.527 248.527 821 282.44 821 L282.44 821 Z M78 289 C78 92 177 -9 368 -9 C559 -9 658 92 658 289 L658 688.56 C658 722.473 630.473 750 596.56 750 L584.44 750 C550.527 750 523 722.473 523 688.56 L523 313 C523 183 470 116 368 116 C266 116 213 183 213 313 L213 688.56 C213 722.473 185.473 750 151.56 750 L139.44 750 C105.527 750 78 722.473 78 688.56 L78 289 L78 289 Z " />
<glyph glyph-name="Yacute" unicode="&#xdd;" horiz-adv-x="629" d="M317 830 L338.935 830 C354.167 830 381.823 844.883 390.214 857.596 L427.483 914.066 C447.531 944.44 428.394 980 392 980 L357.005 980 C334.008 980 306.237 960.11 298.835 938.338 L279.705 882.073 C270.452 854.86 288.258 830 317 830 L317 830 Z M310.44 0 L323.56 0 C357.473 0 385 27.527 385 61.44 L385 314.035 C385 318.325 390.684 340.198 392.772 343.946 L594 705 L603 722 L611 736.5 C614.866 743.508 610.443 751 602.44 751 L502.358 751 C493.523 751 488.262 758.581 483.933 750.88 C482.732 748.745 465.857 718.714 462 711 L370.899 544.505 C345.843 498.714 288.157 498.714 263.101 544.505 L172 711 C168 719 150 751 150 751 C150 751 148.968 751 131.642 751 L31.5605 751 C23.5569 751 19.1337 743.508 23 736.5 L31 722 L40 705 L241.228 343.946 C243.316 340.198 249 318.325 249 314.035 L249 61.44 C249 27.527 276.527 0 310.44 0 L310.44 0 Z " />
<glyph glyph-name="Thorn" unicode="&#xde;" horiz-adv-x="624" d="M220 61.44 L220 100.5 C220 127.823 242.177 150 269.5 150 L319 150 C497 150 589 227 589 375 C589 524 497 600 319 600 L269.5 600 C242.177 600 220 622.177 220 649.5 L220 688.56 C220 722.473 192.473 750 158.56 750 L146.44 750 C112.527 750 85 722.473 85 688.56 L85 61.44 C85 27.527 112.527 0 146.44 0 L158.56 0 C192.473 0 220 27.527 220 61.44 L220 61.44 Z M220 307 L220 448 C220 473.943 241.057 495 267 495 L314 495 C406 495 454 454 454 375 C454 296 410 255 324 255 L272 255 C243.298 255 220 278.298 220 307 L220 307 Z " />
<glyph glyph-name="agrave" unicode="&#xe0;" horiz-adv-x="550" d="M242.065 600 L264 600 C292.742 600 310.548 624.86 301.295 652.073 L282.165 708.338 C274.763 730.11 246.992 750 223.995 750 L189 750 C152.606 750 133.469 714.44 153.517 684.066 L190.786 627.596 C199.177 614.883 226.833 600 242.065 600 L242.065 600 Z M94.5119 377.537 L142.039 362.122 C151.536 359.042 168.607 368.101 173.632 376.728 C192.184 408.581 226.05 429 264 429 C318 429 354 417 354 385 C354 331 288 305 190 289 C99 274 39 216 39 145 C39 53 84 -9 199 -9 C257.65 -9 306.185 3.2825 339.692 37.0594 C345.174 42.5854 359.299 40.0858 362.688 33.0784 C375.424 6.74437 405.432 1.28437 476.723 0.234375 C501.924 -0.136807 519 19.7956 519 45 L519 68.5 C519 79.708 507.655 89.75 496.464 90.3727 C475.229 91.5544 474 96.4054 474 116 L474 334 C474 474 390 529 263 529 C180.5 529 109.23 491.566 71.6516 431.858 C55.6838 406.487 65.9967 386.785 94.5119 377.537 L94.5119 377.537 Z M353 227.423 L353 183 C346 99 300 75 235 75 C180 75 159 105 159 149 C159 177 200 202 261 212 C290.7 216.95 316.997 223.942 339.329 234.66 C345.213 237.484 353 233.95 353 227.423 L353 227.423 Z " />
<glyph glyph-name="aacute" unicode="&#xe1;" horiz-adv-x="550" d="M264 600 L285.935 600 C301.167 600 328.823 614.883 337.214 627.596 L374.483 684.066 C394.531 714.44 375.394 750 339 750 L304.005 750 C281.008 750 253.237 730.11 245.835 708.338 L226.705 652.073 C217.452 624.86 235.258 600 264 600 L264 600 Z M94.5119 377.537 L142.039 362.122 C151.536 359.042 168.607 368.101 173.632 376.728 C192.184 408.581 226.05 429 264 429 C318 429 354 417 354 385 C354 331 288 305 190 289 C99 274 39 216 39 145 C39 53 84 -9 199 -9 C257.65 -9 306.185 3.2825 339.692 37.0594 C345.174 42.5854 359.299 40.0858 362.688 33.0784 C375.424 6.74437 405.432 1.28437 476.723 0.234375 C501.924 -0.136807 519 19.7956 519 45 L519 68.5 C519 79.708 507.655 89.75 496.464 90.3727 C475.229 91.5544 474 96.4054 474 116 L474 334 C474 474 390 529 263 529 C180.5 529 109.23 491.566 71.6516 431.858 C55.6838 406.487 65.9967 386.785 94.5119 377.537 L94.5119 377.537 Z M353 227.423 L353 183 C346 99 300 75 235 75 C180 75 159 105 159 149 C159 177 200 202 261 212 C290.7 216.95 316.997 223.942 339.329 234.66 C345.213 237.484 353 233.95 353 227.423 L353 227.423 Z " />
<glyph glyph-name="acircumflex" unicode="&#xe2;" horiz-adv-x="550" d="M271.703 652.637 C291.609 642.109 323 600 323 600 C323 600 319.919 600 353.832 600 L378.5 600 C403.282 600 415.943 624.85 401.374 644.898 L343.401 724.678 C335.184 735.985 307.675 750 293.698 750 L234.302 750 C220.325 750 192.816 735.985 184.599 724.678 L126.626 644.898 C112.057 624.85 124.718 600 149.5 600 L180.804 600 C189.911 600 216.037 610.289 222.699 616.499 L257.417 648.863 C263.619 654.645 264.208 656.601 271.703 652.637 L271.703 652.637 Z M94.5119 377.537 L142.039 362.122 C151.536 359.042 168.607 368.101 173.632 376.728 C192.184 408.581 226.05 429 264 429 C318 429 354 417 354 385 C354 331 288 305 190 289 C99 274 39 216 39 145 C39 53 84 -9 199 -9 C257.65 -9 306.185 3.2825 339.692 37.0594 C345.174 42.5854 359.299 40.0858 362.688 33.0784 C375.424 6.74437 405.432 1.28437 476.723 0.234375 C501.924 -0.136807 519 19.7956 519 45 L519 68.5 C519 79.708 507.655 89.75 496.464 90.3727 C475.229 91.5544 474 96.4054 474 116 L474 334 C474 474 390 529 263 529 C180.5 529 109.23 491.566 71.6516 431.858 C55.6838 406.487 65.9967 386.785 94.5119 377.537 L94.5119 377.537 Z M353 227.423 L353 183 C346 99 300 75 235 75 C180 75 159 105 159 149 C159 177 200 202 261 212 C290.7 216.95 316.997 223.942 339.329 234.66 C345.213 237.484 353 233.95 353 227.423 L353 227.423 Z " />
<glyph glyph-name="atilde" unicode="&#xe3;" horiz-adv-x="550" d="M184.839 620.651 C187.206 647.907 194.459 665 205 665 C239 665 276 591 332 591 C329 591 323 685 323 685 C323 685 327.449 638.529 327.489 638.119 L329.093 621.361 C331.356 597.723 340.034 587.867 362.075 596.703 C396.757 610.606 421.436 649.109 430.346 703.15 C435.043 731.644 417.879 750 389 750 L363.5 750 C353.668 750 344.012 739.144 343.161 729.349 C341.189 706.635 335.823 690.98 327.989 686.392 C322.454 683.151 327.333 680.53 322.868 685.136 C319.459 688.654 250.6 759 196 759 C197.68 759 199.36 742.771 201.04 723.946 C201.041 723.934 201.022 724.49 201.021 724.502 L200 736.5 C198.575 753.239 192.289 761.566 176.104 757.064 C135.741 745.838 107.272 703.14 98.6966 641.546 C94.8804 614.134 112.325 600.814 140 600.5 L164.501 600.222 C174.342 600.11 183.987 610.847 184.839 620.651 L184.839 620.651 Z M96.5119 378.537 L144.039 363.122 C153.536 360.042 170.607 369.101 175.632 377.728 C194.184 409.581 228.05 430 266 430 C320 430 356 418 356 386 C356 332 290 306 192 290 C101 275 41 217 41 146 C41 54 86 -8 201 -8 C259.65 -8 308.185 4.2825 341.692 38.0594 C347.174 43.5854 361.299 41.0858 364.688 34.0784 C377.424 7.74437 407.432 2.28437 478.723 1.23438 C503.924 0.863193 521 20.7956 521 46 L521 69.5 C521 80.708 509.655 90.75 498.464 91.3727 C477.229 92.5544 476 97.4054 476 117 L476 335 C476 475 392 530 265 530 C182.5 530 111.23 492.566 73.6516 432.858 C57.6838 407.487 67.9967 387.785 96.5119 378.537 L96.5119 378.537 Z M355 228.423 L355 184 C348 100 302 76 237 76 C182 76 161 106 161 150 C161 178 202 203 263 213 C292.7 217.95 318.997 224.942 341.329 235.66 C347.213 238.484 355 234.95 355 228.423 L355 228.423 Z " />
<glyph glyph-name="adieresis" unicode="&#xe4;" horiz-adv-x="550" d="M373.44 600 L381.56 600 C415.473 600 443 627.527 443 661.44 L443 670.56 C443 704.473 415.473 732 381.56 732 L373.44 732 C339.527 732 312 704.473 312 670.56 L312 661.44 C312 627.527 339.527 600 373.44 600 L373.44 600 Z M146.44 600 L155.56 600 C189.473 600 217 627.527 217 661.44 L217 670.56 C217 704.473 189.473 732 155.56 732 L146.44 732 C112.527 732 85 704.473 85 670.56 L85 661.44 C85 627.527 112.527 600 146.44 600 L146.44 600 Z M94.5119 377.537 L142.039 362.122 C151.536 359.042 168.607 368.101 173.632 376.728 C192.184 408.581 226.05 429 264 429 C318 429 354 417 354 385 C354 331 288 305 190 289 C99 274 39 216 39 145 C39 53 84 -9 199 -9 C257.65 -9 306.185 3.2825 339.692 37.0594 C345.174 42.5854 359.299 40.0858 362.688 33.0784 C375.424 6.74437 405.432 1.28437 476.723 0.234375 C501.924 -0.136807 519 19.7956 519 45 L519 68.5 C519 79.708 507.655 89.75 496.464 90.3727 C475.229 91.5544 474 96.4054 474 116 L474 334 C474 474 390 529 263 529 C180.5 529 109.23 491.566 71.6516 431.858 C55.6838 406.487 65.9967 386.785 94.5119 377.537 L94.5119 377.537 Z M353 227.423 L353 183 C346 99 300 75 235 75 C180 75 159 105 159 149 C159 177 200 202 261 212 C290.7 216.95 316.997 223.942 339.329 234.66 C345.213 237.484 353 233.95 353 227.423 L353 227.423 Z " />
<glyph glyph-name="aring" unicode="&#xe5;" horiz-adv-x="550" d="M238 685 C238 703 248 713 264 713 C280 713 290 703 290 685 C290 666 281 656 264 656 C247 656 238 666 238 685 L238 685 Z M178 685 C178 629 207 600 264 600 C321 600 350 629 350 685 C350 738 318 769 264 769 C210 769 178 738 178 685 L178 685 Z M94.5119 377.537 L142.039 362.122 C151.536 359.042 168.607 368.101 173.632 376.728 C192.184 408.581 226.05 429 264 429 C318 429 354 417 354 385 C354 331 288 305 190 289 C99 274 39 216 39 145 C39 53 84 -9 199 -9 C257.65 -9 306.185 3.2825 339.692 37.0594 C345.174 42.5854 359.299 40.0858 362.688 33.0784 C375.424 6.74437 405.432 1.28437 476.723 0.234375 C501.924 -0.136807 519 19.7956 519 45 L519 68.5 C519 79.708 507.655 89.75 496.464 90.3727 C475.229 91.5544 474 96.4054 474 116 L474 334 C474 474 390 529 263 529 C180.5 529 109.23 491.566 71.6516 431.858 C55.6838 406.487 65.9967 386.785 94.5119 377.537 L94.5119 377.537 Z M353 227.423 L353 183 C346 99 300 75 235 75 C180 75 159 105 159 149 C159 177 200 202 261 212 C290.7 216.95 316.997 223.942 339.329 234.66 C345.213 237.484 353 233.95 353 227.423 L353 227.423 Z " />
<glyph glyph-name="ccedilla" unicode="&#xe7;" horiz-adv-x="553" d="M291 -105 C312 -105 326 -123 326 -150 C326 -177 311 -195 288 -195 C266.875 -195 252.352 -184.438 249.257 -167.067 C248.509 -162.869 242.406 -159.083 239.029 -161.686 L215.738 -179.64 C203.616 -188.983 198.194 -194.56 202.479 -209.253 C210.274 -235.984 243.15 -253 291 -253 C353 -253 394 -212 394 -150 C394 -88 357 -46 302 -46 C296.556 -46 291.111 -47.2099 286.137 -49.6296 C285.059 -50.1543 282.696 -49.6967 283.043 -48.5487 L288.5 -30.5 C291.607 -20.222 308.268 -8.91591 318.978 -8.14866 C397.772 -2.50397 464.626 30.9001 501.401 82.7823 C518.949 107.539 511.026 127.336 483.736 140.605 L436.896 163.381 C426.303 168.532 407.259 160.304 401.014 150.316 C378.397 114.141 338.9 91 296 91 C226 91 179 143 179 260 C179 380 226 434 296 434 C342.55 434 380.075 396.095 410.29 338.29 C412.798 333.492 418.463 330.734 423.308 333.15 C438.538 340.746 453.769 348.231 469 355 L495.5 368 C511.339 375.77 517.249 391.372 508.22 406.528 C464.21 480.4 395.9 529 296 529 C147 529 47 446 47 260 C47 113.875 109.016 31.2969 207.59 2.88672 C229.731 -3.49448 244.578 -30.9169 238 -53 L227.274 -89.0072 C226.115 -92.8995 222.532 -96.3057 224.031 -100.08 C224.556 -101.403 231.829 -118.64 255.102 -121.187 C257.29 -121.426 262.415 -118.367 263.714 -116.591 C268.846 -109.569 278.147 -105.5 290.5 -105.5 L291 -105 Z " />
<glyph glyph-name="egrave" unicode="&#xe8;" horiz-adv-x="560" d="M276.065 600 L298 600 C326.742 600 344.548 624.86 335.295 652.073 L316.165 708.338 C308.763 730.11 280.992 750 257.995 750 L223 750 C186.606 750 167.469 714.44 187.517 684.066 L224.786 627.596 C233.177 614.883 260.833 600 276.065 600 L276.065 600 Z M407.175 145.314 C386.432 112.099 341.8 91 289 91 C237.025 91 198.663 124.351 185.704 197.79 C179.623 232.255 201.012 250 236.009 250 L486.56 250 C524.476 250 549.118 272.285 544.643 309.936 C528.797 443.25 455.625 529 299 529 C149 529 49 446 49 260 C49 74 145 -9 290 -9 C394.55 -9 480.315 29.2925 516.589 89.9102 C531.927 115.542 520.286 128.135 492.419 138.891 L439.175 159.441 C430.31 162.863 412.209 153.374 407.175 145.314 L407.175 145.314 Z M385.984 334 L223.928 334 C202.58 334 191.053 346.83 199.551 366.414 C219.429 412.22 254.45 434 299 434 C353.45 434 388.162 408.136 407.628 364.27 C415.433 346.681 405.227 334 385.984 334 L385.984 334 Z " />
<glyph glyph-name="eacute" unicode="&#xe9;" horiz-adv-x="560" d="M298 600 L319.935 600 C335.167 600 362.823 614.883 371.214 627.596 L408.483 684.066 C428.531 714.44 409.394 750 373 750 L338.005 750 C315.008 750 287.237 730.11 279.835 708.338 L260.705 652.073 C251.452 624.86 269.258 600 298 600 L298 600 Z M407.175 145.314 C386.432 112.099 341.8 91 289 91 C237.025 91 198.663 124.351 185.704 197.79 C179.623 232.255 201.012 250 236.009 250 L486.56 250 C524.476 250 549.118 272.285 544.643 309.936 C528.797 443.25 455.625 529 299 529 C149 529 49 446 49 260 C49 74 145 -9 290 -9 C394.55 -9 480.315 29.2925 516.589 89.9102 C531.927 115.542 520.286 128.135 492.419 138.891 L439.175 159.441 C430.31 162.863 412.209 153.374 407.175 145.314 L407.175 145.314 Z M385.984 334 L223.928 334 C202.58 334 191.053 346.83 199.551 366.414 C219.429 412.22 254.45 434 299 434 C353.45 434 388.162 408.136 407.628 364.27 C415.433 346.681 405.227 334 385.984 334 L385.984 334 Z " />
<glyph glyph-name="ecircumflex" unicode="&#xea;" horiz-adv-x="560" d="M305.703 652.637 C325.609 642.109 357 600 357 600 C357 600 353.919 600 387.832 600 L412.5 600 C437.282 600 449.943 624.85 435.374 644.898 L377.401 724.678 C369.184 735.985 341.675 750 327.698 750 L268.302 750 C254.325 750 226.816 735.985 218.599 724.678 L160.626 644.898 C146.057 624.85 158.718 600 183.5 600 L214.804 600 C223.911 600 250.037 610.289 256.699 616.499 L291.417 648.863 C297.619 654.645 298.208 656.601 305.703 652.637 L305.703 652.637 Z M407.175 145.314 C386.432 112.099 341.8 91 289 91 C237.025 91 198.663 124.351 185.704 197.79 C179.623 232.255 201.012 250 236.009 250 L486.56 250 C524.476 250 549.118 272.285 544.643 309.936 C528.797 443.25 455.625 529 299 529 C149 529 49 446 49 260 C49 74 145 -9 290 -9 C394.55 -9 480.315 29.2925 516.589 89.9102 C531.927 115.542 520.286 128.135 492.419 138.891 L439.175 159.441 C430.31 162.863 412.209 153.374 407.175 145.314 L407.175 145.314 Z M385.984 334 L223.928 334 C202.58 334 191.053 346.83 199.551 366.414 C219.429 412.22 254.45 434 299 434 C353.45 434 388.162 408.136 407.628 364.27 C415.433 346.681 405.227 334 385.984 334 L385.984 334 Z " />
<glyph glyph-name="edieresis" unicode="&#xeb;" horiz-adv-x="560" d="M375.44 600 L383.56 600 C417.473 600 445 627.527 445 661.44 L445 670.56 C445 704.473 417.473 732 383.56 732 L375.44 732 C341.527 732 314 704.473 314 670.56 L314 661.44 C314 627.527 341.527 600 375.44 600 L375.44 600 Z M212.44 600 L220.56 600 C254.473 600 282 627.527 282 661.44 L282 670.56 C282 704.473 254.473 732 220.56 732 L212.44 732 C178.527 732 151 704.473 151 670.56 L151 661.44 C151 627.527 178.527 600 212.44 600 L212.44 600 Z M407.175 145.314 C386.432 112.099 341.8 91 289 91 C237.025 91 198.663 124.351 185.704 197.79 C179.623 232.255 201.012 250 236.009 250 L486.56 250 C524.476 250 549.118 272.285 544.643 309.936 C528.797 443.25 455.625 529 299 529 C149 529 49 446 49 260 C49 74 145 -9 290 -9 C394.55 -9 480.315 29.2925 516.589 89.9102 C531.927 115.542 520.286 128.135 492.419 138.891 L439.175 159.441 C430.31 162.863 412.209 153.374 407.175 145.314 L407.175 145.314 Z M385.984 334 L223.928 334 C202.58 334 191.053 346.83 199.551 366.414 C219.429 412.22 254.45 434 299 434 C353.45 434 388.162 408.136 407.628 364.27 C415.433 346.681 405.227 334 385.984 334 L385.984 334 Z " />
<glyph glyph-name="igrave" unicode="&#xec;" horiz-adv-x="298" d="M145.065 600 L167 600 C195.742 600 213.548 624.86 204.295 652.073 L185.165 708.338 C177.763 730.11 149.992 750 126.995 750 L92 750 C55.6063 750 36.4694 714.44 56.5165 684.066 L93.7865 627.596 C102.177 614.883 129.833 600 145.065 600 L145.065 600 Z M167 0 C200.67 0 228 27.3298 228 61 L228 459 C228 492.67 200.67 520 167 520 C133.33 520 106 492.67 106 459 L106 61 C106 27.3298 133.33 0 167 0 L167 0 Z " />
<glyph glyph-name="iacute" unicode="&#xed;" horiz-adv-x="298" d="M167 600 L188.935 600 C204.167 600 231.823 614.883 240.214 627.596 L277.483 684.066 C297.531 714.44 278.394 750 242 750 L207.005 750 C184.008 750 156.237 730.11 148.835 708.338 L129.705 652.073 C120.452 624.86 138.258 600 167 600 L167 600 Z M167 0 C200.67 0 228 27.3298 228 61 L228 459 C228 492.67 200.67 520 167 520 C133.33 520 106 492.67 106 459 L106 61 C106 27.3298 133.33 0 167 0 L167 0 Z " />
<glyph glyph-name="icircumflex" unicode="&#xee;" horiz-adv-x="298" d="M174.703 652.637 C194.609 642.109 226 600 226 600 C226 600 222.919 600 256.832 600 L281.5 600 C306.282 600 318.943 624.85 304.374 644.898 L246.401 724.678 C238.184 735.985 210.675 750 196.698 750 L137.302 750 C123.325 750 95.8156 735.985 87.599 724.678 L29.6257 644.898 C15.0575 624.85 27.7178 600 52.5 600 L83.8041 600 C92.9108 600 119.037 610.289 125.699 616.499 L160.417 648.863 C166.619 654.645 167.208 656.601 174.703 652.637 L174.703 652.637 Z M167 0 C200.67 0 228 27.3298 228 61 L228 459 C228 492.67 200.67 520 167 520 C133.33 520 106 492.67 106 459 L106 61 C106 27.3298 133.33 0 167 0 L167 0 Z " />
<glyph glyph-name="idieresis" unicode="&#xef;" horiz-adv-x="298" d="M276.44 600 L284.56 600 C318.473 600 346 627.527 346 661.44 L346 670.56 C346 704.473 318.473 732 284.56 732 L276.44 732 C242.527 732 215 704.473 215 670.56 L215 661.44 C215 627.527 242.527 600 276.44 600 L276.44 600 Z M49.44 600 L58.56 600 C92.473 600 120 627.527 120 661.44 L120 670.56 C120 704.473 92.473 732 58.56 732 L49.44 732 C15.527 732 -12 704.473 -12 670.56 L-12 661.44 C-12 627.527 15.527 600 49.44 600 L49.44 600 Z M167 0 C200.67 0 228 27.3298 228 61 L228 459 C228 492.67 200.67 520 167 520 C133.33 520 106 492.67 106 459 L106 61 C106 27.3298 133.33 0 167 0 L167 0 Z " />
<glyph glyph-name="ntilde" unicode="&#xf1;" horiz-adv-x="556" d="M200.839 620.651 C203.206 647.907 210.459 665 221 665 C255 665 292 591 348 591 C345 591 339 685 339 685 C339 685 343.449 638.529 343.489 638.119 L345.093 621.361 C347.356 597.723 356.034 587.867 378.075 596.703 C412.757 610.606 437.436 649.109 446.346 703.15 C451.043 731.644 433.879 750 405 750 L379.5 750 C369.668 750 360.012 739.144 359.161 729.349 C357.189 706.635 351.823 690.98 343.989 686.392 C338.454 683.151 343.333 680.53 338.868 685.136 C335.459 688.654 266.6 759 212 759 C213.68 759 215.36 742.771 217.04 723.946 C217.041 723.934 217.022 724.49 217.021 724.502 L216 736.5 C214.575 753.239 208.289 761.566 192.104 757.064 C151.741 745.838 123.272 703.14 114.697 641.546 C110.88 614.134 128.325 600.814 156 600.5 L180.501 600.222 C190.342 600.11 199.987 610.847 200.839 620.651 L200.839 620.651 Z M493 62 L493 316 C493 455 432 526 340 526 C287.2 526 242.568 508.304 210.033 476.842 C203.889 470.901 191 474.355 191 482.902 L191 488 C191 506.215 176.215 521 158 521 L130.5 521 C97.1058 521 70 493.894 70 460.5 L70 61.5 C70 28.1058 97.1058 1 130.5 1 C163.894 1 191 28.1058 191 61.5 L191 318 C191 377 231 416 292 416 C339 416 371 382 371 316 L371 62 C371 28.3298 398.33 1 432 1 C465.67 1 493 28.3298 493 62 L493 62 Z " />
<glyph glyph-name="ograve" unicode="&#xf2;" horiz-adv-x="590" d="M272.065 600 L294 600 C322.742 600 340.548 624.86 331.295 652.073 L312.165 708.338 C304.763 730.11 276.992 750 253.995 750 L219 750 C182.606 750 163.469 714.44 183.517 684.066 L220.786 627.596 C229.177 614.883 256.833 600 272.065 600 L272.065 600 Z M180 260 C180 384 226 439 294 439 C373 439 408 367 408 260 C408 136 362 81 294 81 C215 81 180 153 180 260 L180 260 Z M48 260 C48 99 124 -9 294 -9 C442 -9 540 74 540 260 C540 421 464 529 294 529 C146 529 48 446 48 260 L48 260 Z " />
<glyph glyph-name="oacute" unicode="&#xf3;" horiz-adv-x="590" d="M294 600 L315.935 600 C331.167 600 358.823 614.883 367.214 627.596 L404.483 684.066 C424.531 714.44 405.394 750 369 750 L334.005 750 C311.008 750 283.237 730.11 275.835 708.338 L256.705 652.073 C247.452 624.86 265.258 600 294 600 L294 600 Z M180 260 C180 384 226 439 294 439 C373 439 408 367 408 260 C408 136 362 81 294 81 C215 81 180 153 180 260 L180 260 Z M48 260 C48 99 124 -9 294 -9 C442 -9 540 74 540 260 C540 421 464 529 294 529 C146 529 48 446 48 260 L48 260 Z " />
<glyph glyph-name="ocircumflex" unicode="&#xf4;" horiz-adv-x="590" d="M301.703 652.637 C321.609 642.109 353 600 353 600 C353 600 349.919 600 383.832 600 L408.5 600 C433.282 600 445.943 624.85 431.374 644.898 L373.401 724.678 C365.184 735.985 337.675 750 323.698 750 L264.302 750 C250.325 750 222.816 735.985 214.599 724.678 L156.626 644.898 C142.057 624.85 154.718 600 179.5 600 L210.804 600 C219.911 600 246.037 610.289 252.699 616.499 L287.417 648.863 C293.619 654.645 294.208 656.601 301.703 652.637 L301.703 652.637 Z M180 260 C180 384 226 439 294 439 C373 439 408 367 408 260 C408 136 362 81 294 81 C215 81 180 153 180 260 L180 260 Z M48 260 C48 99 124 -9 294 -9 C442 -9 540 74 540 260 C540 421 464 529 294 529 C146 529 48 446 48 260 L48 260 Z " />
<glyph glyph-name="otilde" unicode="&#xf5;" horiz-adv-x="590" d="M214.839 620.651 C217.206 647.907 224.459 665 235 665 C269 665 306 591 362 591 C359 591 353 685 353 685 C353 685 357.449 638.529 357.489 638.119 L359.093 621.361 C361.356 597.723 370.034 587.867 392.075 596.703 C426.757 610.606 451.436 649.109 460.346 703.15 C465.043 731.644 447.879 750 419 750 L393.5 750 C383.668 750 374.012 739.144 373.161 729.349 C371.189 706.635 365.823 690.98 357.989 686.392 C352.454 683.151 357.333 680.53 352.868 685.136 C349.459 688.654 280.6 759 226 759 C227.68 759 229.36 742.771 231.04 723.946 C231.041 723.934 231.022 724.49 231.021 724.502 L230 736.5 C228.575 753.239 222.289 761.566 206.104 757.064 C165.741 745.838 137.272 703.14 128.697 641.546 C124.88 614.134 142.325 600.814 170 600.5 L194.501 600.222 C204.342 600.11 213.987 610.847 214.839 620.651 L214.839 620.651 Z M182 261 C182 385 228 440 296 440 C375 440 410 368 410 261 C410 137 364 82 296 82 C217 82 182 154 182 261 L182 261 Z M50 261 C50 100 126 -8 296 -8 C444 -8 542 75 542 261 C542 422 466 530 296 530 C148 530 50 447 50 261 L50 261 Z " />
<glyph glyph-name="odieresis" unicode="&#xf6;" horiz-adv-x="590" d="M371.44 600 L379.56 600 C413.473 600 441 627.527 441 661.44 L441 670.56 C441 704.473 413.473 732 379.56 732 L371.44 732 C337.527 732 310 704.473 310 670.56 L310 661.44 C310 627.527 337.527 600 371.44 600 L371.44 600 Z M208.44 600 L216.56 600 C250.473 600 278 627.527 278 661.44 L278 670.56 C278 704.473 250.473 732 216.56 732 L208.44 732 C174.527 732 147 704.473 147 670.56 L147 661.44 C147 627.527 174.527 600 208.44 600 L208.44 600 Z M180 260 C180 384 226 439 294 439 C373 439 408 367 408 260 C408 136 362 81 294 81 C215 81 180 153 180 260 L180 260 Z M48 260 C48 99 124 -9 294 -9 C442 -9 540 74 540 260 C540 421 464 529 294 529 C146 529 48 446 48 260 L48 260 Z " />
<glyph glyph-name="oslash" unicode="&#xf8;" horiz-adv-x="590" d="M48 260 C48 193.175 60.9319 135.198 88.4802 90.5615 C95.6976 78.8671 96.9245 50.5249 88.1987 39.9084 L64.8266 11.4723 C57.6514 2.74253 63.1999 -9 74.5 -9 C85.7984 -9 110.655 2.74208 117.83 11.4693 L122.567 17.2299 C129.923 26.1771 149.564 27.6367 159.675 21.9855 C195.629 1.89 240.55 -9 295 -9 C443 -9 541 74 541 260 C541 326.825 528.068 384.802 500.52 429.438 C493.302 441.133 492.075 469.475 500.801 480.092 L524.173 508.528 C531.349 517.257 525.8 529 514.5 529 C503.202 529 478.345 517.258 471.17 508.531 L466.433 502.77 C459.077 493.823 439.436 492.363 429.325 498.015 C393.371 518.11 348.45 529 294 529 C146 529 48 446 48 260 L48 260 Z M366.305 381.89 L199.598 177.539 C195.515 172.535 188.663 174.821 187.167 181.104 C181.723 203.972 179 230.125 179 259 C179 383 225 438 293 438 C323.525 438 347.584 427.45 365.739 408.035 C373.152 400.108 373.166 390.3 366.305 381.89 L366.305 381.89 Z M398.832 337.896 C404.277 315.027 407 288.875 407 260 C407 136 361 81 293 81 C262.475 81 238.756 91.89 220.721 111.424 C213.412 119.34 213.882 129.763 220.689 138.115 L386.407 341.457 C390.486 346.461 397.337 344.177 398.832 337.896 L398.832 337.896 Z " />
<glyph glyph-name="ugrave" unicode="&#xf9;" horiz-adv-x="554" d="M252.065 600 L274 600 C302.742 600 320.548 624.86 311.295 652.073 L292.165 708.338 C284.763 730.11 256.992 750 233.995 750 L199 750 C162.606 750 143.469 714.44 163.517 684.066 L200.786 627.596 C209.177 614.883 236.833 600 252.065 600 L252.065 600 Z M484 60.5 L484 459.5 C484 492.894 456.894 520 423.5 520 C390.106 520 363 492.894 363 459.5 L363 217 C363 147 323 101 263 101 C202 101 185 136 185 203 L185 459.5 C185 492.894 157.894 520 124.5 520 C91.1058 520 64 492.894 64 459.5 L64 203 C64 63 99 -9 225 -9 C274.5 -9 315.832 12.0994 345.628 49.806 C350.516 55.9918 363 52.997 363 45.1131 L363 38 C363 17.0251 380.025 0 401 0 L423.5 0 C456.894 0 484 27.1058 484 60.5 L484 60.5 Z " />
<glyph glyph-name="uacute" unicode="&#xfa;" horiz-adv-x="554" d="M274 600 L295.935 600 C311.167 600 338.823 614.883 347.214 627.596 L384.483 684.066 C404.531 714.44 385.394 750 349 750 L314.005 750 C291.008 750 263.237 730.11 255.835 708.338 L236.705 652.073 C227.452 624.86 245.258 600 274 600 L274 600 Z M484 60.5 L484 459.5 C484 492.894 456.894 520 423.5 520 C390.106 520 363 492.894 363 459.5 L363 217 C363 147 323 101 263 101 C202 101 185 136 185 203 L185 459.5 C185 492.894 157.894 520 124.5 520 C91.1058 520 64 492.894 64 459.5 L64 203 C64 63 99 -9 225 -9 C274.5 -9 315.832 12.0994 345.628 49.806 C350.516 55.9918 363 52.997 363 45.1131 L363 38 C363 17.0251 380.025 0 401 0 L423.5 0 C456.894 0 484 27.1058 484 60.5 L484 60.5 Z " />
<glyph glyph-name="ucircumflex" unicode="&#xfb;" horiz-adv-x="554" d="M281.703 652.637 C301.609 642.109 333 600 333 600 C333 600 329.919 600 363.832 600 L388.5 600 C413.282 600 425.943 624.85 411.374 644.898 L353.401 724.678 C345.184 735.985 317.675 750 303.698 750 L244.302 750 C230.325 750 202.816 735.985 194.599 724.678 L136.626 644.898 C122.057 624.85 134.718 600 159.5 600 L190.804 600 C199.911 600 226.037 610.289 232.699 616.499 L267.417 648.863 C273.619 654.645 274.208 656.601 281.703 652.637 L281.703 652.637 Z M484 60.5 L484 459.5 C484 492.894 456.894 520 423.5 520 C390.106 520 363 492.894 363 459.5 L363 217 C363 147 323 101 263 101 C202 101 185 136 185 203 L185 459.5 C185 492.894 157.894 520 124.5 520 C91.1058 520 64 492.894 64 459.5 L64 203 C64 63 99 -9 225 -9 C274.5 -9 315.832 12.0994 345.628 49.806 C350.516 55.9918 363 52.997 363 45.1131 L363 38 C363 17.0251 380.025 0 401 0 L423.5 0 C456.894 0 484 27.1058 484 60.5 L484 60.5 Z " />
<glyph glyph-name="udieresis" unicode="&#xfc;" horiz-adv-x="554" d="M351.44 600 L359.56 600 C393.473 600 421 627.527 421 661.44 L421 670.56 C421 704.473 393.473 732 359.56 732 L351.44 732 C317.527 732 290 704.473 290 670.56 L290 661.44 C290 627.527 317.527 600 351.44 600 L351.44 600 Z M188.44 600 L196.56 600 C230.473 600 258 627.527 258 661.44 L258 670.56 C258 704.473 230.473 732 196.56 732 L188.44 732 C154.527 732 127 704.473 127 670.56 L127 661.44 C127 627.527 154.527 600 188.44 600 L188.44 600 Z M484 60.5 L484 459.5 C484 492.894 456.894 520 423.5 520 C390.106 520 363 492.894 363 459.5 L363 217 C363 147 323 101 263 101 C202 101 185 136 185 203 L185 459.5 C185 492.894 157.894 520 124.5 520 C91.1058 520 64 492.894 64 459.5 L64 203 C64 63 99 -9 225 -9 C274.5 -9 315.832 12.0994 345.628 49.806 C350.516 55.9918 363 52.997 363 45.1131 L363 38 C363 17.0251 380.025 0 401 0 L423.5 0 C456.894 0 484 27.1058 484 60.5 L484 60.5 Z " />
<glyph glyph-name="yacute" unicode="&#xfd;" horiz-adv-x="489" d="M243.5 600 L265.75 600 C281.115 600 308.782 614.973 317.186 627.835 L354.065 684.282 C373.905 714.65 354.774 750 318.5 750 L283.728 750 C260.923 750 233.147 730.231 225.677 708.684 L206.179 652.438 C196.698 625.091 214.556 600 243.5 600 L243.5 600 Z M68 -200 L93 -200 C209 -200 249 -176 277 -89 L465 479 C468 486 479 520 479 520 C479 520 468.307 520 461.132 520 L351.341 520 C346.373 520 340.83 515.786 339.5 511 L337 502 L285.449 319.961 C272.845 275.453 210.551 275.839 198.5 320.5 L156 478 C154 486 145 519 145 519 C145 519 140.257 519 127.897 519 L25.3925 519 C16.2827 519 5.16052 527.508 8.0443 518.867 C8.80384 516.591 19.1111 485.741 22 479 L184.722 -13.0876 C185.76 -16.2256 185.95 -29.8343 185 -33 L182 -43 C169 -84 149 -95 93 -95 L68 -95 C54.2007 -95 43 -106.201 43 -120 L43 -175 C43 -188.799 54.2007 -200 68 -200 L68 -200 Z " />
<glyph glyph-name="thorn" unicode="&#xfe;" horiz-adv-x="600" d="M130 750 L99.5 750 C82.6649 750 69 736.335 69 719.5 L69 -189.5 C69 -222.894 96.1058 -250 129.5 -250 C162.894 -250 190 -222.894 190 -189.5 L190 31 C190 40.3013 203.66 44.4586 210.435 38.0862 C244.917 5.65437 290.375 -10 344 -10 C468 -10 550 98 550 259 C550 420 468 528 344 528 C290.375 528 244.918 512.346 210.435 479.914 C203.66 473.541 190 477.699 190 487 L190 717.983 C190 734.542 176.55 748.448 160 749 L130 750 L130 750 Z M190 258 C190 375 235 427 303 427 C372 427 418 359 418 258 C418 157 372 89 303 89 C235 89 190 141 190 258 L190 258 Z " />
<glyph glyph-name="ydieresis" unicode="&#xff;" horiz-adv-x="489" d="M320.44 600 L329.56 600 C363.473 600 391 627.527 391 661.44 L391 670.56 C391 704.473 363.473 732 329.56 732 L320.44 732 C286.527 732 259 704.473 259 670.56 L259 661.44 C259 627.527 286.527 600 320.44 600 L320.44 600 Z M157.44 600 L166.56 600 C200.473 600 228 627.527 228 661.44 L228 670.56 C228 704.473 200.473 732 166.56 732 L157.44 732 C123.527 732 96 704.473 96 670.56 L96 661.44 C96 627.527 123.527 600 157.44 600 L157.44 600 Z M68 -200 L93 -200 C209 -200 249 -176 277 -89 L465 479 C468 486 479 520 479 520 C479 520 468.307 520 461.132 520 L351.341 520 C346.373 520 340.83 515.786 339.5 511 L337 502 L285.449 319.961 C272.845 275.453 210.551 275.839 198.5 320.5 L156 478 C154 486 145 519 145 519 C145 519 140.257 519 127.897 519 L25.3925 519 C16.2827 519 5.16052 527.508 8.0443 518.867 C8.80384 516.591 19.1111 485.741 22 479 L184.722 -13.0876 C185.76 -16.2256 185.95 -29.8343 185 -33 L182 -43 C169 -84 149 -95 93 -95 L68 -95 C54.2007 -95 43 -106.201 43 -120 L43 -175 C43 -188.799 54.2007 -200 68 -200 L68 -200 Z " />
<glyph glyph-name="Amacron" unicode="&#x100;" horiz-adv-x="725" d="M269 830 L465 830 C488.183 830 507 848.817 507 872 C507 895.183 488.183 914 465 914 L269 914 C245.817 914 227 895.183 227 872 C227 848.817 245.817 830 269 830 L269 830 Z M697 50 L452.844 709.88 C445.16 730.649 417.367 750 395.222 750 L314.585 750 C302.442 750 286.876 739.327 282.5 728 L274 706 C273 703 40 86 17 25 C11 10 8 0 8 0 C8 0 11.0763 0 13.2202 0 L149.192 0 C151.143 0 152.316 -1.62567 153.073 0.172051 C153.554 1.31405 156.364 8.09091 160 19 L196.165 116.858 C203.846 137.641 231.638 157 253.795 157 L469.83 157 C492.248 157 520.034 137.477 527.633 116.386 L562 21 C566 8 569 0 569 0 C569 0 569.869 0 573.272 0 L714 0 C713 2 697 50 696 50 L697 50 Z M277.273 342.586 L304.059 415.661 C324.303 470.889 397.412 470.785 417.5 415.5 L444.053 342.422 C459.589 299.662 431.801 260 386.306 260 L334.959 260 C289.374 260 261.584 299.786 277.273 342.586 L277.273 342.586 Z " />
<glyph glyph-name="amacron" unicode="&#x101;" horiz-adv-x="550" d="M166 600 L362 600 C385.183 600 404 618.817 404 642 C404 665.183 385.183 684 362 684 L166 684 C142.817 684 124 665.183 124 642 C124 618.817 142.817 600 166 600 L166 600 Z M94.5119 377.537 L142.039 362.122 C151.536 359.042 168.607 368.101 173.632 376.728 C192.184 408.581 226.05 429 264 429 C318 429 354 417 354 385 C354 331 288 305 190 289 C99 274 39 216 39 145 C39 53 84 -9 199 -9 C257.65 -9 306.185 3.2825 339.692 37.0594 C345.174 42.5854 359.299 40.0858 362.688 33.0784 C375.424 6.74437 405.432 1.28437 476.723 0.234375 C501.924 -0.136807 519 19.7956 519 45 L519 68.5 C519 79.708 507.655 89.75 496.464 90.3727 C475.229 91.5544 474 96.4054 474 116 L474 334 C474 474 390 529 263 529 C180.5 529 109.23 491.566 71.6516 431.858 C55.6838 406.487 65.9967 386.785 94.5119 377.537 L94.5119 377.537 Z M353 227.423 L353 183 C346 99 300 75 235 75 C180 75 159 105 159 149 C159 177 200 202 261 212 C290.7 216.95 316.997 223.942 339.329 234.66 C345.213 237.484 353 233.95 353 227.423 L353 227.423 Z " />
<glyph glyph-name="Abreve" unicode="&#x102;" horiz-adv-x="725" d="M220.438 923.706 C237.269 860.476 291.925 821 367 821 C442.9 821 497.701 860.476 514.556 923.706 C522.424 953.218 506.543 967 476 967 L448.5 967 C440.846 967 429.684 956.157 427.767 948.747 C420.852 922.016 398.35 905 367 905 C335.65 905 313.148 922.016 306.233 948.747 C304.316 956.157 293.154 967 285.5 967 L259 967 C228.466 967 212.584 953.213 220.438 923.706 L220.438 923.706 Z M697 50 L452.844 709.88 C445.16 730.649 417.367 750 395.222 750 L314.585 750 C302.442 750 286.876 739.327 282.5 728 L274 706 C273 703 40 86 17 25 C11 10 8 0 8 0 C8 0 11.0763 0 13.2202 0 L149.192 0 C151.143 0 152.316 -1.62567 153.073 0.172051 C153.554 1.31405 156.364 8.09091 160 19 L196.165 116.858 C203.846 137.641 231.638 157 253.795 157 L469.83 157 C492.248 157 520.034 137.477 527.633 116.386 L562 21 C566 8 569 0 569 0 C569 0 569.869 0 573.272 0 L714 0 C713 2 697 50 696 50 L697 50 Z M277.273 342.586 L304.059 415.661 C324.303 470.889 397.412 470.785 417.5 415.5 L444.053 342.422 C459.589 299.662 431.801 260 386.306 260 L334.959 260 C289.374 260 261.584 299.786 277.273 342.586 L277.273 342.586 Z " />
<glyph glyph-name="abreve" unicode="&#x103;" horiz-adv-x="550" d="M117.438 693.706 C134.269 630.476 188.925 591 264 591 C339.9 591 394.701 630.476 411.556 693.706 C419.424 723.218 403.543 737 373 737 L345.5 737 C337.846 737 326.684 726.157 324.767 718.747 C317.852 692.016 295.35 675 264 675 C232.65 675 210.148 692.016 203.233 718.747 C201.316 726.157 190.154 737 182.5 737 L156 737 C125.466 737 109.584 723.213 117.438 693.706 L117.438 693.706 Z M94.5119 377.537 L142.039 362.122 C151.536 359.042 168.607 368.101 173.632 376.728 C192.184 408.581 226.05 429 264 429 C318 429 354 417 354 385 C354 331 288 305 190 289 C99 274 39 216 39 145 C39 53 84 -9 199 -9 C257.65 -9 306.185 3.2825 339.692 37.0594 C345.174 42.5854 359.299 40.0858 362.688 33.0784 C375.424 6.74437 405.432 1.28437 476.723 0.234375 C501.924 -0.136807 519 19.7956 519 45 L519 68.5 C519 79.708 507.655 89.75 496.464 90.3727 C475.229 91.5544 474 96.4054 474 116 L474 334 C474 474 390 529 263 529 C180.5 529 109.23 491.566 71.6516 431.858 C55.6838 406.487 65.9967 386.785 94.5119 377.537 L94.5119 377.537 Z M353 227.423 L353 183 C346 99 300 75 235 75 C180 75 159 105 159 149 C159 177 200 202 261 212 C290.7 216.95 316.997 223.942 339.329 234.66 C345.213 237.484 353 233.95 353 227.423 L353 227.423 Z " />
<glyph glyph-name="Aogonek" unicode="&#x104;" horiz-adv-x="725" d="M697 50 L452.844 709.88 C445.16 730.649 417.367 750 395.222 750 L314.585 750 C302.442 750 286.876 739.327 282.5 728 L274 706 C273 703 40 86 17 25 C11 10 8 0 8 0 C8 0 11.0763 0 13.2202 0 L149.192 0 C151.143 0 152.316 -1.62567 153.073 0.172051 C153.554 1.31405 156.364 8.09091 160 19 L196.165 116.858 C203.846 137.641 231.638 157 253.795 157 L469.83 157 C492.248 157 520.034 137.477 527.633 116.386 L562 21 C566 8 569 0 569 0 C569 0 569.869 0 573.272 0 L628.844 0 C636.648 0 641.585 -7.80321 636.495 -13.7182 C613.23 -40.7525 593 -73.35 593 -98 C593 -168 648 -215 731 -215 C765.85 -215 795.643 -209.22 809.937 -200.116 C814.779 -197.033 815.63 -192.963 814.603 -187.316 L804.825 -133.535 C804.531 -131.918 802.363 -130.6 800.958 -131.452 C791.579 -137.139 767.879 -141 738 -141 C692 -141 661 -119 661 -86 C661 -53 698 -9 714 0 C713 2 697 50 696 50 L697 50 Z M277.273 342.586 L304.059 415.661 C324.303 470.889 397.412 470.785 417.5 415.5 L444.053 342.422 C459.589 299.662 431.801 260 386.306 260 L334.959 260 C289.374 260 261.584 299.786 277.273 342.586 L277.273 342.586 Z " />
<glyph glyph-name="aogonek" unicode="&#x105;" horiz-adv-x="550" d="M94.5119 377.537 L142.039 362.122 C151.536 359.042 168.607 368.101 173.632 376.728 C192.184 408.581 226.05 429 264 429 C318 429 354 417 354 385 C354 331 288 305 190 289 C99 274 39 216 39 145 C39 53 84 -9 199 -9 C259.375 -9 309.031 4.01563 342.609 40.0957 C347.364 45.2044 358.703 42.8971 361.365 36.4459 C371.41 12.1027 393.637 3.67275 443.669 0.867 C452.15 0.391381 454.324 -10.8703 448.332 -16.8921 C421.141 -44.2212 398 -74.375 398 -95 C398 -167 453 -215 536 -215 C570.85 -215 600.643 -209.22 614.937 -200.116 C619.779 -197.033 620.63 -192.963 619.603 -187.316 L609.825 -133.535 C609.531 -131.918 607.363 -130.6 605.958 -131.452 C596.579 -137.139 572.879 -141 543 -141 C497 -141 466 -118 466 -83 C466 -55.875 494.328 -19.5625 512.129 -4.87891 C514.559 -2.87421 519 6.02838 519 9.17878 L519 68.5 C519 79.708 507.655 89.75 496.464 90.3727 C475.229 91.5544 474 96.4054 474 116 L474 334 C474 474 390 529 263 529 C180.5 529 109.23 491.566 71.6516 431.858 C55.6838 406.487 65.9967 386.785 94.5119 377.537 L94.5119 377.537 Z M353 227.423 L353 183 C346 99 300 75 235 75 C180 75 159 105 159 149 C159 177 200 202 261 212 C290.7 216.95 316.997 223.942 339.329 234.66 C345.213 237.484 353 233.95 353 227.423 L353 227.423 Z " />
<glyph glyph-name="Cacute" unicode="&#x106;" horiz-adv-x="714" d="M372 830 L393.935 830 C409.167 830 436.823 844.883 445.214 857.596 L482.483 914.066 C502.531 944.44 483.394 980 447 980 L412.005 980 C389.008 980 361.237 960.11 353.835 938.338 L334.705 882.073 C325.452 854.86 343.258 830 372 830 L372 830 Z M572.272 195.539 C530.877 137.754 464.3 101 395 101 C275 101 195 227 195 375 C195 523 275 649 395 649 C456.05 649 521.184 612.246 567.941 554.461 C581.599 537.582 613.72 530.694 630.359 544.644 L654.477 564.865 C680.668 586.823 686.905 613.299 664.743 639.318 C602.188 712.76 500.4 759 395 759 C188 759 50 582 50 375 C50 168 188 -9 395 -9 C510.6 -9 614.64 37.24 669.658 110.682 C688.878 136.338 683.13 161.113 658.565 181.708 L628.613 206.819 C613.5 219.49 583.757 211.571 572.272 195.539 L572.272 195.539 Z " />
<glyph glyph-name="cacute" unicode="&#x107;" horiz-adv-x="553" d="M297 600 L318.935 600 C334.167 600 361.823 614.883 370.214 627.596 L407.483 684.066 C427.531 714.44 408.394 750 372 750 L337.005 750 C314.008 750 286.237 730.11 278.835 708.338 L259.705 652.073 C250.452 624.86 268.258 600 297 600 L297 600 Z M402.014 150.316 C379.397 114.141 339.9 91 297 91 C227 91 180 143 180 260 C180 380 227 434 297 434 C343.55 434 381.075 396.095 411.29 338.29 C413.798 333.492 419.463 330.734 424.308 333.15 C439.538 340.746 454.769 348.231 470 355 L496.5 368 C512.339 375.77 518.249 391.372 509.22 406.528 C465.21 480.4 396.9 529 297 529 C148 529 48 446 48 260 C48 74 148 -9 297 -9 C385.275 -9 461.979 26.3925 502.406 83.1396 C519.783 107.531 512.092 127.304 485.159 140.4 L437.896 163.381 C427.303 168.532 408.259 160.304 402.014 150.316 L402.014 150.316 Z " />
<glyph glyph-name="Ccircumflex" unicode="&#x108;" horiz-adv-x="714" d="M379.703 882.637 C399.609 872.109 431 830 431 830 C431 830 427.919 830 461.832 830 L486.5 830 C511.282 830 523.943 854.85 509.374 874.898 L451.401 954.678 C443.184 965.985 415.675 980 401.698 980 L342.302 980 C328.325 980 300.816 965.985 292.599 954.678 L234.626 874.898 C220.057 854.85 232.718 830 257.5 830 L288.804 830 C297.911 830 324.037 840.289 330.699 846.499 L365.417 878.863 C371.619 884.645 372.208 886.601 379.703 882.637 L379.703 882.637 Z M572.272 195.539 C530.877 137.754 464.3 101 395 101 C275 101 195 227 195 375 C195 523 275 649 395 649 C456.05 649 521.184 612.246 567.941 554.461 C581.599 537.582 613.72 530.694 630.359 544.644 L654.477 564.865 C680.668 586.823 686.905 613.299 664.743 639.318 C602.188 712.76 500.4 759 395 759 C188 759 50 582 50 375 C50 168 188 -9 395 -9 C510.6 -9 614.64 37.24 669.658 110.682 C688.878 136.338 683.13 161.113 658.565 181.708 L628.613 206.819 C613.5 219.49 583.757 211.571 572.272 195.539 L572.272 195.539 Z " />
<glyph glyph-name="Cdot" unicode="&#x10a;" horiz-adv-x="714" d="M367.44 830 L376.56 830 C410.473 830 438 857.527 438 891.44 L438 900.56 C438 934.473 410.473 962 376.56 962 L367.44 962 C333.527 962 306 934.473 306 900.56 L306 891.44 C306 857.527 333.527 830 367.44 830 L367.44 830 Z M572.272 195.539 C530.877 137.754 464.3 101 395 101 C275 101 195 227 195 375 C195 523 275 649 395 649 C456.05 649 521.184 612.246 567.941 554.461 C581.599 537.582 613.72 530.694 630.359 544.644 L654.477 564.865 C680.668 586.823 686.905 613.299 664.743 639.318 C602.188 712.76 500.4 759 395 759 C188 759 50 582 50 375 C50 168 188 -9 395 -9 C510.6 -9 614.64 37.24 669.658 110.682 C688.878 136.338 683.13 161.113 658.565 181.708 L628.613 206.819 C613.5 219.49 583.757 211.571 572.272 195.539 L572.272 195.539 Z " />
<glyph glyph-name="cdot" unicode="&#x10b;" horiz-adv-x="553" d="M292.44 600 L301.56 600 C335.473 600 363 627.527 363 661.44 L363 670.56 C363 704.473 335.473 732 301.56 732 L292.44 732 C258.527 732 231 704.473 231 670.56 L231 661.44 C231 627.527 258.527 600 292.44 600 L292.44 600 Z M402.014 150.316 C379.397 114.141 339.9 91 297 91 C227 91 180 143 180 260 C180 380 227 434 297 434 C343.55 434 381.075 396.095 411.29 338.29 C413.798 333.492 419.463 330.734 424.308 333.15 C439.538 340.746 454.769 348.231 470 355 L496.5 368 C512.339 375.77 518.249 391.372 509.22 406.528 C465.21 480.4 396.9 529 297 529 C148 529 48 446 48 260 C48 74 148 -9 297 -9 C385.275 -9 461.979 26.3925 502.406 83.1396 C519.783 107.531 512.092 127.304 485.159 140.4 L437.896 163.381 C427.303 168.532 408.259 160.304 402.014 150.316 L402.014 150.316 Z " />
<glyph glyph-name="Ccaron" unicode="&#x10c;" horiz-adv-x="714" d="M365.417 931.137 L330.699 963.501 C324.037 969.711 297.911 980 288.804 980 L257.5 980 C232.718 980 220.057 955.15 234.626 935.102 L292.599 855.322 C300.816 844.015 328.325 830 342.302 830 L401.698 830 C415.675 830 443.184 844.015 451.401 855.322 L509.374 935.102 C523.943 955.15 511.282 980 486.5 980 L461.832 980 C448.261 980 439.064 990.757 430.924 979.899 C429.216 977.62 399.041 937.59 379.703 927.363 C372.208 923.399 371.619 925.355 365.417 931.137 L365.417 931.137 Z M572.272 195.539 C530.877 137.754 464.3 101 395 101 C275 101 195 227 195 375 C195 523 275 649 395 649 C456.05 649 521.184 612.246 567.941 554.461 C581.599 537.582 613.72 530.694 630.359 544.644 L654.477 564.865 C680.668 586.823 686.905 613.299 664.743 639.318 C602.188 712.76 500.4 759 395 759 C188 759 50 582 50 375 C50 168 188 -9 395 -9 C510.6 -9 614.64 37.24 669.658 110.682 C688.878 136.338 683.13 161.113 658.565 181.708 L628.613 206.819 C613.5 219.49 583.757 211.571 572.272 195.539 L572.272 195.539 Z " />
<glyph glyph-name="ccaron" unicode="&#x10d;" horiz-adv-x="553" d="M290.417 701.137 L255.699 733.501 C249.037 739.711 222.911 750 213.804 750 L182.5 750 C157.718 750 145.057 725.15 159.626 705.102 L217.599 625.322 C225.816 614.015 253.325 600 267.302 600 L326.698 600 C340.675 600 368.184 614.015 376.401 625.322 L434.374 705.102 C448.943 725.15 436.282 750 411.5 750 L386.832 750 C373.261 750 364.064 760.757 355.924 749.899 C354.216 747.62 324.041 707.59 304.703 697.363 C297.208 693.399 296.619 695.355 290.417 701.137 L290.417 701.137 Z M402.014 150.316 C379.397 114.141 339.9 91 297 91 C227 91 180 143 180 260 C180 380 227 434 297 434 C343.55 434 381.075 396.095 411.29 338.29 C413.798 333.492 419.463 330.734 424.308 333.15 C439.538 340.746 454.769 348.231 470 355 L496.5 368 C512.339 375.77 518.249 391.372 509.22 406.528 C465.21 480.4 396.9 529 297 529 C148 529 48 446 48 260 C48 74 148 -9 297 -9 C385.275 -9 461.979 26.3925 502.406 83.1396 C519.783 107.531 512.092 127.304 485.159 140.4 L437.896 163.381 C427.303 168.532 408.259 160.304 402.014 150.316 L402.014 150.316 Z " />
<glyph glyph-name="Dcaron" unicode="&#x10e;" horiz-adv-x="765" d="M318.417 931.137 L283.699 963.501 C277.037 969.711 250.911 980 241.804 980 L210.5 980 C185.718 980 173.057 955.15 187.626 935.102 L245.599 855.322 C253.816 844.015 281.325 830 295.302 830 L354.698 830 C368.675 830 396.184 844.015 404.401 855.322 L462.374 935.102 C476.943 955.15 464.282 980 439.5 980 L414.832 980 C401.261 980 392.064 990.757 383.924 979.899 C382.216 977.62 352.041 937.59 332.703 927.363 C325.208 923.399 324.619 925.355 318.417 931.137 L318.417 931.137 Z M350 0 C594 0 710 121 710 375 C710 623 577 750 320 750 L146.44 750 C112.527 750 85 722.473 85 688.56 L85 61.44 C85 27.527 112.527 0 146.44 0 L350 0 L350 0 Z M220 165.5 L220 592.5 C220 621.478 243.522 645 272.5 645 L325 645 C483 645 565 553 565 375 C565 192 493 105 341 105 L280.5 105 C247.106 105 220 132.106 220 165.5 L220 165.5 Z " />
<glyph glyph-name="dcaron" unicode="&#x10f;" horiz-adv-x="603" d="M583.412 697.15 L583.7 653.999 C583.866 629.161 604.162 609 629 609 C652.96 609 679.548 629.296 685.865 652.408 L697.598 695.335 C706.864 729.233 684.141 759 649 759 L644.851 759 C610.712 759 583.185 731.289 583.412 697.15 L583.412 697.15 Z M180 260 C180 361 226 429 296 429 C366 429 412 361 412 260 C412 159 366 91 296 91 C226 91 180 159 180 260 L180 260 Z M48 260 C48 99 131 -9 256 -9 C309.625 -9 355.763 11.4187 391.045 47.2026 C397.829 54.0828 412 50.1581 412 40.496 L412 36 C412 16.1291 428.129 0 448 0 L472.5 0 C505.894 0 533 27.1058 533 60.5 L533 689.5 C533 722.894 505.894 750 472.5 750 C439.106 750 412 722.894 412 689.5 L412 479.504 C412 469.842 397.829 465.917 391.045 472.797 C355.763 508.581 309.625 529 256 529 C131 529 48 421 48 260 L48 260 Z " />
<glyph glyph-name="Dcroat" unicode="&#x110;" horiz-adv-x="765" d="M45 333 C67.0788 333 85 315.079 85 293 L85 61.44 C85 27.527 112.527 0 146.44 0 L350 0 C594 0 710 121 710 375 C710 623 577 750 320 750 L146.44 750 C112.527 750 85 722.473 85 688.56 L85 457 C85 434.921 67.0788 417 45 417 C22.9212 417 5 399.079 5 377 L5 373 C5 350.921 22.9212 333 45 333 L45 333 Z M220 165.5 L220 280.5 C220 309.478 243.522 333 272.5 333 L283 333 C306.183 333 325 351.817 325 375 C325 398.183 306.183 417 283 417 L272.5 417 C243.522 417 220 440.522 220 469.5 L220 592.5 C220 621.478 243.522 645 272.5 645 L325 645 C483 645 565 553 565 375 C565 192 493 105 341 105 L280.5 105 C247.106 105 220 132.106 220 165.5 L220 165.5 Z " />
<glyph glyph-name="dcroat" unicode="&#x111;" horiz-adv-x="603" d="M298.5 597 L350.56 597 C384.473 597 412 569.473 412 535.56 L412 479.504 C412 469.842 397.829 465.917 391.045 472.797 C355.763 508.581 309.625 529 256 529 C131 529 48 421 48 260 C48 99 131 -9 256 -9 C309.625 -9 355.763 11.4187 391.045 47.2026 C397.829 54.0828 412 50.1581 412 40.496 L412 36 C412 16.1291 428.129 0 448 0 L472.5 0 C505.894 0 533 27.1058 533 60.5 L533 539 C533 571.014 558.986 597 591 597 L606.5 597 C629.959 597 649 616.041 649 639.5 C649 662.959 629.959 682 606.5 682 L567 682 C548.233 682 533 697.233 533 716 C533 734.767 517.767 750 499 750 L446 750 C427.233 750 412 734.767 412 716 C412 697.233 396.767 682 378 682 L298.5 682 C275.041 682 256 662.959 256 639.5 C256 616.041 275.041 597 298.5 597 L298.5 597 Z M180 260 C180 361 226 429 296 429 C366 429 412 361 412 260 C412 159 366 91 296 91 C226 91 180 159 180 260 L180 260 Z " />
<glyph glyph-name="Emacron" unicode="&#x112;" horiz-adv-x="645" d="M235 830 L431 830 C454.183 830 473 848.817 473 872 C473 895.183 454.183 914 431 914 L235 914 C211.817 914 193 895.183 193 872 C193 848.817 211.817 830 235 830 L235 830 Z M540 110 L281.44 110 C247.527 110 220 137.527 220 171.44 L220 272.56 C220 306.473 247.527 334 281.44 334 L507 334 C536.254 334 560 357.746 560 387 C560 416.254 536.254 440 507 440 L281.44 440 C247.527 440 220 467.527 220 501.44 L220 578.56 C220 612.473 247.527 640 281.44 640 L525 640 C555.358 640 580 664.642 580 695 C580 725.358 555.358 750 525 750 L146.44 750 C112.527 750 85 722.473 85 688.56 L85 61.44 C85 27.527 112.527 0 146.44 0 L540 0 C570.358 0 595 24.6416 595 55 C595 85.3584 570.358 110 540 110 L540 110 Z " />
<glyph glyph-name="emacron" unicode="&#x113;" horiz-adv-x="560" d="M200 600 L396 600 C419.183 600 438 618.817 438 642 C438 665.183 419.183 684 396 684 L200 684 C176.817 684 158 665.183 158 642 C158 618.817 176.817 600 200 600 L200 600 Z M407.175 145.314 C386.432 112.099 341.8 91 289 91 C237.025 91 198.663 124.351 185.704 197.79 C179.623 232.255 201.012 250 236.009 250 L486.56 250 C524.476 250 549.118 272.285 544.643 309.936 C528.797 443.25 455.625 529 299 529 C149 529 49 446 49 260 C49 74 145 -9 290 -9 C394.55 -9 480.315 29.2925 516.589 89.9102 C531.927 115.542 520.286 128.135 492.419 138.891 L439.175 159.441 C430.31 162.863 412.209 153.374 407.175 145.314 L407.175 145.314 Z M385.984 334 L223.928 334 C202.58 334 191.053 346.83 199.551 366.414 C219.429 412.22 254.45 434 299 434 C353.45 434 388.162 408.136 407.628 364.27 C415.433 346.681 405.227 334 385.984 334 L385.984 334 Z " />
<glyph glyph-name="Ebreve" unicode="&#x114;" horiz-adv-x="645" d="M185.444 923.706 C202.299 860.476 257.1 821 333 821 C408.075 821 462.731 860.476 479.562 923.706 C487.416 953.213 471.534 967 441 967 L413.5 967 C405.837 967 394.685 956.167 392.773 948.747 C385.882 922.016 363.525 905 333 905 C301.65 905 279.148 922.016 272.233 948.747 C270.316 956.157 259.154 967 251.5 967 L224 967 C193.457 967 177.576 953.218 185.444 923.706 L185.444 923.706 Z M540 110 L281.44 110 C247.527 110 220 137.527 220 171.44 L220 272.56 C220 306.473 247.527 334 281.44 334 L507 334 C536.254 334 560 357.746 560 387 C560 416.254 536.254 440 507 440 L281.44 440 C247.527 440 220 467.527 220 501.44 L220 578.56 C220 612.473 247.527 640 281.44 640 L525 640 C555.358 640 580 664.642 580 695 C580 725.358 555.358 750 525 750 L146.44 750 C112.527 750 85 722.473 85 688.56 L85 61.44 C85 27.527 112.527 0 146.44 0 L540 0 C570.358 0 595 24.6416 595 55 C595 85.3584 570.358 110 540 110 L540 110 Z " />
<glyph glyph-name="ebreve" unicode="&#x115;" horiz-adv-x="560" d="M151.438 693.706 C168.269 630.476 222.925 591 298 591 C373.9 591 428.701 630.476 445.556 693.706 C453.424 723.218 437.543 737 407 737 L379.5 737 C371.846 737 360.684 726.157 358.767 718.747 C351.852 692.016 329.35 675 298 675 C266.65 675 244.148 692.016 237.233 718.747 C235.316 726.157 224.154 737 216.5 737 L190 737 C159.466 737 143.584 723.213 151.438 693.706 L151.438 693.706 Z M407.175 145.314 C386.432 112.099 341.8 91 289 91 C237.025 91 198.663 124.351 185.704 197.79 C179.623 232.255 201.012 250 236.009 250 L486.56 250 C524.476 250 549.118 272.285 544.643 309.936 C528.797 443.25 455.625 529 299 529 C149 529 49 446 49 260 C49 74 145 -9 290 -9 C394.55 -9 480.315 29.2925 516.589 89.9102 C531.927 115.542 520.286 128.135 492.419 138.891 L439.175 159.441 C430.31 162.863 412.209 153.374 407.175 145.314 L407.175 145.314 Z M385.984 334 L223.928 334 C202.58 334 191.053 346.83 199.551 366.414 C219.429 412.22 254.45 434 299 434 C353.45 434 388.162 408.136 407.628 364.27 C415.433 346.681 405.227 334 385.984 334 L385.984 334 Z " />
<glyph glyph-name="Edot" unicode="&#x116;" horiz-adv-x="645" d="M328.44 830 L336.56 830 C370.473 830 398 857.527 398 891.44 L398 900.56 C398 934.473 370.473 962 336.56 962 L328.44 962 C294.527 962 267 934.473 267 900.56 L267 891.44 C267 857.527 294.527 830 328.44 830 L328.44 830 Z M540 110 L281.44 110 C247.527 110 220 137.527 220 171.44 L220 272.56 C220 306.473 247.527 334 281.44 334 L507 334 C536.254 334 560 357.746 560 387 C560 416.254 536.254 440 507 440 L281.44 440 C247.527 440 220 467.527 220 501.44 L220 578.56 C220 612.473 247.527 640 281.44 640 L525 640 C555.358 640 580 664.642 580 695 C580 725.358 555.358 750 525 750 L146.44 750 C112.527 750 85 722.473 85 688.56 L85 61.44 C85 27.527 112.527 0 146.44 0 L540 0 C570.358 0 595 24.6416 595 55 C595 85.3584 570.358 110 540 110 L540 110 Z " />
<glyph glyph-name="edot" unicode="&#x117;" horiz-adv-x="560" d="M293.44 600 L302.56 600 C336.473 600 364 627.527 364 661.44 L364 670.56 C364 704.473 336.473 732 302.56 732 L293.44 732 C259.527 732 232 704.473 232 670.56 L232 661.44 C232 627.527 259.527 600 293.44 600 L293.44 600 Z M407.175 145.314 C386.432 112.099 341.8 91 289 91 C237.025 91 198.663 124.351 185.704 197.79 C179.623 232.255 201.012 250 236.009 250 L486.56 250 C524.476 250 549.118 272.285 544.643 309.936 C528.797 443.25 455.625 529 299 529 C149 529 49 446 49 260 C49 74 145 -9 290 -9 C394.55 -9 480.315 29.2925 516.589 89.9102 C531.927 115.542 520.286 128.135 492.419 138.891 L439.175 159.441 C430.31 162.863 412.209 153.374 407.175 145.314 L407.175 145.314 Z M385.984 334 L223.928 334 C202.58 334 191.053 346.83 199.551 366.414 C219.429 412.22 254.45 434 299 434 C353.45 434 388.162 408.136 407.628 364.27 C415.433 346.681 405.227 334 385.984 334 L385.984 334 Z " />
<glyph glyph-name="Eogonek" unicode="&#x118;" horiz-adv-x="645" d="M285.413 -16.8921 C258.461 -44.2212 236 -74.375 236 -95 C236 -167 291 -215 374 -215 C408.85 -215 438.642 -209.22 452.937 -200.116 C457.779 -197.033 458.63 -192.963 457.603 -187.316 L447.825 -133.535 C447.531 -131.918 445.363 -130.6 443.958 -131.452 C434.579 -137.139 410.879 -141 381 -141 C335 -141 304 -118 304 -83 C304 -55.875 332.328 -19.5625 350.129 -4.87891 C353.539 -2.06567 361.758 0 366.179 0 L540 0 C570.358 0 595 24.6416 595 55 C595 85.3584 570.358 110 540 110 L281.44 110 C247.527 110 220 137.527 220 171.44 L220 272.56 C220 306.473 247.527 334 281.44 334 L507 334 C536.254 334 560 357.746 560 387 C560 416.254 536.254 440 507 440 L281.44 440 C247.527 440 220 467.527 220 501.44 L220 578.56 C220 612.473 247.527 640 281.44 640 L525 640 C555.358 640 580 664.642 580 695 C580 725.358 555.358 750 525 750 L146.44 750 C112.527 750 85 722.473 85 688.56 L85 61.44 C85 27.527 112.527 0 146.44 0 L279.995 0 C288.369 0 291.294 -10.9294 285.413 -16.8921 L285.413 -16.8921 Z " />
<glyph glyph-name="eogonek" unicode="&#x119;" horiz-adv-x="560" d="M407.175 145.314 C386.432 112.099 341.8 91 289 91 C237.025 91 198.663 124.351 185.704 197.79 C179.623 232.255 201.012 250 236.009 250 L486.56 250 C524.476 250 549.118 272.285 544.643 309.936 C528.797 443.25 455.625 529 299 529 C149 529 49 446 49 260 C49 69.05 149.178 -16.3075 306.664 -8.93313 C313.52 -8.61207 322.218 -17.3562 317.694 -22.5175 C296.016 -47.2437 279 -73.025 279 -92 C279 -166 334 -215 417 -215 C451.85 -215 481.642 -209.22 495.937 -200.116 C500.779 -197.033 501.63 -192.963 500.603 -187.316 L490.825 -133.535 C490.531 -131.918 488.363 -130.6 486.958 -131.452 C477.579 -137.139 453.879 -141 424 -141 C378 -141 347 -117 347 -80 C347 -49.4 376.16 -10.7 393.656 3.295 C395.326 4.63058 402.033 7.94635 404.064 8.61423 C457.696 26.2497 498.912 57.1812 519.52 96.8007 C528.378 113.83 521.895 127.156 504.008 134.121 L439.15 159.375 C430.29 162.825 412.212 153.379 407.175 145.314 L407.175 145.314 Z M384.984 334 L222.928 334 C201.58 334 190.053 346.83 198.551 366.414 C218.429 412.22 253.45 434 298 434 C352.45 434 387.162 408.136 406.628 364.27 C414.433 346.681 404.227 334 384.984 334 L384.984 334 Z " />
<glyph glyph-name="Ecaron" unicode="&#x11a;" horiz-adv-x="645" d="M326.366 931.082 L290.617 963.851 C284.046 969.874 258.015 980 249.101 980 L218 980 C193.363 980 180.741 955.359 195.137 935.366 L252.611 855.54 C260.848 844.1 288.374 830 302.472 830 L362.698 830 C376.675 830 404.184 844.015 412.401 855.322 L470.374 935.102 C484.943 955.15 472.282 980 447.5 980 L422.832 980 C409.261 980 400.064 990.757 391.924 979.899 C390.216 977.62 360.041 937.59 340.703 927.363 C333.204 923.397 332.619 925.349 326.366 931.082 L326.366 931.082 Z M540 110 L281.44 110 C247.527 110 220 137.527 220 171.44 L220 272.56 C220 306.473 247.527 334 281.44 334 L507 334 C536.254 334 560 357.746 560 387 C560 416.254 536.254 440 507 440 L281.44 440 C247.527 440 220 467.527 220 501.44 L220 578.56 C220 612.473 247.527 640 281.44 640 L525 640 C555.358 640 580 664.642 580 695 C580 725.358 555.358 750 525 750 L146.44 750 C112.527 750 85 722.473 85 688.56 L85 61.44 C85 27.527 112.527 0 146.44 0 L540 0 C570.358 0 595 24.6416 595 55 C595 85.3584 570.358 110 540 110 L540 110 Z " />
<glyph glyph-name="ecaron" unicode="&#x11b;" horiz-adv-x="560" d="M291.417 701.137 L256.699 733.501 C250.037 739.711 223.911 750 214.804 750 L183.5 750 C158.718 750 146.057 725.15 160.626 705.102 L218.599 625.322 C226.816 614.015 254.325 600 268.302 600 L327.698 600 C341.675 600 369.184 614.015 377.401 625.322 L435.374 705.102 C449.943 725.15 437.282 750 412.5 750 L387.832 750 C374.261 750 365.064 760.757 356.924 749.899 C355.216 747.62 325.041 707.59 305.703 697.363 C298.208 693.399 297.619 695.355 291.417 701.137 L291.417 701.137 Z M407.175 145.314 C386.432 112.099 341.8 91 289 91 C237.025 91 198.663 124.351 185.704 197.79 C179.623 232.255 201.012 250 236.009 250 L486.56 250 C524.476 250 549.118 272.285 544.643 309.936 C528.797 443.25 455.625 529 299 529 C149 529 49 446 49 260 C49 74 145 -9 290 -9 C394.55 -9 480.315 29.2925 516.589 89.9102 C531.927 115.542 520.286 128.135 492.419 138.891 L439.175 159.441 C430.31 162.863 412.209 153.374 407.175 145.314 L407.175 145.314 Z M385.984 334 L223.928 334 C202.58 334 191.053 346.83 199.551 366.414 C219.429 412.22 254.45 434 299 434 C353.45 434 388.162 408.136 407.628 364.27 C415.433 346.681 405.227 334 385.984 334 L385.984 334 Z " />
<glyph glyph-name="Gcircumflex" unicode="&#x11c;" horiz-adv-x="771" d="M435.703 882.637 C455.609 872.109 487 830 487 830 C487 830 483.919 830 517.832 830 L542.5 830 C567.282 830 579.943 854.85 565.374 874.898 L507.401 954.678 C499.184 965.985 471.675 980 457.698 980 L398.302 980 C384.325 980 356.816 965.985 348.599 954.678 L290.626 874.898 C276.057 854.85 288.718 830 313.5 830 L344.804 830 C353.911 830 380.037 840.289 386.699 846.499 L421.417 878.863 C427.619 884.645 428.208 886.601 435.703 882.637 L435.703 882.637 Z M422.5 324 L535.56 324 C569.473 324 597 296.473 597 262.56 L597 180.224 C597 166.558 589.552 148.636 578.012 141.315 C539.52 116.895 486.65 101 428 101 C288 101 195 211 195 375 C195 539 288 649 428 649 C484.1 649 546.326 612.246 592.216 554.461 C605.841 537.305 637.57 530.569 654.359 544.644 L678.477 564.865 C704.511 586.691 710.817 613.323 688.946 639.318 C627.155 712.76 528.3 759 428 759 C201 759 50 605 50 375 C50 145 201 -9 428 -9 C535.1 -9 633.29 23.4 703.616 72.891 C715.389 81.1759 726 104.433 726 118.829 L726 373.56 C726 407.473 698.473 435 664.56 435 L422.5 435 C391.866 435 367 410.134 367 379.5 C367 348.866 391.866 324 422.5 324 L422.5 324 Z " />
<glyph glyph-name="Gbreve" unicode="&#x11e;" horiz-adv-x="771" d="M281.438 923.706 C298.269 860.476 352.925 821 428 821 C503.9 821 558.701 860.476 575.556 923.706 C583.424 953.218 567.543 967 537 967 L509.5 967 C501.846 967 490.684 956.157 488.767 948.747 C481.852 922.016 459.35 905 428 905 C396.65 905 374.148 922.016 367.233 948.747 C365.316 956.157 354.154 967 346.5 967 L320 967 C289.466 967 273.584 953.213 281.438 923.706 L281.438 923.706 Z M422.5 324 L535.56 324 C569.473 324 597 296.473 597 262.56 L597 180.224 C597 166.558 589.552 148.636 578.012 141.315 C539.52 116.895 486.65 101 428 101 C288 101 195 211 195 375 C195 539 288 649 428 649 C484.1 649 546.326 612.246 592.216 554.461 C605.841 537.305 637.57 530.569 654.359 544.644 L678.477 564.865 C704.511 586.691 710.817 613.323 688.946 639.318 C627.155 712.76 528.3 759 428 759 C201 759 50 605 50 375 C50 145 201 -9 428 -9 C535.1 -9 633.29 23.4 703.616 72.891 C715.389 81.1759 726 104.433 726 118.829 L726 373.56 C726 407.473 698.473 435 664.56 435 L422.5 435 C391.866 435 367 410.134 367 379.5 C367 348.866 391.866 324 422.5 324 L422.5 324 Z " />
<glyph glyph-name="gbreve" unicode="&#x11f;" horiz-adv-x="593" d="M138.444 693.706 C155.299 630.476 210.1 591 286 591 C361.075 591 415.731 630.476 432.562 693.706 C440.416 723.213 424.534 737 394 737 L366.5 737 C358.837 737 347.685 726.167 345.773 718.747 C338.882 692.016 316.525 675 286 675 C254.65 675 232.148 692.016 225.233 718.747 C223.316 726.157 212.154 737 204.5 737 L177 737 C146.457 737 130.576 723.218 138.444 693.706 L138.444 693.706 Z M56.5627 -99.0777 C83.07 -174.372 169.2 -205 288 -205 C457 -205 523 -103 523 51 L523 459.5 C523 492.894 495.894 520 462.5 520 L437 520 C417.681 520 402 504.319 402 485 L402 480.806 C402 471.399 388.232 467.551 381.657 474.278 C347.463 509.262 302.975 529 251 529 C129 529 48 454 48 260 C48 73 129 0 251 0 C302.975 0 347.463 19.0575 381.657 53.2419 C388.298 59.8818 402 55.99 402 46.5985 L402 1 C402 -62 367 -104 278 -104 C229.325 -104 194.262 -92.4294 183.481 -64.2345 C180.747 -57.0847 166.155 -44.1049 158.501 -44.1629 L105.498 -44.5644 C63.1292 -44.8854 42.4927 -59.1117 56.5627 -99.0777 L56.5627 -99.0777 Z M180 261 C180 383 224 430 291 430 C358 430 402 362 402 261 C402 165 358 101 291 101 C224 101 180 146 180 261 L180 261 Z " />
<glyph glyph-name="Gdot" unicode="&#x120;" horiz-adv-x="771" d="M423.44 830 L432.56 830 C466.473 830 494 857.527 494 891.44 L494 900.56 C494 934.473 466.473 962 432.56 962 L423.44 962 C389.527 962 362 934.473 362 900.56 L362 891.44 C362 857.527 389.527 830 423.44 830 L423.44 830 Z M422.5 324 L535.56 324 C569.473 324 597 296.473 597 262.56 L597 180.224 C597 166.558 589.552 148.636 578.012 141.315 C539.52 116.895 486.65 101 428 101 C288 101 195 211 195 375 C195 539 288 649 428 649 C484.1 649 546.326 612.246 592.216 554.461 C605.841 537.305 637.57 530.569 654.359 544.644 L678.477 564.865 C704.511 586.691 710.817 613.323 688.946 639.318 C627.155 712.76 528.3 759 428 759 C201 759 50 605 50 375 C50 145 201 -9 428 -9 C535.1 -9 633.29 23.4 703.616 72.891 C715.389 81.1759 726 104.433 726 118.829 L726 373.56 C726 407.473 698.473 435 664.56 435 L422.5 435 C391.866 435 367 410.134 367 379.5 C367 348.866 391.866 324 422.5 324 L422.5 324 Z " />
<glyph glyph-name="gdot" unicode="&#x121;" horiz-adv-x="593" d="M281.44 600 L289.56 600 C323.473 600 351 627.527 351 661.44 L351 670.56 C351 704.473 323.473 732 289.56 732 L281.44 732 C247.527 732 220 704.473 220 670.56 L220 661.44 C220 627.527 247.527 600 281.44 600 L281.44 600 Z M56.5627 -99.0777 C83.07 -174.372 169.2 -205 288 -205 C457 -205 523 -103 523 51 L523 459.5 C523 492.894 495.894 520 462.5 520 L437 520 C417.681 520 402 504.319 402 485 L402 480.806 C402 471.399 388.232 467.551 381.657 474.278 C347.463 509.262 302.975 529 251 529 C129 529 48 454 48 260 C48 73 129 0 251 0 C302.975 0 347.463 19.0575 381.657 53.2419 C388.298 59.8818 402 55.99 402 46.5985 L402 1 C402 -62 367 -104 278 -104 C229.325 -104 194.262 -92.4294 183.481 -64.2345 C180.747 -57.0847 166.155 -44.1049 158.501 -44.1629 L105.498 -44.5644 C63.1292 -44.8854 42.4927 -59.1117 56.5627 -99.0777 L56.5627 -99.0777 Z M180 261 C180 383 224 430 291 430 C358 430 402 362 402 261 C402 165 358 101 291 101 C224 101 180 146 180 261 L180 261 Z " />
<glyph glyph-name="Hcircumflex" unicode="&#x124;" horiz-adv-x="785" d="M400.703 882.637 C420.609 872.109 452 830 452 830 C452 830 448.919 830 482.832 830 L507.5 830 C532.282 830 544.943 854.85 530.374 874.898 L472.401 954.678 C464.184 965.985 436.675 980 422.698 980 L362.472 980 C348.374 980 320.848 965.9 312.611 954.46 L255.137 874.634 C240.741 854.641 253.363 830 278 830 L309.101 830 C318.015 830 344.046 840.126 350.617 846.149 L386.366 878.918 C392.619 884.651 393.204 886.603 400.703 882.637 L400.703 882.637 Z M700 61.44 L700 688.56 C700 722.473 672.473 750 638.56 750 L626.44 750 C592.527 750 565 722.473 565 688.56 L565 511.44 C565 477.527 537.473 450 503.56 450 L281.44 450 C247.527 450 220 477.527 220 511.44 L220 688.56 C220 722.473 192.473 750 158.56 750 L146.44 750 C112.527 750 85 722.473 85 688.56 L85 61.44 C85 27.527 112.527 0 146.44 0 L158.56 0 C192.473 0 220 27.527 220 61.44 L220 278.56 C220 312.473 247.527 340 281.44 340 L503.56 340 C537.473 340 565 312.473 565 278.56 L565 61.44 C565 27.527 592.527 0 626.44 0 L638.56 0 C672.473 0 700 27.527 700 61.44 L700 61.44 Z " />
<glyph glyph-name="Itilde" unicode="&#x128;" horiz-adv-x="308" d="M76.8387 850.651 C79.206 877.907 86.4595 895 97 895 C131 895 168 821 224 821 C221 821 215 915 215 915 C215 915 219.449 868.529 219.489 868.119 L221.093 851.361 C223.356 827.723 232.034 817.867 254.075 826.703 C288.757 840.606 313.436 879.109 322.346 933.15 C327.043 961.644 309.879 980 281 980 L255.5 980 C245.668 980 236.012 969.144 235.161 959.349 C233.189 936.635 227.823 920.98 219.989 916.392 C214.454 913.151 219.333 910.53 214.868 915.136 C211.459 918.654 142.6 989 88 989 C89.68 989 91.36 972.771 93.04 953.946 C93.041 953.934 93.0221 954.49 93.0211 954.502 L92 966.5 C90.5754 983.239 84.2886 991.566 68.1035 987.064 C27.7414 975.838 -0.728437 933.14 -9.30337 871.546 C-13.1196 844.134 4.32536 830.814 32 830.5 L56.5013 830.222 C66.3421 830.11 75.9871 840.847 76.8387 850.651 L76.8387 850.651 Z M225 62.44 L225 689.56 C225 723.473 197.473 751 163.56 751 L151.44 751 C117.527 751 90 723.473 90 689.56 L90 62.44 C90 28.527 117.527 1 151.44 1 L163.56 1 C197.473 1 225 28.527 225 62.44 L225 62.44 Z " />
<glyph glyph-name="itilde" unicode="&#x129;" horiz-adv-x="298" d="M87.8387 620.651 C90.206 647.907 97.4595 665 108 665 C142 665 179 591 235 591 C232 591 226 685 226 685 C226 685 230.449 638.529 230.489 638.119 L232.093 621.361 C234.356 597.723 243.034 587.867 265.075 596.703 C299.757 610.606 324.436 649.109 333.346 703.15 C338.043 731.644 320.879 750 292 750 L266.5 750 C256.668 750 247.012 739.144 246.161 729.349 C244.189 706.635 238.823 690.98 230.989 686.392 C225.454 683.151 230.333 680.53 225.868 685.136 C222.459 688.654 153.6 759 99 759 C100.68 759 102.36 742.771 104.04 723.946 C104.041 723.934 104.022 724.49 104.021 724.502 L103 736.5 C101.575 753.239 95.2886 761.566 79.1035 757.064 C38.7414 745.838 10.2716 703.14 1.69663 641.546 C-2.11959 614.134 15.3254 600.814 43 600.5 L67.5013 600.222 C77.3421 600.11 86.9871 610.847 87.8387 620.651 L87.8387 620.651 Z M169 1 C202.67 1 230 28.3298 230 62 L230 460 C230 493.67 202.67 521 169 521 C135.33 521 108 493.67 108 460 L108 62 C108 28.3298 135.33 1 169 1 L169 1 Z " />
<glyph glyph-name="Imacron" unicode="&#x12a;" horiz-adv-x="308" d="M58 830 L254 830 C277.183 830 296 848.817 296 872 C296 895.183 277.183 914 254 914 L58 914 C34.8173 914 16 895.183 16 872 C16 848.817 34.8173 830 58 830 L58 830 Z M223 61.44 L223 688.56 C223 722.473 195.473 750 161.56 750 L149.44 750 C115.527 750 88 722.473 88 688.56 L88 61.44 C88 27.527 115.527 0 149.44 0 L161.56 0 C195.473 0 223 27.527 223 61.44 L223 61.44 Z " />
<glyph glyph-name="imacron" unicode="&#x12b;" horiz-adv-x="298" d="M69 600 L265 600 C288.183 600 307 618.817 307 642 C307 665.183 288.183 684 265 684 L69 684 C45.8173 684 27 665.183 27 642 C27 618.817 45.8173 600 69 600 L69 600 Z M167 0 C200.67 0 228 27.3298 228 61 L228 459 C228 492.67 200.67 520 167 520 C133.33 520 106 492.67 106 459 L106 61 C106 27.3298 133.33 0 167 0 L167 0 Z " />
<glyph glyph-name="Ibreve" unicode="&#x12c;" horiz-adv-x="308" d="M9.43823 923.706 C26.2688 860.476 80.925 821 156 821 C231.9 821 286.701 860.476 303.556 923.706 C311.424 953.218 295.543 967 265 967 L237.5 967 C229.846 967 218.684 956.157 216.767 948.747 C209.852 922.016 187.35 905 156 905 C124.65 905 102.148 922.016 95.2326 948.747 C93.3156 956.157 82.1539 967 74.5 967 L48 967 C17.4662 967 1.58426 953.213 9.43823 923.706 L9.43823 923.706 Z M223 61.44 L223 688.56 C223 722.473 195.473 750 161.56 750 L149.44 750 C115.527 750 88 722.473 88 688.56 L88 61.44 C88 27.527 115.527 0 149.44 0 L161.56 0 C195.473 0 223 27.527 223 61.44 L223 61.44 Z " />
<glyph glyph-name="ibreve" unicode="&#x12d;" horiz-adv-x="298" d="M20.4382 693.706 C37.2687 630.476 91.925 591 167 591 C242.9 591 297.701 630.476 314.556 693.706 C322.424 723.218 306.543 737 276 737 L248.5 737 C240.846 737 229.684 726.157 227.767 718.747 C220.852 692.016 198.35 675 167 675 C135.65 675 113.148 692.016 106.233 718.747 C104.316 726.157 93.1539 737 85.5 737 L59 737 C28.4662 737 12.5843 723.213 20.4382 693.706 L20.4382 693.706 Z M167 0 C200.67 0 228 27.3298 228 61 L228 459 C228 492.67 200.67 520 167 520 C133.33 520 106 492.67 106 459 L106 61 C106 27.3298 133.33 0 167 0 L167 0 Z " />
<glyph glyph-name="Idot" unicode="&#x130;" horiz-adv-x="308" d="M151.44 830 L160.56 830 C194.473 830 222 857.527 222 891.44 L222 900.56 C222 934.473 194.473 962 160.56 962 L151.44 962 C117.527 962 90 934.473 90 900.56 L90 891.44 C90 857.527 117.527 830 151.44 830 L151.44 830 Z M223 61.44 L223 688.56 C223 722.473 195.473 750 161.56 750 L149.44 750 C115.527 750 88 722.473 88 688.56 L88 61.44 C88 27.527 115.527 0 149.44 0 L161.56 0 C195.473 0 223 27.527 223 61.44 L223 61.44 Z " />
<glyph glyph-name="dotlessi" unicode="&#x131;" horiz-adv-x="298" d="M167 0 C200.67 0 228 27.3298 228 61 L228 459 C228 492.67 200.67 520 167 520 C133.33 520 106 492.67 106 459 L106 61 C106 27.3298 133.33 0 167 0 L167 0 Z " />
<glyph glyph-name="Jcircumflex" unicode="&#x134;" horiz-adv-x="572" d="M427.703 882.637 C447.609 872.109 479 830 479 830 C479 830 475.919 830 509.832 830 L534.5 830 C559.282 830 571.943 854.85 557.374 874.898 L499.401 954.678 C491.184 965.985 463.675 980 449.698 980 L389.472 980 C375.374 980 347.848 965.9 339.611 954.46 L282.137 874.634 C267.741 854.641 280.363 830 305 830 L336.101 830 C345.015 830 371.046 840.126 377.617 846.149 L413.366 878.918 C419.619 884.651 420.204 886.603 427.703 882.637 L427.703 882.637 Z M47 247 L47 215 C47 60 115 -9 267 -9 C412 -9 487 83 487 220 L487 688.56 C487 722.473 459.473 750 425.56 750 L413.44 750 C379.527 750 352 722.473 352 688.56 L352 220 C352 158 323 116 267 116 C208 116 182 159 182 254 L182 278.5 C182 291.814 170.987 301.042 157.878 298.712 L78.506 284.601 C61.3841 281.557 47 264.39 47 247 L47 247 Z " />
<glyph glyph-name="Lacute" unicode="&#x139;" horiz-adv-x="578" d="M156 830 L177.935 830 C193.167 830 220.823 844.883 229.214 857.596 L266.483 914.066 C286.531 944.44 267.394 980 231 980 L196.005 980 C173.008 980 145.237 960.11 137.835 938.338 L118.705 882.073 C109.452 854.86 127.258 830 156 830 L156 830 Z M493 110 L284.44 110 C250.527 110 223 137.527 223 171.44 L223 688.56 C223 722.473 195.473 750 161.56 750 L149.44 750 C115.527 750 88 722.473 88 688.56 L88 61.44 C88 27.527 115.527 0 149.44 0 L493 0 C523.358 0 548 24.6416 548 55 C548 85.3584 523.358 110 493 110 L493 110 Z " />
<glyph glyph-name="lacute" unicode="&#x13a;" horiz-adv-x="258" d="M96.5 790 L118.75 790 C134.115 790 161.782 804.973 170.186 817.835 L207.065 874.282 C226.905 904.65 207.774 940 171.5 940 L136.728 940 C113.923 940 86.1468 920.231 78.6772 898.684 L59.1786 842.438 C49.6981 815.091 67.5556 790 96.5 790 L96.5 790 Z M188 61 L188 689 C188 722.67 160.67 750 127 750 C93.3298 750 66 722.67 66 689 L66 61 C66 27.3298 93.3298 0 127 0 C160.67 0 188 27.3298 188 61 L188 61 Z " />
<glyph glyph-name="Lcaron" unicode="&#x13d;" horiz-adv-x="578" d="M320.412 697.15 L320.703 653.499 C320.867 628.937 340.938 609 365.5 609 C389.194 609 415.486 629.07 421.733 651.925 L433.73 695.818 C442.925 729.458 420.375 759 385.5 759 L381.851 759 C347.712 759 320.185 731.289 320.412 697.15 L320.412 697.15 Z M493 110 L284.44 110 C250.527 110 223 137.527 223 171.44 L223 688.56 C223 722.473 195.473 750 161.56 750 L149.44 750 C115.527 750 88 722.473 88 688.56 L88 61.44 C88 27.527 115.527 0 149.44 0 L493 0 C523.358 0 548 24.6416 548 55 C548 85.3584 523.358 110 493 110 L493 110 Z " />
<glyph glyph-name="lcaron" unicode="&#x13e;" horiz-adv-x="258" d="M238.412 697.15 L238.7 653.999 C238.866 629.161 259.162 609 284 609 C307.96 609 334.548 629.296 340.865 652.408 L352.598 695.335 C361.864 729.233 339.141 759 304 759 L299.851 759 C265.712 759 238.185 731.289 238.412 697.15 L238.412 697.15 Z M188 61 L188 689 C188 722.67 160.67 750 127 750 C93.3298 750 66 722.67 66 689 L66 61 C66 27.3298 93.3298 0 127 0 C160.67 0 188 27.3298 188 61 L188 61 Z " />
<glyph glyph-name="Lslash" unicode="&#x141;" horiz-adv-x="578" d="M48 290.5 C69.3553 296.106 88 281.724 88 259.645 L88 61.44 C88 27.527 115.527 0 149.44 0 L493 0 C523.358 0 548 24.6416 548 55 C548 85.3584 523.358 110 493 110 L284.44 110 C250.527 110 223 137.527 223 171.44 L223 289.666 C223 314.929 244.341 342.63 268.768 349.074 L342.489 368.522 C365.711 374.648 386 400.983 386 425 C386 449.017 365.711 464.648 342.489 458.522 L300.112 447.342 C258.956 436.485 223 464.187 223 506.75 L223 688.56 C223 722.473 195.473 750 161.56 750 L149.44 750 C115.527 750 88 722.473 88 688.56 L88 432.355 C88 410.276 69.3553 386.106 48 380.5 C26.6447 374.894 8 350.724 8 328.645 L8 321.355 C8 299.276 26.6447 284.894 48 290.5 L48 290.5 Z " />
<glyph glyph-name="lslash" unicode="&#x142;" horiz-adv-x="258" d="M26 294 C46.8393 301.294 66 287.7 66 265.621 L66 61 C66 27.3298 93.3298 0 127 0 C160.67 0 188 27.3298 188 61 L188 309.621 C188 331.7 207.161 358.706 228 366 C248.839 373.294 268 400.3 268 422.379 L268 427.621 C268 449.7 248.839 463.294 228 456 C207.161 448.706 188 462.3 188 484.379 L188 689 C188 722.67 160.67 750 127 750 C93.3298 750 66 722.67 66 689 L66 440.379 C66 418.3 46.8393 391.294 26 384 C5.16074 376.706 -14 349.7 -14 327.621 L-14 322.379 C-14 300.3 5.16074 286.706 26 294 L26 294 Z " />
<glyph glyph-name="Nacute" unicode="&#x143;" horiz-adv-x="755" d="M277.5 830 L299.75 830 C315.115 830 342.782 844.973 351.186 857.835 L388.065 914.282 C407.905 944.65 388.774 980 352.5 980 L317.728 980 C294.923 980 267.147 960.231 259.677 938.684 L240.179 882.438 C230.698 855.091 248.556 830 277.5 830 L277.5 830 Z M419.232 401.187 L252.295 717.254 C243.854 733.237 216.042 750 197.967 750 L146.44 750 C112.527 750 85 722.473 85 688.56 L85 61.44 C85 27.527 112.527 0 146.44 0 L158.56 0 C192.473 0 220 27.527 220 61.44 L220 247 C220 310.689 305.633 331.92 335.385 275.608 L463.703 32.7385 C472.145 16.7608 499.956 0 518.027 0 L608.56 0 C642.473 0 670 27.527 670 61.44 L670 688.56 C670 722.473 642.473 750 608.56 750 L596.44 750 C562.527 750 535 722.473 535 688.56 L535 429.881 C535 365.981 449.076 344.684 419.232 401.187 L419.232 401.187 Z " />
<glyph glyph-name="nacute" unicode="&#x144;" horiz-adv-x="556" d="M280 600 L301.935 600 C317.167 600 344.823 614.883 353.214 627.596 L390.483 684.066 C410.531 714.44 391.394 750 355 750 L320.005 750 C297.008 750 269.237 730.11 261.835 708.338 L242.705 652.073 C233.452 624.86 251.258 600 280 600 L280 600 Z M491 61 L491 315 C491 454 430 525 338 525 C285.2 525 240.568 507.304 208.033 475.842 C201.889 469.901 189 473.355 189 481.902 L189 487 C189 505.215 174.215 520 156 520 L128.5 520 C95.1058 520 68 492.894 68 459.5 L68 60.5 C68 27.1058 95.1058 0 128.5 0 C161.894 0 189 27.1058 189 60.5 L189 317 C189 376 229 415 290 415 C337 415 369 381 369 315 L369 61 C369 27.3298 396.33 0 430 0 C463.67 0 491 27.3298 491 61 L491 61 Z " />
<glyph glyph-name="Ncaron" unicode="&#x147;" horiz-adv-x="755" d="M371.366 931.082 L335.617 963.851 C329.046 969.874 303.015 980 294.101 980 L263 980 C238.363 980 225.741 955.359 240.137 935.366 L297.611 855.54 C305.848 844.1 333.374 830 347.472 830 L407.698 830 C421.675 830 449.184 844.015 457.401 855.322 L515.374 935.102 C529.943 955.15 517.282 980 492.5 980 L467.832 980 C454.261 980 445.064 990.757 436.924 979.899 C435.216 977.62 405.041 937.59 385.703 927.363 C378.204 923.397 377.619 925.349 371.366 931.082 L371.366 931.082 Z M419.232 401.187 L252.295 717.254 C243.854 733.237 216.042 750 197.967 750 L146.44 750 C112.527 750 85 722.473 85 688.56 L85 61.44 C85 27.527 112.527 0 146.44 0 L158.56 0 C192.473 0 220 27.527 220 61.44 L220 247 C220 310.689 305.633 331.92 335.385 275.608 L463.703 32.7385 C472.145 16.7608 499.956 0 518.027 0 L608.56 0 C642.473 0 670 27.527 670 61.44 L670 688.56 C670 722.473 642.473 750 608.56 750 L596.44 750 C562.527 750 535 722.473 535 688.56 L535 429.881 C535 365.981 449.076 344.684 419.232 401.187 L419.232 401.187 Z " />
<glyph glyph-name="ncaron" unicode="&#x148;" horiz-adv-x="556" d="M273.417 701.137 L238.699 733.501 C232.037 739.711 205.911 750 196.804 750 L165.5 750 C140.718 750 128.057 725.15 142.626 705.102 L200.599 625.322 C208.816 614.015 236.325 600 250.302 600 L309.698 600 C323.675 600 351.184 614.015 359.401 625.322 L417.374 705.102 C431.943 725.15 419.282 750 394.5 750 L369.832 750 C356.261 750 347.064 760.757 338.924 749.899 C337.216 747.62 307.041 707.59 287.703 697.363 C280.208 693.399 279.619 695.355 273.417 701.137 L273.417 701.137 Z M491 61 L491 315 C491 454 430 525 338 525 C285.2 525 240.568 507.304 208.033 475.842 C201.889 469.901 189 473.355 189 481.902 L189 487 C189 505.215 174.215 520 156 520 L128.5 520 C95.1058 520 68 492.894 68 459.5 L68 60.5 C68 27.1058 95.1058 0 128.5 0 C161.894 0 189 27.1058 189 60.5 L189 317 C189 376 229 415 290 415 C337 415 369 381 369 315 L369 61 C369 27.3298 396.33 0 430 0 C463.67 0 491 27.3298 491 61 L491 61 Z " />
<glyph glyph-name="Omacron" unicode="&#x14c;" horiz-adv-x="814" d="M309 830 L505 830 C528.183 830 547 848.817 547 872 C547 895.183 528.183 914 505 914 L309 914 C285.817 914 267 895.183 267 872 C267 848.817 285.817 830 309 830 L309 830 Z M200 375 C200 531 289 649 407 649 C525 649 614 531 614 375 C614 211 531 101 407 101 C283 101 200 211 200 375 L200 375 Z M55 375 C55 145 196 -9 407 -9 C618 -9 759 145 759 375 C759 594 608 759 407 759 C206 759 55 594 55 375 L55 375 Z " />
<glyph glyph-name="omacron" unicode="&#x14d;" horiz-adv-x="590" d="M196 600 L392 600 C415.183 600 434 618.817 434 642 C434 665.183 415.183 684 392 684 L196 684 C172.817 684 154 665.183 154 642 C154 618.817 172.817 600 196 600 L196 600 Z M180 260 C180 384 226 439 294 439 C373 439 408 367 408 260 C408 136 362 81 294 81 C215 81 180 153 180 260 L180 260 Z M48 260 C48 99 124 -9 294 -9 C442 -9 540 74 540 260 C540 421 464 529 294 529 C146 529 48 446 48 260 L48 260 Z " />
<glyph glyph-name="Obreve" unicode="&#x14e;" horiz-adv-x="814" d="M260.438 923.706 C277.269 860.476 331.925 821 407 821 C482.9 821 537.701 860.476 554.556 923.706 C562.424 953.218 546.543 967 516 967 L488.5 967 C480.846 967 469.684 956.157 467.767 948.747 C460.852 922.016 438.35 905 407 905 C375.65 905 353.148 922.016 346.233 948.747 C344.316 956.157 333.154 967 325.5 967 L299 967 C268.466 967 252.584 953.213 260.438 923.706 L260.438 923.706 Z M200 375 C200 531 289 649 407 649 C525 649 614 531 614 375 C614 211 531 101 407 101 C283 101 200 211 200 375 L200 375 Z M55 375 C55 145 196 -9 407 -9 C618 -9 759 145 759 375 C759 594 608 759 407 759 C206 759 55 594 55 375 L55 375 Z " />
<glyph glyph-name="obreve" unicode="&#x14f;" horiz-adv-x="590" d="M147.438 693.706 C164.269 630.476 218.925 591 294 591 C369.9 591 424.701 630.476 441.556 693.706 C449.424 723.218 433.543 737 403 737 L375.5 737 C367.846 737 356.684 726.157 354.767 718.747 C347.852 692.016 325.35 675 294 675 C262.65 675 240.148 692.016 233.233 718.747 C231.316 726.157 220.154 737 212.5 737 L186 737 C155.466 737 139.584 723.213 147.438 693.706 L147.438 693.706 Z M180 260 C180 384 226 439 294 439 C373 439 408 367 408 260 C408 136 362 81 294 81 C215 81 180 153 180 260 L180 260 Z M48 260 C48 99 124 -9 294 -9 C442 -9 540 74 540 260 C540 421 464 529 294 529 C146 529 48 446 48 260 L48 260 Z " />
<glyph glyph-name="Racute" unicode="&#x154;" horiz-adv-x="624" d="M337 830 L358.935 830 C374.167 830 401.823 844.883 410.214 857.596 L447.483 914.066 C467.531 944.44 448.394 980 412 980 L377.005 980 C354.008 980 326.237 960.11 318.835 938.338 L299.705 882.073 C290.452 854.86 308.258 830 337 830 L337 830 Z M585.624 59.3159 C541.52 135.674 497.723 212.339 453.57 288.647 C441.341 309.783 457.132 337.819 479.423 347.789 C551.246 379.914 588 439.025 588 524 C588 673 496 749 318 749 L145.44 749 C111.527 749 84 721.473 84 687.56 L84 60.44 C84 26.527 111.527 -1 145.44 -1 L157.56 -1 C191.473 -1 219 26.527 219 60.44 L219 288.5 C219 305.335 232.665 319 249.5 319 C264.094 319 287.928 305.211 295.203 292.559 L446.151 30.0422 C454.723 15.1339 482.61 -0.880702 499.807 -0.770466 L556.37 -0.407887 C586.784 -0.212923 600.836 32.9784 585.624 59.3159 L585.624 59.3159 Z M219 475.5 L219 597 C219 622.943 240.057 644 266 644 L313 644 C405 644 453 603 453 524 C453 458 408 424 322 424 L270.5 424 C242.074 424 219 447.074 219 475.5 L219 475.5 Z " />
<glyph glyph-name="racute" unicode="&#x155;" horiz-adv-x="375" d="M212 600 L233.935 600 C249.167 600 276.823 614.883 285.214 627.596 L322.483 684.066 C342.531 714.44 323.394 750 287 750 L252.005 750 C229.008 750 201.237 730.11 193.835 708.338 L174.705 652.073 C165.452 624.86 183.258 600 212 600 L212 600 Z M355 399.5 L355 479.5 C355 504.964 340.383 520.942 315.167 517.401 C269.103 510.931 234.827 492.262 209.043 460.02 C203.653 453.28 190 457.047 190 465.677 L190 475.5 C190 500.063 170.063 520 145.5 520 L129.5 520 C96.1058 520 69 492.894 69 459.5 L69 60.5 C69 27.1058 96.1058 0 129.5 0 C162.894 0 190 27.1058 190 60.5 L190 227 C190 324 230 389 334 389 L344.5 389 C350.296 389 355 393.704 355 399.5 L355 399.5 Z " />
<glyph glyph-name="Rcaron" unicode="&#x158;" horiz-adv-x="624" d="M330.417 931.137 L295.699 963.501 C289.037 969.711 262.911 980 253.804 980 L222.5 980 C197.718 980 185.057 955.15 199.626 935.102 L257.599 855.322 C265.816 844.015 293.325 830 307.302 830 L366.698 830 C380.675 830 408.184 844.015 416.401 855.322 L474.374 935.102 C488.943 955.15 476.282 980 451.5 980 L426.832 980 C413.261 980 404.064 990.757 395.924 979.899 C394.216 977.62 364.041 937.59 344.703 927.363 C337.208 923.399 336.619 925.355 330.417 931.137 L330.417 931.137 Z M585.624 59.3159 C541.52 135.674 497.723 212.339 453.57 288.647 C441.341 309.783 457.132 337.819 479.423 347.789 C551.246 379.914 588 439.025 588 524 C588 673 496 749 318 749 L145.44 749 C111.527 749 84 721.473 84 687.56 L84 60.44 C84 26.527 111.527 -1 145.44 -1 L157.56 -1 C191.473 -1 219 26.527 219 60.44 L219 288.5 C219 305.335 232.665 319 249.5 319 C264.094 319 287.928 305.211 295.203 292.559 L446.151 30.0422 C454.723 15.1339 482.61 -0.880702 499.807 -0.770466 L556.37 -0.407887 C586.784 -0.212923 600.836 32.9784 585.624 59.3159 L585.624 59.3159 Z M219 475.5 L219 597 C219 622.943 240.057 644 266 644 L313 644 C405 644 453 603 453 524 C453 458 408 424 322 424 L270.5 424 C242.074 424 219 447.074 219 475.5 L219 475.5 Z " />
<glyph glyph-name="rcaron" unicode="&#x159;" horiz-adv-x="375" d="M205.417 701.137 L170.699 733.501 C164.037 739.711 137.911 750 128.804 750 L97.5 750 C72.7178 750 60.0575 725.15 74.6257 705.102 L132.599 625.322 C140.816 614.015 168.325 600 182.302 600 L241.698 600 C255.675 600 283.184 614.015 291.401 625.322 L349.374 705.102 C363.943 725.15 351.282 750 326.5 750 L301.832 750 C288.261 750 279.064 760.757 270.924 749.899 C269.216 747.62 239.041 707.59 219.703 697.363 C212.208 693.399 211.619 695.355 205.417 701.137 L205.417 701.137 Z M355 399.5 L355 479.5 C355 504.964 340.383 520.942 315.167 517.401 C269.103 510.931 234.827 492.262 209.043 460.02 C203.653 453.28 190 457.047 190 465.677 L190 475.5 C190 500.063 170.063 520 145.5 520 L129.5 520 C96.1058 520 69 492.894 69 459.5 L69 60.5 C69 27.1058 96.1058 0 129.5 0 C162.894 0 190 27.1058 190 60.5 L190 227 C190 324 230 389 334 389 L344.5 389 C350.296 389 355 393.704 355 399.5 L355 399.5 Z " />
<glyph glyph-name="Sacute" unicode="&#x15a;" horiz-adv-x="632" d="M304.5 830 L326.75 830 C342.115 830 369.782 844.973 378.186 857.835 L415.065 914.282 C434.905 944.65 415.774 980 379.5 980 L344.728 980 C321.923 980 294.147 960.231 286.677 938.684 L267.179 882.438 C257.698 855.091 275.556 830 304.5 830 L304.5 830 Z M530.828 670.842 C458.972 729.052 369.625 759 283 759 C134 759 35 673 35 545 C35 424 123 347 295 318 C405 299 462 261 462 205 C462 147 420 109 338 109 C275.3 109 215.322 139.628 173.79 198.638 C161.191 216.539 129.04 225.419 111.07 212.918 L77.3814 189.483 C48.8122 169.608 41.9517 141.358 62.5681 113.319 C122.228 32.1825 223.25 -9 338 -9 C509 -9 597 79 597 210 C597 341 507 424 331 454 C227 472 174 508 174 560 C174 607 218 639 283 639 C336.625 639 395.695 616.539 446.734 573.303 C462.262 560.148 494.397 557.859 509.477 571.526 L531.508 591.491 C558.558 616.005 559.193 647.863 530.828 670.842 L530.828 670.842 Z " />
<glyph glyph-name="sacute" unicode="&#x15b;" horiz-adv-x="501" d="M257 600 L278.935 600 C294.167 600 321.823 614.883 330.214 627.596 L367.483 684.066 C387.531 714.44 368.394 750 332 750 L297.005 750 C274.008 750 246.237 730.11 238.835 708.338 L219.705 652.073 C210.452 624.86 228.258 600 257 600 L257 600 Z M30 117 C65 44 153 -4 256 -4 C384 -4 470 55 470 143 C470 226 402 292 270 314 C205 325 172 353 172 388 C172 416 206 435 256 435 C290.2 435 328.01 402.51 352.282 352.105 C354.432 347.641 359.942 345.621 364.495 347.574 C378.639 353.639 392.667 360.167 406 366 L430.5 377 C445.493 383.731 451.028 397.607 442.678 411.762 C402.16 480.45 330.7 525 256 525 C136 525 56 466 56 377 C56 293 119 226 241 206 C313 194 350 166 350 132 C350 107 312 90 256 90 C204.7 90 158.815 119.783 138.065 164.772 C135.957 169.342 131.308 170.563 126.629 168.709 C111.178 162.586 95.2308 156.077 80 151 L24 129 C24 128 29.5 117 29.5 117 L30 117 Z " />
<glyph glyph-name="Scircumflex" unicode="&#x15c;" horiz-adv-x="632" d="M312.703 882.637 C332.609 872.109 364 830 364 830 C364 830 360.919 830 394.832 830 L419.5 830 C444.282 830 456.943 854.85 442.374 874.898 L384.401 954.678 C376.184 965.985 348.675 980 334.698 980 L274.472 980 C260.374 980 232.848 965.9 224.611 954.46 L167.137 874.634 C152.741 854.641 165.363 830 190 830 L221.101 830 C230.015 830 256.046 840.126 262.617 846.149 L298.366 878.918 C304.619 884.651 305.204 886.603 312.703 882.637 L312.703 882.637 Z M530.828 670.842 C458.972 729.052 369.625 759 283 759 C134 759 35 673 35 545 C35 424 123 347 295 318 C405 299 462 261 462 205 C462 147 420 109 338 109 C275.3 109 215.322 139.628 173.79 198.638 C161.191 216.539 129.04 225.419 111.07 212.918 L77.3814 189.483 C48.8122 169.608 41.9517 141.358 62.5681 113.319 C122.228 32.1825 223.25 -9 338 -9 C509 -9 597 79 597 210 C597 341 507 424 331 454 C227 472 174 508 174 560 C174 607 218 639 283 639 C336.625 639 395.695 616.539 446.734 573.303 C462.262 560.148 494.397 557.859 509.477 571.526 L531.508 591.491 C558.558 616.005 559.193 647.863 530.828 670.842 L530.828 670.842 Z " />
<glyph glyph-name="Scedilla" unicode="&#x15e;" horiz-adv-x="632" d="M314 -121 L314 -120 C314 -121 314 -121 314 -121 L314 -121 Z M315.892 -116.441 C320.476 -109.356 330.867 -105 343 -105 C364 -105 378 -123 378 -150 C378 -177 363 -195 340 -195 C318.875 -195 305.012 -184.438 302.165 -167.067 C301.469 -162.824 295.434 -159.061 292.029 -161.686 L268.738 -179.64 C256.762 -188.871 251.284 -194.703 255.397 -209.253 C262.954 -235.984 295.15 -253 343 -253 C405 -253 446 -212 446 -150 C446 -88 409 -46 354 -46 C346.636 -46 339.942 -48.0083 333.917 -51.4771 C332.626 -52.2203 330.668 -51.2689 331.021 -49.8219 L335.5 -31.5 C338.244 -20.2758 354.2 -8.89089 365.734 -8.20313 C518.482 0.905 597 86.5 597 210 C597 341 507 424 331 454 C227 472 174 508 174 560 C174 607 218 639 283 639 C336.625 639 395.695 616.539 446.734 573.303 C462.262 560.148 494.397 557.859 509.477 571.526 L531.508 591.491 C558.558 616.005 559.193 647.863 530.828 670.842 C458.972 729.052 369.625 759 283 759 C134 759 35 673 35 545 C35 424 123 347 295 318 C405 299 462 261 462 205 C462 147 420 109 338 109 C275.3 109 215.322 139.628 173.79 198.638 C161.191 216.539 129.04 225.419 111.07 212.918 L77.419 189.509 C49.3067 169.953 39.7818 145.51 59.6127 117.591 C104.661 54.1697 174.886 14.4805 257.332 -1.0957 C280.678 -5.50634 295.469 -30.3792 290 -53.5 L281.548 -89.2293 C280.745 -92.623 277.849 -96.803 279.03 -100.084 C279.449 -101.249 284.439 -114.177 301.057 -119.106 C310.478 -121.901 315.79 -117.575 318 -108 L319.982 -99.4117 C320.047 -99.1288 320.326 -99.6428 320.274 -99.9286 C319.238 -105.666 317.613 -111.239 316.172 -115.356 C316.132 -115.472 315.826 -116.543 315.892 -116.441 L315.892 -116.441 Z " />
<glyph glyph-name="scedilla" unicode="&#x15f;" horiz-adv-x="501" d="M233 -121 L233 -119 C233 -120 233 -121 233 -121 L233 -121 Z M234.892 -116.441 C239.476 -109.356 249.867 -105 262 -105 C283 -105 297 -123 297 -150 C297 -177 282 -195 259 -195 C237.875 -195 224.012 -184.438 221.165 -167.067 C220.469 -162.824 214.434 -159.061 211.029 -161.686 L187.738 -179.64 C175.762 -188.871 170.284 -194.703 174.397 -209.253 C181.954 -235.984 214.15 -253 262 -253 C324 -253 365 -212 365 -150 C365 -88 328 -46 273 -46 C266.455 -46 259.909 -48.0083 253.911 -51.4771 C252.642 -52.2113 250.713 -51.2566 251.082 -49.8372 L256.5 -29 C259.639 -16.9271 277.763 -3.69922 290.19 -2.61639 C398.983 6.86313 470 62.525 470 143 C470 226 402 292 270 314 C205 325 172 353 172 388 C172 416 206 435 256 435 C290.2 435 328.01 402.51 352.282 352.105 C354.432 347.641 359.942 345.621 364.495 347.574 C378.639 353.639 392.667 360.167 406 366 L430.5 377 C445.493 383.731 451.028 397.607 442.678 411.762 C402.16 480.45 330.7 525 256 525 C136 525 56 466 56 377 C56 293 119 226 241 206 C313 194 350 166 350 132 C350 107 312 90 256 90 C204.7 90 158.815 119.783 138.065 164.772 C135.957 169.342 131.308 170.563 126.629 168.709 C111.178 162.586 95.2308 156.077 80 151 L24 129 C25 126 29 121 29 117 C54.575 63.375 108.736 23.3625 176.323 5.94675 C196.654 0.707744 215.257 -24.513 210.067 -44.857 L198.561 -89.9623 C197.703 -93.3241 194.776 -96.8432 196.03 -100.078 C196.469 -101.212 201.924 -114.332 220.511 -118.343 C228.943 -120.162 232.948 -115.629 235 -107.25 L237.041 -98.9154 C237.102 -98.6652 237.337 -99.6257 237.296 -99.88 C236.372 -105.62 235.154 -111.36 234.328 -115.385 C234.255 -115.742 234.694 -116.746 234.892 -116.441 L234.892 -116.441 Z " />
<glyph glyph-name="Scaron" unicode="&#x160;" horiz-adv-x="632" d="M298.366 931.082 L262.617 963.851 C256.046 969.874 230.015 980 221.101 980 L190 980 C165.363 980 152.741 955.359 167.137 935.366 L224.611 855.54 C232.848 844.1 260.374 830 274.472 830 L334.698 830 C348.675 830 376.184 844.015 384.401 855.322 L442.374 935.102 C456.943 955.15 444.282 980 419.5 980 L394.832 980 C381.261 980 372.064 990.757 363.924 979.899 C362.216 977.62 332.041 937.59 312.703 927.363 C305.204 923.397 304.619 925.349 298.366 931.082 L298.366 931.082 Z M530.828 670.842 C458.972 729.052 369.625 759 283 759 C134 759 35 673 35 545 C35 424 123 347 295 318 C405 299 462 261 462 205 C462 147 420 109 338 109 C275.3 109 215.322 139.628 173.79 198.638 C161.191 216.539 129.04 225.419 111.07 212.918 L77.3814 189.483 C48.8122 169.608 41.9517 141.358 62.5681 113.319 C122.228 32.1825 223.25 -9 338 -9 C509 -9 597 79 597 210 C597 341 507 424 331 454 C227 472 174 508 174 560 C174 607 218 639 283 639 C336.625 639 395.695 616.539 446.734 573.303 C462.262 560.148 494.397 557.859 509.477 571.526 L531.508 591.491 C558.558 616.005 559.193 647.863 530.828 670.842 L530.828 670.842 Z " />
<glyph glyph-name="scaron" unicode="&#x161;" horiz-adv-x="501" d="M250.417 701.137 L215.699 733.501 C209.037 739.711 182.911 750 173.804 750 L142.5 750 C117.718 750 105.057 725.15 119.626 705.102 L177.599 625.322 C185.816 614.015 213.325 600 227.302 600 L286.698 600 C300.675 600 328.184 614.015 336.401 625.322 L394.374 705.102 C408.943 725.15 396.282 750 371.5 750 L346.832 750 C333.261 750 324.064 760.757 315.924 749.899 C314.216 747.62 284.041 707.59 264.703 697.363 C257.208 693.399 256.619 695.355 250.417 701.137 L250.417 701.137 Z M30 117 C65 44 153 -4 256 -4 C384 -4 470 55 470 143 C470 226 402 292 270 314 C205 325 172 353 172 388 C172 416 206 435 256 435 C290.2 435 328.01 402.51 352.282 352.105 C354.432 347.641 359.942 345.621 364.495 347.574 C378.639 353.639 392.667 360.167 406 366 L430.5 377 C445.493 383.731 451.028 397.607 442.678 411.762 C402.16 480.45 330.7 525 256 525 C136 525 56 466 56 377 C56 293 119 226 241 206 C313 194 350 166 350 132 C350 107 312 90 256 90 C204.7 90 158.815 119.783 138.065 164.772 C135.957 169.342 131.308 170.563 126.629 168.709 C111.178 162.586 95.2308 156.077 80 151 L24 129 C24 128 29.5 117 29.5 117 L30 117 Z " />
<glyph glyph-name="Tcaron" unicode="&#x164;" horiz-adv-x="595" d="M291.417 931.137 L256.699 963.501 C250.037 969.711 223.911 980 214.804 980 L183.5 980 C158.718 980 146.057 955.15 160.626 935.102 L218.599 855.322 C226.816 844.015 254.325 830 268.302 830 L327.698 830 C341.675 830 369.184 844.015 377.401 855.322 L435.374 935.102 C449.943 955.15 437.282 980 412.5 980 L387.832 980 C374.261 980 365.064 990.757 356.924 979.899 C355.216 977.62 325.041 937.59 305.703 927.363 C298.208 923.399 297.619 925.355 291.417 931.137 L291.417 931.137 Z M365 61.44 L365 578.56 C365 612.473 392.527 640 426.44 640 L530 640 C560.358 640 585 664.642 585 695 C585 725.358 560.358 750 530 750 L65 750 C34.6416 750 10 725.358 10 695 C10 664.642 34.6416 640 65 640 L168.56 640 C202.473 640 230 612.473 230 578.56 L230 61.44 C230 27.527 257.527 0 291.44 0 L303.56 0 C337.473 0 365 27.527 365 61.44 L365 61.44 Z " />
<glyph glyph-name="tcaron" unicode="&#x165;" horiz-adv-x="345" d="M258.412 697.15 L258.7 653.999 C258.866 629.161 279.162 609 304 609 C327.96 609 354.548 629.296 360.865 652.408 L372.598 695.335 C381.864 729.233 359.141 759 324 759 L319.851 759 C285.712 759 258.185 731.289 258.412 697.15 L258.412 697.15 Z M267.5 520 L261.5 520 C231.97 520 208 543.97 208 573.5 L208 677.872 C208 711.266 173.033 727.523 147.5 706 L108.84 673.411 C99.6232 665.641 87 638.49 87 626.435 L87 558.5 C87 537.249 69.7508 520 48.5 520 C27.2492 520 10 502.751 10 481.5 L10 463.5 C10 442.249 27.2492 425 48.5 425 C69.7508 425 87 407.751 87 386.5 L87 146 C87 37 92 0 201 0 L265.5 0 C292.823 0 315 22.1775 315 49.5 L315 68.5 C315 85.3351 301.335 99 284.5 99 L254 99 C210 99 208 111 208 146 L208 371.5 C208 401.03 231.97 425 261.5 425 L267.5 425 C293.719 425 315 446.281 315 472.5 C315 498.719 293.719 520 267.5 520 L267.5 520 Z " />
<glyph glyph-name="Utilde" unicode="&#x168;" horiz-adv-x="738" d="M288.839 841.651 C291.206 868.907 298.459 886 309 886 C343 886 380 812 436 812 C433 812 427 906 427 906 C427 906 431.449 859.529 431.489 859.119 L433.093 842.361 C435.356 818.723 444.034 808.867 466.075 817.703 C500.757 831.606 525.436 870.109 534.346 924.15 C539.043 952.644 521.879 971 493 971 L467.5 971 C457.668 971 448.012 960.144 447.161 950.349 C445.189 927.635 439.823 911.98 431.989 907.392 C426.454 904.151 431.333 901.53 426.868 906.136 C423.459 909.654 354.6 980 300 980 C301.68 980 303.36 963.771 305.04 944.946 C305.041 944.934 305.022 945.49 305.021 945.502 L304 957.5 C302.575 974.239 296.289 982.566 280.104 978.064 C239.741 966.838 211.272 924.14 202.697 862.546 C198.88 835.134 216.325 821.814 244 821.5 L268.501 821.222 C278.342 821.11 287.987 831.847 288.839 841.651 L288.839 841.651 Z M80 290 C80 93 179 -8 370 -8 C561 -8 660 93 660 290 L660 689.56 C660 723.473 632.473 751 598.56 751 L586.44 751 C552.527 751 525 723.473 525 689.56 L525 314 C525 184 472 117 370 117 C268 117 215 184 215 314 L215 689.56 C215 723.473 187.473 751 153.56 751 L141.44 751 C107.527 751 80 723.473 80 689.56 L80 290 L80 290 Z " />
<glyph glyph-name="utilde" unicode="&#x169;" horiz-adv-x="554" d="M194.839 620.651 C197.206 647.907 204.459 665 215 665 C249 665 286 591 342 591 C339 591 333 685 333 685 C333 685 337.449 638.529 337.489 638.119 L339.093 621.361 C341.356 597.723 350.034 587.867 372.075 596.703 C406.757 610.606 431.436 649.109 440.346 703.15 C445.043 731.644 427.879 750 399 750 L373.5 750 C363.668 750 354.012 739.144 353.161 729.349 C351.189 706.635 345.823 690.98 337.989 686.392 C332.454 683.151 337.333 680.53 332.868 685.136 C329.459 688.654 260.6 759 206 759 C207.68 759 209.36 742.771 211.04 723.946 C211.041 723.934 211.022 724.49 211.021 724.502 L210 736.5 C208.575 753.239 202.289 761.566 186.104 757.064 C145.741 745.838 117.272 703.14 108.697 641.546 C104.88 614.134 122.325 600.814 150 600.5 L174.501 600.222 C184.342 600.11 193.987 610.847 194.839 620.651 L194.839 620.651 Z M486 61.5 L486 460.5 C486 493.894 458.894 521 425.5 521 C392.106 521 365 493.894 365 460.5 L365 218 C365 148 325 102 265 102 C204 102 187 137 187 204 L187 460.5 C187 493.894 159.894 521 126.5 521 C93.1058 521 66 493.894 66 460.5 L66 204 C66 64 101 -8 227 -8 C276.5 -8 317.832 13.0994 347.628 50.806 C352.516 56.9918 365 53.997 365 46.1131 L365 39 C365 18.0251 382.025 1 403 1 L425.5 1 C458.894 1 486 28.1058 486 61.5 L486 61.5 Z " />
<glyph glyph-name="Umacron" unicode="&#x16a;" horiz-adv-x="738" d="M270 821 L466 821 C489.183 821 508 839.817 508 863 C508 886.183 489.183 905 466 905 L270 905 C246.817 905 228 886.183 228 863 C228 839.817 246.817 821 270 821 L270 821 Z M78 289 C78 92 177 -9 368 -9 C559 -9 658 92 658 289 L658 688.56 C658 722.473 630.473 750 596.56 750 L584.44 750 C550.527 750 523 722.473 523 688.56 L523 313 C523 183 470 116 368 116 C266 116 213 183 213 313 L213 688.56 C213 722.473 185.473 750 151.56 750 L139.44 750 C105.527 750 78 722.473 78 688.56 L78 289 L78 289 Z " />
<glyph glyph-name="umacron" unicode="&#x16b;" horiz-adv-x="554" d="M176 600 L372 600 C395.183 600 414 618.817 414 642 C414 665.183 395.183 684 372 684 L176 684 C152.817 684 134 665.183 134 642 C134 618.817 152.817 600 176 600 L176 600 Z M484 60.5 L484 459.5 C484 492.894 456.894 520 423.5 520 C390.106 520 363 492.894 363 459.5 L363 217 C363 147 323 101 263 101 C202 101 185 136 185 203 L185 459.5 C185 492.894 157.894 520 124.5 520 C91.1058 520 64 492.894 64 459.5 L64 203 C64 63 99 -9 225 -9 C274.5 -9 315.832 12.0994 345.628 49.806 C350.516 55.9918 363 52.997 363 45.1131 L363 38 C363 17.0251 380.025 0 401 0 L423.5 0 C456.894 0 484 27.1058 484 60.5 L484 60.5 Z " />
<glyph glyph-name="Ubreve" unicode="&#x16c;" horiz-adv-x="738" d="M221.438 914.706 C238.269 851.476 292.925 812 368 812 C443.9 812 498.701 851.476 515.556 914.706 C523.424 944.218 507.543 958 477 958 L449.5 958 C441.846 958 430.684 947.157 428.767 939.747 C421.852 913.016 399.35 896 368 896 C336.65 896 314.148 913.016 307.233 939.747 C305.316 947.157 294.154 958 286.5 958 L260 958 C229.466 958 213.584 944.213 221.438 914.706 L221.438 914.706 Z M78 289 C78 92 177 -9 368 -9 C559 -9 658 92 658 289 L658 688.56 C658 722.473 630.473 750 596.56 750 L584.44 750 C550.527 750 523 722.473 523 688.56 L523 313 C523 183 470 116 368 116 C266 116 213 183 213 313 L213 688.56 C213 722.473 185.473 750 151.56 750 L139.44 750 C105.527 750 78 722.473 78 688.56 L78 289 L78 289 Z " />
<glyph glyph-name="ubreve" unicode="&#x16d;" horiz-adv-x="554" d="M127.438 693.706 C144.269 630.476 198.925 591 274 591 C349.9 591 404.701 630.476 421.556 693.706 C429.424 723.218 413.543 737 383 737 L355.5 737 C347.846 737 336.684 726.157 334.767 718.747 C327.852 692.016 305.35 675 274 675 C242.65 675 220.148 692.016 213.233 718.747 C211.316 726.157 200.154 737 192.5 737 L166 737 C135.466 737 119.584 723.213 127.438 693.706 L127.438 693.706 Z M484 60.5 L484 459.5 C484 492.894 456.894 520 423.5 520 C390.106 520 363 492.894 363 459.5 L363 217 C363 147 323 101 263 101 C202 101 185 136 185 203 L185 459.5 C185 492.894 157.894 520 124.5 520 C91.1058 520 64 492.894 64 459.5 L64 203 C64 63 99 -9 225 -9 C274.5 -9 315.832 12.0994 345.628 49.806 C350.516 55.9918 363 52.997 363 45.1131 L363 38 C363 17.0251 380.025 0 401 0 L423.5 0 C456.894 0 484 27.1058 484 60.5 L484 60.5 Z " />
<glyph glyph-name="Uring" unicode="&#x16e;" horiz-adv-x="738" d="M342 906 C342 924 352 934 368 934 C384 934 394 924 394 906 C394 887 385 877 368 877 C351 877 342 887 342 906 L342 906 Z M282 906 C282 850 311 821 368 821 C425 821 454 850 454 906 C454 959 422 990 368 990 C314 990 282 959 282 906 L282 906 Z M78 289 C78 92 177 -9 368 -9 C559 -9 658 92 658 289 L658 688.56 C658 722.473 630.473 750 596.56 750 L584.44 750 C550.527 750 523 722.473 523 688.56 L523 313 C523 183 470 116 368 116 C266 116 213 183 213 313 L213 688.56 C213 722.473 185.473 750 151.56 750 L139.44 750 C105.527 750 78 722.473 78 688.56 L78 289 L78 289 Z " />
<glyph glyph-name="uring" unicode="&#x16f;" horiz-adv-x="554" d="M248 685 C248 703 258 713 274 713 C290 713 300 703 300 685 C300 666 291 656 274 656 C257 656 248 666 248 685 L248 685 Z M188 685 C188 629 217 600 274 600 C331 600 360 629 360 685 C360 738 328 769 274 769 C220 769 188 738 188 685 L188 685 Z M484 60.5 L484 459.5 C484 492.894 456.894 520 423.5 520 C390.106 520 363 492.894 363 459.5 L363 217 C363 147 323 101 263 101 C202 101 185 136 185 203 L185 459.5 C185 492.894 157.894 520 124.5 520 C91.1058 520 64 492.894 64 459.5 L64 203 C64 63 99 -9 225 -9 C274.5 -9 315.832 12.0994 345.628 49.806 C350.516 55.9918 363 52.997 363 45.1131 L363 38 C363 17.0251 380.025 0 401 0 L423.5 0 C456.894 0 484 27.1058 484 60.5 L484 60.5 Z " />
<glyph glyph-name="Wcircumflex" unicode="&#x174;" horiz-adv-x="830" d="M422.703 882.637 C442.609 872.109 474 830 474 830 C474 830 470.919 830 504.832 830 L529.5 830 C554.282 830 566.943 854.85 552.374 874.898 L494.401 954.678 C486.184 965.985 458.675 980 444.698 980 L385.302 980 C371.325 980 343.816 965.985 335.599 954.678 L277.626 874.898 C263.057 854.85 275.718 830 300.5 830 L331.804 830 C340.911 830 367.037 840.289 373.699 846.499 L408.417 878.863 C414.619 884.645 415.208 886.601 422.703 882.637 L422.703 882.637 Z M12.0947 740.733 C15.124 726.851 17.7273 713.091 21 700 L155.855 48.9777 C161.338 22.5055 188.983 0 216.017 0 L247.86 0 C273.66 0 301.344 21.691 307.516 46.7421 L355.585 241.844 C370.65 302.989 458.294 302.732 473 241.5 L519.69 47.0922 C525.76 21.8174 553.438 0 579.431 0 L611.257 0 C638.113 0 665.763 22.3864 671.352 48.6539 L811 705 L816 724 L818.5 736.5 C819.853 743.266 815.152 749 808.252 749 L688.748 749 C681.848 749 674.853 743.266 673.5 736.5 L671 724 C668 709 667 699 667 699 L629.5 492 C621.173 446.034 553.924 444.164 543.056 489.596 L492.278 701.855 C486.224 727.163 458.547 749 432.524 749 L399.782 749 C373.557 749 345.886 727.031 339.941 701.488 L291.421 493.03 C280.711 447.016 212.626 448.55 204 495 L165 705 L161 724 L158.5 736.5 C157.149 743.256 150.143 749.04 143.253 749.087 L18.7319 749.94 C14.1079 749.972 11.1088 745.251 12.0947 740.733 L12.0947 740.733 Z " />
<glyph glyph-name="Ycircumflex" unicode="&#x176;" horiz-adv-x="629" d="M324.703 882.637 C344.609 872.109 376 830 376 830 C376 830 372.919 830 406.832 830 L431.5 830 C456.282 830 468.943 854.85 454.374 874.898 L396.401 954.678 C388.184 965.985 360.675 980 346.698 980 L287.302 980 C273.325 980 245.816 965.985 237.599 954.678 L179.626 874.898 C165.057 854.85 177.718 830 202.5 830 L233.804 830 C242.911 830 269.037 840.289 275.699 846.499 L310.417 878.863 C316.619 884.645 317.208 886.601 324.703 882.637 L324.703 882.637 Z M310.44 0 L323.56 0 C357.473 0 385 27.527 385 61.44 L385 314.035 C385 318.325 390.684 340.198 392.772 343.946 L594 705 L603 722 L611 736.5 C614.866 743.508 610.443 751 602.44 751 L502.358 751 C493.523 751 488.262 758.581 483.933 750.88 C482.732 748.745 465.857 718.714 462 711 L370.899 544.505 C345.843 498.714 288.157 498.714 263.101 544.505 L172 711 C168 719 150 751 150 751 C150 751 148.968 751 131.642 751 L31.5605 751 C23.5569 751 19.1337 743.508 23 736.5 L31 722 L40 705 L241.228 343.946 C243.316 340.198 249 318.325 249 314.035 L249 61.44 C249 27.527 276.527 0 310.44 0 L310.44 0 Z " />
<glyph glyph-name="Ydieresis" unicode="&#x178;" horiz-adv-x="629" d="M394.44 830 L402.56 830 C436.473 830 464 857.527 464 891.44 L464 900.56 C464 934.473 436.473 962 402.56 962 L394.44 962 C360.527 962 333 934.473 333 900.56 L333 891.44 C333 857.527 360.527 830 394.44 830 L394.44 830 Z M231.44 830 L239.56 830 C273.473 830 301 857.527 301 891.44 L301 900.56 C301 934.473 273.473 962 239.56 962 L231.44 962 C197.527 962 170 934.473 170 900.56 L170 891.44 C170 857.527 197.527 830 231.44 830 L231.44 830 Z M310.44 0 L323.56 0 C357.473 0 385 27.527 385 61.44 L385 314.035 C385 318.325 390.684 340.198 392.772 343.946 L594 705 L603 722 L611 736.5 C614.866 743.508 610.443 751 602.44 751 L502.358 751 C493.523 751 488.262 758.581 483.933 750.88 C482.732 748.745 465.857 718.714 462 711 L370.899 544.505 C345.843 498.714 288.157 498.714 263.101 544.505 L172 711 C168 719 150 751 150 751 C150 751 148.968 751 131.642 751 L31.5605 751 C23.5569 751 19.1337 743.508 23 736.5 L31 722 L40 705 L241.228 343.946 C243.316 340.198 249 318.325 249 314.035 L249 61.44 C249 27.527 276.527 0 310.44 0 L310.44 0 Z " />
<glyph glyph-name="Zacute" unicode="&#x179;" horiz-adv-x="655" d="M335 830 L356.935 830 C372.167 830 399.823 844.883 408.214 857.596 L445.483 914.066 C465.531 944.44 446.394 980 410 980 L375.005 980 C352.008 980 324.237 960.11 316.835 938.338 L297.705 882.073 C288.452 854.86 306.258 830 335 830 L335 830 Z M555 110 L334.973 110 C280.696 110 253.25 164.932 285.843 208.334 L597.69 623.607 C601.77 629.04 610 653.706 610 660.501 L610 695 C610 725.358 585.358 750 555 750 L115 750 C84.6416 750 60 725.358 60 695 C60 664.642 84.6416 640 115 640 L319.213 640 C373.457 640 400.907 585.141 368.387 541.726 L57.2657 126.375 C53.2068 120.956 45 96.3109 45 89.5406 L45 55 C45 24.6416 69.6416 0 100 0 L555 0 C585.358 0 610 24.6416 610 55 C610 85.3584 585.358 110 555 110 L555 110 Z " />
<glyph glyph-name="zacute" unicode="&#x17a;" horiz-adv-x="460" d="M242.5 600 L264.75 600 C280.115 600 307.782 614.973 316.186 627.835 L353.065 684.282 C372.905 714.65 353.774 750 317.5 750 L282.728 750 C259.923 750 232.147 730.231 224.677 708.684 L205.179 652.438 C195.698 625.091 213.556 600 242.5 600 L242.5 600 Z M92.5 425 L158 425 C209.419 425 236.143 374.234 207.039 331.845 L40.7898 89.7146 C37.4187 84.8049 30 60.8934 30 54.9377 L30 37 C30 16.5771 46.5771 0 67 0 L392.5 0 C418.719 0 440 21.2814 440 47.5 C440 73.7186 418.719 95 392.5 95 L296.088 95 C242.711 95 215.14 147.992 245.774 191.702 L412.873 430.124 C416.398 435.154 424 459.245 424 465.387 L424 483 C424 503.423 407.423 520 387 520 L92.5 520 C66.2814 520 45 498.719 45 472.5 C45 446.281 66.2814 425 92.5 425 L92.5 425 Z " />
<glyph glyph-name="Zdot" unicode="&#x17b;" horiz-adv-x="655" d="M330.44 830 L339.56 830 C373.473 830 401 857.527 401 891.44 L401 900.56 C401 934.473 373.473 962 339.56 962 L330.44 962 C296.527 962 269 934.473 269 900.56 L269 891.44 C269 857.527 296.527 830 330.44 830 L330.44 830 Z M555 110 L334.973 110 C280.696 110 253.25 164.932 285.843 208.334 L597.69 623.607 C601.77 629.04 610 653.706 610 660.501 L610 695 C610 725.358 585.358 750 555 750 L115 750 C84.6416 750 60 725.358 60 695 C60 664.642 84.6416 640 115 640 L319.213 640 C373.457 640 400.907 585.141 368.387 541.726 L57.2657 126.375 C53.2068 120.956 45 96.3109 45 89.5406 L45 55 C45 24.6416 69.6416 0 100 0 L555 0 C585.358 0 610 24.6416 610 55 C610 85.3584 585.358 110 555 110 L555 110 Z " />
<glyph glyph-name="zdot" unicode="&#x17c;" horiz-adv-x="460" d="M238.44 600 L246.56 600 C280.473 600 308 627.527 308 661.44 L308 670.56 C308 704.473 280.473 732 246.56 732 L238.44 732 C204.527 732 177 704.473 177 670.56 L177 661.44 C177 627.527 204.527 600 238.44 600 L238.44 600 Z M92.5 425 L158 425 C209.419 425 236.143 374.234 207.039 331.845 L40.7898 89.7146 C37.4187 84.8049 30 60.8934 30 54.9377 L30 37 C30 16.5771 46.5771 0 67 0 L392.5 0 C418.719 0 440 21.2814 440 47.5 C440 73.7186 418.719 95 392.5 95 L296.088 95 C242.711 95 215.14 147.992 245.774 191.702 L412.873 430.124 C416.398 435.154 424 459.245 424 465.387 L424 483 C424 503.423 407.423 520 387 520 L92.5 520 C66.2814 520 45 498.719 45 472.5 C45 446.281 66.2814 425 92.5 425 L92.5 425 Z " />
<glyph glyph-name="Zcaron" unicode="&#x17d;" horiz-adv-x="655" d="M328.417 931.137 L293.699 963.501 C287.037 969.711 260.911 980 251.804 980 L220.5 980 C195.718 980 183.057 955.15 197.626 935.102 L255.599 855.322 C263.816 844.015 291.325 830 305.302 830 L364.698 830 C378.675 830 406.184 844.015 414.401 855.322 L472.374 935.102 C486.943 955.15 474.282 980 449.5 980 L424.832 980 C411.261 980 402.064 990.757 393.924 979.899 C392.216 977.62 362.041 937.59 342.703 927.363 C335.208 923.399 334.619 925.355 328.417 931.137 L328.417 931.137 Z M555 110 L334.973 110 C280.696 110 253.25 164.932 285.843 208.334 L597.69 623.607 C601.77 629.04 610 653.706 610 660.501 L610 695 C610 725.358 585.358 750 555 750 L115 750 C84.6416 750 60 725.358 60 695 C60 664.642 84.6416 640 115 640 L319.213 640 C373.457 640 400.907 585.141 368.387 541.726 L57.2657 126.375 C53.2068 120.956 45 96.3109 45 89.5406 L45 55 C45 24.6416 69.6416 0 100 0 L555 0 C585.358 0 610 24.6416 610 55 C610 85.3584 585.358 110 555 110 L555 110 Z " />
<glyph glyph-name="zcaron" unicode="&#x17e;" horiz-adv-x="460" d="M236.366 701.082 L200.617 733.851 C194.046 739.874 168.015 750 159.101 750 L128 750 C103.363 750 90.7413 725.359 105.137 705.366 L162.611 625.54 C170.848 614.1 198.374 600 212.472 600 L272.698 600 C286.675 600 314.184 614.015 322.401 625.322 L380.374 705.102 C394.943 725.15 382.282 750 357.5 750 L332.832 750 C319.261 750 310.064 760.757 301.924 749.899 C300.216 747.62 270.041 707.59 250.703 697.363 C243.204 693.397 242.619 695.349 236.366 701.082 L236.366 701.082 Z M92.5 425 L158 425 C209.419 425 236.143 374.234 207.039 331.845 L40.7898 89.7146 C37.4187 84.8049 30 60.8934 30 54.9377 L30 37 C30 16.5771 46.5771 0 67 0 L392.5 0 C418.719 0 440 21.2814 440 47.5 C440 73.7186 418.719 95 392.5 95 L296.088 95 C242.711 95 215.14 147.992 245.774 191.702 L412.873 430.124 C416.398 435.154 424 459.245 424 465.387 L424 483 C424 503.423 407.423 520 387 520 L92.5 520 C66.2814 520 45 498.719 45 472.5 C45 446.281 66.2814 425 92.5 425 L92.5 425 Z " />
<glyph glyph-name="oogonek" unicode="&#x1eb;" horiz-adv-x="754" d="M189 298 C189 417 271 507 379 507 C487 507 568 417 568 298 C568 244 554.23 198.1 529.606 163.216 C524.863 156.497 516.901 158.406 512.422 165.303 C501.587 181.988 489.98 199.445 477.878 217.397 C472.642 225.163 461.669 227.881 453.818 222.773 L399.182 187.227 C391.379 182.15 389.674 171.116 394.878 163.397 C408.377 143.373 421.258 123.967 433.141 105.559 C435.901 101.284 434.508 97 429.554 95.838 C413.822 92.1479 396.769 90 379 90 C265 90 189 173 189 298 L189 298 Z M58 298 C58 114 186 -9 379 -9 C414.475 -9 447.228 -4.91625 477.819 2.68973 C486.775 4.91637 503.701 -2.126 508.811 -9.81 C542.75 -60.84 563 -90 563 -90 C563 -90 570.919 -84.8478 581.369 -78.049 L604.5 -63 C627.405 -48.0977 633.695 -17.542 618.537 5.19489 L610.962 16.5577 C599.636 33.5456 606.936 70.3192 620.979 85.1392 C671.414 138.362 700 211.375 700 298 C700 474 562 606 380 606 C197 606 58.5 474 58.5 298 L58 298 Z " />
<glyph glyph-name="Adotabove" unicode="&#x226;" horiz-adv-x="725" d="M362.44 830 L371.56 830 C405.473 830 433 857.527 433 891.44 L433 900.56 C433 934.473 405.473 962 371.56 962 L362.44 962 C328.527 962 301 934.473 301 900.56 L301 891.44 C301 857.527 328.527 830 362.44 830 L362.44 830 Z M697 50 L452.844 709.88 C445.16 730.649 417.367 750 395.222 750 L314.585 750 C302.442 750 286.876 739.327 282.5 728 L274 706 C273 703 40 86 17 25 C11 10 8 0 8 0 C8 0 11.0763 0 13.2202 0 L149.192 0 C151.143 0 152.316 -1.62567 153.073 0.172051 C153.554 1.31405 156.364 8.09091 160 19 L196.165 116.858 C203.846 137.641 231.638 157 253.795 157 L469.83 157 C492.248 157 520.034 137.477 527.633 116.386 L562 21 C566 8 569 0 569 0 C569 0 569.869 0 573.272 0 L714 0 C713 2 697 50 696 50 L697 50 Z M277.273 342.586 L304.059 415.661 C324.303 470.889 397.412 470.785 417.5 415.5 L444.053 342.422 C459.589 299.662 431.801 260 386.306 260 L334.959 260 C289.374 260 261.584 299.786 277.273 342.586 L277.273 342.586 Z " />
<glyph glyph-name="G_sc" unicode="&#x262;" horiz-adv-x="711" d="M399.5 266 L492 266 C524.014 266 550 240.014 550 208 L550 178.04 C550 163.211 538.584 140.461 526.224 132.267 C487.111 106.335 440.375 90 395 90 C268 90 184 173 184 298 C184 423 268 507 395 507 C443.675 507 499.837 472.288 542.71 416.902 C555.716 400.1 585.66 393.882 601.908 407.574 L617.51 420.722 C643.191 442.363 651.268 466.93 629.876 492.82 C572.778 561.928 484.25 606 395 606 C190 606 53 483 53 298 C53 114 190 -9 395 -9 C485 -9 574.19 23.4 643.616 73.62 C654.989 81.8469 666 105.74 666 119.777 L666 303.56 C666 337.473 638.473 365 604.56 365 L399.5 365 C372.177 365 350 342.823 350 315.5 C350 288.177 372.177 266 399.5 266 L399.5 266 Z " />
<glyph glyph-name="I_sc" unicode="&#x26a;" horiz-adv-x="301" d="M216 60.5 L216 536.5 C216 569.894 188.894 597 155.5 597 C122.106 597 95 569.894 95 536.5 L95 60.5 C95 27.1058 122.106 0 155.5 0 C188.894 0 216 27.1058 216 60.5 L216 60.5 Z " />
</font>
</svg>
